{
  "accessors": [
    {
      "bufferView": 2,
      "componentType": 5126,
      "count": 998,
      "max": [
        0.07508199661970139,
        0.045315999537706375,
        0.07900399714708328
      ],
      "min": [
        -0.12340500205755234,
        -0.026575999334454536,
        -0.5099620223045349
      ],
      "type": "VEC3"
    },
    {
      "bufferView": 2,
      "byteOffset": 11976,
      "componentType": 5126,
      "count": 998,
      "max": [
        1.0,
        1.0,
        0.9792184233665466
      ],
      "min": [
        -0.9999998807907104,
        -1.0,
        -1.0
      ],
      "type": "VEC3"
    },
    {
      "bufferView": 3,
      "componentType": 5126,
      "count": 998,
      "max": [
        1.0,
        0.9999980926513672,
        0.8816688656806946,
        1.0
      ],
      "min": [
        -0.9999875426292419,
        -0.9999875426292419,
        -0.9952090978622437,
        1.0
      ],
      "type": "VEC4"
    },
    {
      "bufferView": 1,
      "componentType": 5126,
      "count": 998,
      "max": [
        0.857778012752533,
        0.9975590109825134
      ],
      "min": [
        0.002440999960526824,
        0.002440999960526824
      ],
      "type": "VEC2"
    },
    {
      "bufferView": 0,
      "componentType": 5125,
      "count": 4224,
      "type": "SCALAR"
    }
  ],
  "asset": {
    "extras": {
      "author": "k3v1nc0 (https://sketchfab.com/k3v1nc0)",
      "license": "CC-BY-4.0 (http://creativecommons.org/licenses/by/4.0/)",
      "source": "https://sketchfab.com/3d-models/fairy-wand-old-and-raw-ba1564e964fe4d8cbf079b10368c6549",
      "title": "Fairy wand old and raw"
    },
    "generator": "Sketchfab-13.19.0",
    "version": "2.0"
  },
  "bufferViews": [
    {
      "buffer": 0,
      "byteLength": 16896,
      "name": "floatBufferViews",
      "target": 34963
    },
    {
      "buffer": 0,
      "byteLength": 7984,
      "byteOffset": 16896,
      "byteStride": 8,
      "name": "floatBufferViews",
      "target": 34962
    },
    {
      "buffer": 0,
      "byteLength": 23952,
      "byteOffset": 24880,
      "byteStride": 12,
      "name": "floatBufferViews",
      "target": 34962
    },
    {
      "buffer": 0,
      "byteLength": 15968,
      "byteOffset": 48832,
      "byteStride": 16,
      "name": "floatBufferViews",
      "target": 34962
    }
  ],
  "buffers": [
    {
      "byteLength": 64800,
      "uri": "scene.bin"
    }
  ],
  "images": [
    {
      "uri": "textures/Fairy_wand_baseColor.png"
    },
    {
      "uri": "textures/Fairy_wand_metallicRoughness.png"
    },
    {
      "uri": "textures/Fairy_wand_emissive.jpeg"
    },
    {
      "uri": "textures/Fairy_wand_normal.png"
    }
  ],
  "materials": [
    {
      "alphaMode": "BLEND",
      "doubleSided": true,
      "emissiveTexture": {
        "index": 2
      },
      "name": "Fairy_wand",
      "normalTexture": {
        "index": 3
      },
      "occlusionTexture": {
        "index": 1
      },
      "pbrMetallicRoughness": {
        "baseColorTexture": {
          "index": 0
        },
        "metallicRoughnessTexture": {
          "index": 1
        }
      }
    }
  ],
  "meshes": [
    {
      "name": "Object_0",
      "primitives": [
        {
          "attributes": {
            "NORMAL": 1,
            "POSITION": 0,
            "TANGENT": 2,
            "TEXCOORD_0": 3
          },
          "indices": 4,
          "material": 0,
          "mode": 4
        }
      ]
    }
  ],
  "nodes": [
    {
      "children": [
        1
      ],
      "matrix": [
        1.7110998630523682,
        0.0,
        0.0,
        0.0,
        0.0,
        3.7994049307873826e-16,
        -1.7110998630523682,
        0.0,
        0.0,
        1.7110998630523682,
        3.7994049307873826e-16,
        0.0,
        0.0,
        0.0,
        0.0,
        1.0
      ],
      "name": "Sketchfab_model"
    },
    {
      "children": [
        2
      ],
      "name": "Fairy wand.obj.cleaner.materialmerger.gles"
    },
    {
      "mesh": 0,
      "name": "Object_2"
    }
  ],
  "samplers": [
    {
      "magFilter": 9729,
      "minFilter": 9987,
      "wrapS": 10497,
      "wrapT": 10497
    }
  ],
  "scene": 0,
  "scenes": [
    {
      "name": "Sketchfab_Scene",
      "nodes": [
        0
      ]
    }
  ],
  "textures": [
    {
      "sampler": 0,
      "source": 0
    },
    {
      "sampler": 0,
      "source": 1
    },
    {
      "sampler": 0,
      "source": 2
    },
    {
      "sampler": 0,
      "source": 3
    }
  ]
}
