<svg width="13" height="9" viewBox="0 0 13 9" fill="none" xmlns="http://www.w3.org/2000/svg">
<path d="M6.67337 6.59091e-06C5.70052 -0.00164997 4.48172 0.308955 3.27932 0.94121C2.07883 1.57346 1.12729 2.40174 0.568721 3.2107C0.00987658 4.01689 -0.141244 4.76787 0.133669 5.30349C0.408856 5.83635 1.10461 6.14281 2.07992 6.14281C3.05523 6.14557 4.27403 5.83359 5.4737 5.20409C6.67611 4.57184 7.6271 3.7408 8.18458 2.9346C8.74479 2.12841 8.89235 1.37744 8.61908 0.841816C8.34307 0.308955 7.64896 6.59091e-06 6.67337 6.59091e-06ZM9.18476 1.94067C9.08911 2.36309 8.88142 2.79656 8.58902 3.21898C7.97142 4.11076 6.96304 4.98046 5.70052 5.64308C4.438 6.30847 3.15635 6.64254 2.07965 6.64254C1.57136 6.64254 1.10024 6.56523 0.703171 6.40234L0.992568 6.96557C1.26803 7.50119 1.96187 7.80766 2.93773 7.80766C3.91331 7.80766 5.13211 7.49843 6.33178 6.86618C7.53419 6.23668 8.48518 5.40564 9.04265 4.59669C9.60013 3.79049 9.75317 3.03952 9.47716 2.50666L9.18476 1.94067ZM9.97178 2.40451C10.2779 3.14167 10.0319 4.03898 9.4471 4.88106C8.93061 5.62928 8.14085 6.3554 7.16253 6.96281C7.46587 6.99594 7.78286 7.01251 8.10533 7.01251C9.45803 7.01251 10.6823 6.71985 11.5458 6.26429C12.4121 5.80874 12.8876 5.21238 12.8876 4.61049C12.8876 4.00861 12.4121 3.41225 11.5458 2.95669C11.1059 2.72477 10.5703 2.53427 9.97178 2.40451ZM12.8876 5.85015C12.6089 6.1787 12.2263 6.4686 11.7754 6.70604C10.8189 7.20853 9.52908 7.50947 8.10533 7.50947C7.52599 7.50947 6.96851 7.45978 6.44656 7.36591C5.81256 7.68894 5.17584 7.92914 4.5637 8.08651C4.5965 8.10584 4.62929 8.1224 4.66481 8.14173C5.52836 8.59728 6.75262 8.88994 8.10533 8.88994C9.45803 8.88994 10.6823 8.59728 11.5458 8.14173C12.4121 7.68617 12.8876 7.08981 12.8876 6.48793V5.85015Z" fill="white"/>
</svg>
