<svg width="61" height="842" viewBox="0 0 61 842" fill="none" xmlns="http://www.w3.org/2000/svg">
<mask id="path-1-outside-1_145_251" maskUnits="userSpaceOnUse" x="0" y="0.71875" width="61" height="841" fill="black">
<rect fill="white" y="0.71875" width="61" height="841"/>
<path d="M2.00003 56.2344L2.00004 2.71875L58.0157 2.71875V10.7266L10.0078 10.7266L10.0078 56.2344H2.00003ZM2.00003 129.984L2.00003 121.977H18.0157L18.0157 77.2891H25.9844L25.9844 121.977H50.0078V93.2656C50.0078 90.5312 49.474 87.9531 48.4063 85.5312C47.3646 83.1094 45.9323 81 44.1094 79.2031C42.3125 77.4062 40.2032 75.974 37.7813 74.9062C35.3594 73.8646 32.7683 73.3438 30.0078 73.3438H2.00003L2.00003 65.3359H30.0078C32.586 65.3359 35.0599 65.6615 37.4297 66.3125C39.8256 66.9896 42.0521 67.9271 44.1094 69.125C46.1927 70.349 48.0808 71.8073 49.7735 73.5C51.4922 75.2188 52.9636 77.1068 54.1875 79.1641C55.4115 81.2474 56.349 83.474 57 85.8438C57.6771 88.2135 58.0157 90.6875 58.0157 93.2656V129.984H2.00003ZM2.00003 176.312L2.00003 168.305H50.0078V139.984H58.0157L58.0157 204.633H50.0078V176.312H2.00003ZM2.00002 272.602L2.00003 214.672H58.0157L58.0156 272.602H50.0078L50.0078 222.68H10.0078L10.0078 272.602H2.00002ZM25.9844 265.805L25.9844 226.664H33.9922L33.9922 265.805H25.9844ZM18.0156 346.898C15.7761 346.898 13.6797 346.482 11.7266 345.648C9.7995 344.815 8.10679 343.669 6.64846 342.211C5.21617 340.779 4.08335 339.086 3.25002 337.133C2.41669 335.206 2.00002 333.135 2.00002 330.922L2.00002 282.25H10.0078L10.0078 330.922C10.0078 332.042 10.2162 333.083 10.6328 334.047C11.0495 335.01 11.6224 335.844 12.3516 336.547C13.0808 337.276 13.9271 337.849 14.8906 338.266C15.8802 338.682 16.9219 338.891 18.0156 338.891C19.1094 338.891 20.138 338.682 21.1016 338.266C22.0651 337.849 22.9115 337.276 23.6406 336.547C24.3698 335.844 24.9427 335.01 25.3594 334.047C25.7761 333.083 25.9844 332.042 25.9844 330.922L25.9844 298.266C25.9844 296.078 26.4011 294.008 27.2344 292.055C28.0677 290.102 29.2005 288.396 30.6328 286.938C32.0912 285.505 33.7969 284.359 35.75 283.5C37.7031 282.667 39.7865 282.25 42 282.25C44.1875 282.25 46.2578 282.667 48.211 283.5C50.1641 284.359 51.8568 285.505 53.2891 286.938C54.7474 288.396 55.8933 290.102 56.7266 292.055C57.586 294.008 58.0156 296.078 58.0156 298.266V342.914H50.0078V298.266C50.0078 297.172 49.7995 296.13 49.3828 295.141C48.9662 294.177 48.3933 293.331 47.6641 292.602C46.9349 291.872 46.0755 291.299 45.086 290.883C44.1224 290.466 43.0938 290.258 42 290.258C40.9063 290.258 39.8646 290.466 38.875 290.883C37.9115 291.299 37.0651 291.872 36.336 292.602C35.6068 293.331 35.0339 294.177 34.6172 295.141C34.2005 296.13 33.9922 297.172 33.9922 298.266L33.9922 330.922C33.9922 333.135 33.5625 335.206 32.7031 337.133C31.8698 339.086 30.724 340.779 29.2656 342.211C27.8334 343.669 26.1406 344.815 24.1875 345.648C22.2604 346.482 20.2031 346.898 18.0156 346.898ZM2.00002 389.203L2.00002 381.195H50.0078V352.875H58.0156V417.523H50.0078V389.203H2.00002ZM22.1563 530.961C19.3698 530.961 16.7526 530.427 14.3047 529.359C11.8568 528.318 9.72137 526.885 7.89845 525.062C6.07553 523.24 4.63022 521.104 3.56251 518.656C2.52085 516.208 2.00001 513.591 2.00001 510.805C2.00001 509.138 2.18231 507.523 2.54689 505.961C2.93751 504.424 3.47137 502.966 4.14845 501.586C4.85158 500.206 5.69793 498.917 6.68751 497.719C7.6771 496.547 8.78387 495.492 10.0078 494.555C7.55991 492.706 5.60679 490.388 4.14845 487.602C2.71616 484.815 2.00001 481.755 2.00002 478.422C2.00002 475.635 2.52085 473.018 3.56252 470.57C4.63022 468.122 6.07554 465.987 7.89845 464.164C9.72137 462.341 11.8568 460.896 14.3047 459.828C16.7526 458.786 19.3698 458.266 22.1563 458.266H58.0156V466.234H22.1563C20.4636 466.234 18.875 466.547 17.3906 467.172C15.9323 467.823 14.6563 468.695 13.5625 469.789C12.4688 470.909 11.5964 472.198 10.9453 473.656C10.3203 475.141 10.0078 476.729 10.0078 478.422C10.0078 480.062 10.3073 481.599 10.9063 483.031C11.5052 484.49 12.3255 485.753 13.3672 486.82C14.4089 487.914 15.6328 488.786 17.0391 489.438C18.4714 490.115 19.9948 490.492 21.6094 490.57H58.0156V498.656H22.1563C20.4636 498.656 18.875 498.969 17.3906 499.594C15.9323 500.245 14.6563 501.117 13.5625 502.211C12.4688 503.305 11.5964 504.581 10.9453 506.039C10.3203 507.523 10.0078 509.112 10.0078 510.805C10.0078 512.471 10.3203 514.047 10.9453 515.531C11.5964 517.016 12.4688 518.305 13.5625 519.398C14.6563 520.518 15.9323 521.391 17.3906 522.016C18.875 522.667 20.4636 522.992 22.1563 522.992H58.0156V530.961H22.1563ZM30.0078 613.266C26.1276 613.266 22.4818 612.654 19.0703 611.43C15.6589 610.206 12.6901 608.461 10.1641 606.195C7.63803 603.956 5.64584 601.26 4.18751 598.109C2.72918 594.958 2.00001 591.456 2.00001 587.602L2.00001 568.969C2.00001 565.089 2.72918 561.56 4.18751 558.383C5.64585 555.206 7.63803 552.484 10.1641 550.219C12.6901 547.979 15.6589 546.247 19.0703 545.023C22.4818 543.799 26.1276 543.187 30.0078 543.188C33.862 543.188 37.4818 543.799 40.8672 545.023C44.2787 546.247 47.2474 547.979 49.7734 550.219C52.3255 552.484 54.3307 555.206 55.7891 558.383C57.2734 561.56 58.0156 565.089 58.0156 568.969V587.602C58.0156 591.456 57.2734 594.958 55.7891 598.109C54.3307 601.26 52.3255 603.956 49.7734 606.195C47.2474 608.461 44.2787 610.206 40.8672 611.43C37.4818 612.654 33.862 613.266 30.0078 613.266ZM30.0078 605.258C32.7682 605.258 35.3594 604.854 37.7813 604.047C40.2031 603.24 42.3125 602.068 44.1094 600.531C45.9323 599.021 47.3646 597.172 48.4063 594.984C49.474 592.823 50.0078 590.362 50.0078 587.602V568.969C50.0078 566.208 49.474 563.721 48.4063 561.508C47.3646 559.32 45.9323 557.458 44.1094 555.922C42.3125 554.411 40.2031 553.24 37.7813 552.406C35.3594 551.599 32.7682 551.195 30.0078 551.195C27.2474 551.195 24.6432 551.599 22.1953 552.406C19.7734 553.24 17.6511 554.411 15.8281 555.922C14.0313 557.458 12.612 559.32 11.5703 561.508C10.5287 563.721 10.0078 566.208 10.0078 568.969L10.0078 587.602C10.0078 590.362 10.5287 592.823 11.5703 594.984C12.612 597.172 14.0313 599.021 15.8281 600.531C17.6511 602.068 19.7734 603.24 22.1953 604.047C24.6432 604.854 27.2474 605.258 30.0078 605.258ZM2.00001 690.648L2.00001 679.828L18.0156 663.031V638.5H25.9063L25.9063 670.648C25.9063 672.315 26.2188 673.878 26.8438 675.336C27.4948 676.794 28.3672 678.057 29.4609 679.125C30.5547 680.219 31.8307 681.078 33.2891 681.703C34.7734 682.328 36.349 682.641 38.0156 682.641C39.6823 682.641 41.2448 682.328 42.7031 681.703C44.1615 681.078 45.4245 680.219 46.4922 679.125C47.5859 678.057 48.4453 676.794 49.0703 675.336C49.6953 673.878 50.0078 672.315 50.0078 670.648V634.008H2.00001L2.00001 626H58.0156V670.648C58.0156 673.409 57.4818 676 56.4141 678.422C55.3724 680.844 53.9401 682.953 52.1172 684.75C50.3203 686.573 48.2109 688.005 45.7891 689.047C43.3672 690.115 40.776 690.648 38.0156 690.648C35.5156 690.648 33.1458 690.219 30.9063 689.359C28.6927 688.5 26.7005 687.315 24.9297 685.805C23.1849 684.294 21.7266 682.51 20.5547 680.453C19.4089 678.422 18.6406 676.221 18.25 673.852L2.00001 690.648ZM2 768.539L2 757.758L30.7891 729.164L18.0156 711.43H2L2.00001 703.422H58.0156V711.43H26.8047L58.0156 755.336V767.016L35.2031 735.258L2 768.539ZM18.0156 839.242C15.776 839.242 13.6797 838.826 11.7266 837.992C9.79948 837.159 8.10677 836.013 6.64844 834.555C5.21615 833.122 4.08333 831.43 3.25 829.477C2.41667 827.549 2 825.479 2 823.266L2 774.594H10.0078L10.0078 823.266C10.0078 824.385 10.2161 825.427 10.6328 826.391C11.0495 827.354 11.6224 828.187 12.3516 828.891C13.0807 829.62 13.9271 830.193 14.8906 830.609C15.8802 831.026 16.9219 831.234 18.0156 831.234C19.1094 831.234 20.138 831.026 21.1016 830.609C22.0651 830.193 22.9115 829.62 23.6406 828.891C24.3698 828.188 24.9427 827.354 25.3594 826.391C25.776 825.427 25.9844 824.385 25.9844 823.266L25.9844 790.609C25.9844 788.422 26.401 786.352 27.2344 784.398C28.0677 782.445 29.2005 780.74 30.6328 779.281C32.0911 777.849 33.7969 776.703 35.75 775.844C37.7031 775.01 39.7865 774.594 42 774.594C44.1875 774.594 46.2578 775.01 48.2109 775.844C50.1641 776.703 51.8568 777.849 53.2891 779.281C54.7474 780.74 55.8932 782.445 56.7266 784.398C57.5859 786.352 58.0156 788.422 58.0156 790.609V835.258H50.0078V790.609C50.0078 789.516 49.7995 788.474 49.3828 787.484C48.9661 786.521 48.3932 785.674 47.6641 784.945C46.9349 784.216 46.0755 783.643 45.0859 783.227C44.1224 782.81 43.0938 782.602 42 782.602C40.9062 782.602 39.8646 782.81 38.875 783.227C37.9115 783.643 37.0651 784.216 36.3359 784.945C35.6068 785.674 35.0339 786.521 34.6172 787.484C34.2005 788.474 33.9922 789.516 33.9922 790.609L33.9922 823.266C33.9922 825.479 33.5625 827.549 32.7031 829.477C31.8698 831.43 30.724 833.122 29.2656 834.555C27.8333 836.013 26.1406 837.159 24.1875 837.992C22.2604 838.826 20.2031 839.242 18.0156 839.242Z"/>
</mask>
<path d="M2.00003 56.2344L2.00004 2.71875L58.0157 2.71875V10.7266L10.0078 10.7266L10.0078 56.2344H2.00003ZM2.00003 129.984L2.00003 121.977H18.0157L18.0157 77.2891H25.9844L25.9844 121.977H50.0078V93.2656C50.0078 90.5312 49.474 87.9531 48.4063 85.5312C47.3646 83.1094 45.9323 81 44.1094 79.2031C42.3125 77.4062 40.2032 75.974 37.7813 74.9062C35.3594 73.8646 32.7683 73.3438 30.0078 73.3438H2.00003L2.00003 65.3359H30.0078C32.586 65.3359 35.0599 65.6615 37.4297 66.3125C39.8256 66.9896 42.0521 67.9271 44.1094 69.125C46.1927 70.349 48.0808 71.8073 49.7735 73.5C51.4922 75.2188 52.9636 77.1068 54.1875 79.1641C55.4115 81.2474 56.349 83.474 57 85.8438C57.6771 88.2135 58.0157 90.6875 58.0157 93.2656V129.984H2.00003ZM2.00003 176.312L2.00003 168.305H50.0078V139.984H58.0157L58.0157 204.633H50.0078V176.312H2.00003ZM2.00002 272.602L2.00003 214.672H58.0157L58.0156 272.602H50.0078L50.0078 222.68H10.0078L10.0078 272.602H2.00002ZM25.9844 265.805L25.9844 226.664H33.9922L33.9922 265.805H25.9844ZM18.0156 346.898C15.7761 346.898 13.6797 346.482 11.7266 345.648C9.7995 344.815 8.10679 343.669 6.64846 342.211C5.21617 340.779 4.08335 339.086 3.25002 337.133C2.41669 335.206 2.00002 333.135 2.00002 330.922L2.00002 282.25H10.0078L10.0078 330.922C10.0078 332.042 10.2162 333.083 10.6328 334.047C11.0495 335.01 11.6224 335.844 12.3516 336.547C13.0808 337.276 13.9271 337.849 14.8906 338.266C15.8802 338.682 16.9219 338.891 18.0156 338.891C19.1094 338.891 20.138 338.682 21.1016 338.266C22.0651 337.849 22.9115 337.276 23.6406 336.547C24.3698 335.844 24.9427 335.01 25.3594 334.047C25.7761 333.083 25.9844 332.042 25.9844 330.922L25.9844 298.266C25.9844 296.078 26.4011 294.008 27.2344 292.055C28.0677 290.102 29.2005 288.396 30.6328 286.938C32.0912 285.505 33.7969 284.359 35.75 283.5C37.7031 282.667 39.7865 282.25 42 282.25C44.1875 282.25 46.2578 282.667 48.211 283.5C50.1641 284.359 51.8568 285.505 53.2891 286.938C54.7474 288.396 55.8933 290.102 56.7266 292.055C57.586 294.008 58.0156 296.078 58.0156 298.266V342.914H50.0078V298.266C50.0078 297.172 49.7995 296.13 49.3828 295.141C48.9662 294.177 48.3933 293.331 47.6641 292.602C46.9349 291.872 46.0755 291.299 45.086 290.883C44.1224 290.466 43.0938 290.258 42 290.258C40.9063 290.258 39.8646 290.466 38.875 290.883C37.9115 291.299 37.0651 291.872 36.336 292.602C35.6068 293.331 35.0339 294.177 34.6172 295.141C34.2005 296.13 33.9922 297.172 33.9922 298.266L33.9922 330.922C33.9922 333.135 33.5625 335.206 32.7031 337.133C31.8698 339.086 30.724 340.779 29.2656 342.211C27.8334 343.669 26.1406 344.815 24.1875 345.648C22.2604 346.482 20.2031 346.898 18.0156 346.898ZM2.00002 389.203L2.00002 381.195H50.0078V352.875H58.0156V417.523H50.0078V389.203H2.00002ZM22.1563 530.961C19.3698 530.961 16.7526 530.427 14.3047 529.359C11.8568 528.318 9.72137 526.885 7.89845 525.062C6.07553 523.24 4.63022 521.104 3.56251 518.656C2.52085 516.208 2.00001 513.591 2.00001 510.805C2.00001 509.138 2.18231 507.523 2.54689 505.961C2.93751 504.424 3.47137 502.966 4.14845 501.586C4.85158 500.206 5.69793 498.917 6.68751 497.719C7.6771 496.547 8.78387 495.492 10.0078 494.555C7.55991 492.706 5.60679 490.388 4.14845 487.602C2.71616 484.815 2.00001 481.755 2.00002 478.422C2.00002 475.635 2.52085 473.018 3.56252 470.57C4.63022 468.122 6.07554 465.987 7.89845 464.164C9.72137 462.341 11.8568 460.896 14.3047 459.828C16.7526 458.786 19.3698 458.266 22.1563 458.266H58.0156V466.234H22.1563C20.4636 466.234 18.875 466.547 17.3906 467.172C15.9323 467.823 14.6563 468.695 13.5625 469.789C12.4688 470.909 11.5964 472.198 10.9453 473.656C10.3203 475.141 10.0078 476.729 10.0078 478.422C10.0078 480.062 10.3073 481.599 10.9063 483.031C11.5052 484.49 12.3255 485.753 13.3672 486.82C14.4089 487.914 15.6328 488.786 17.0391 489.438C18.4714 490.115 19.9948 490.492 21.6094 490.57H58.0156V498.656H22.1563C20.4636 498.656 18.875 498.969 17.3906 499.594C15.9323 500.245 14.6563 501.117 13.5625 502.211C12.4688 503.305 11.5964 504.581 10.9453 506.039C10.3203 507.523 10.0078 509.112 10.0078 510.805C10.0078 512.471 10.3203 514.047 10.9453 515.531C11.5964 517.016 12.4688 518.305 13.5625 519.398C14.6563 520.518 15.9323 521.391 17.3906 522.016C18.875 522.667 20.4636 522.992 22.1563 522.992H58.0156V530.961H22.1563ZM30.0078 613.266C26.1276 613.266 22.4818 612.654 19.0703 611.43C15.6589 610.206 12.6901 608.461 10.1641 606.195C7.63803 603.956 5.64584 601.26 4.18751 598.109C2.72918 594.958 2.00001 591.456 2.00001 587.602L2.00001 568.969C2.00001 565.089 2.72918 561.56 4.18751 558.383C5.64585 555.206 7.63803 552.484 10.1641 550.219C12.6901 547.979 15.6589 546.247 19.0703 545.023C22.4818 543.799 26.1276 543.187 30.0078 543.188C33.862 543.188 37.4818 543.799 40.8672 545.023C44.2787 546.247 47.2474 547.979 49.7734 550.219C52.3255 552.484 54.3307 555.206 55.7891 558.383C57.2734 561.56 58.0156 565.089 58.0156 568.969V587.602C58.0156 591.456 57.2734 594.958 55.7891 598.109C54.3307 601.26 52.3255 603.956 49.7734 606.195C47.2474 608.461 44.2787 610.206 40.8672 611.43C37.4818 612.654 33.862 613.266 30.0078 613.266ZM30.0078 605.258C32.7682 605.258 35.3594 604.854 37.7813 604.047C40.2031 603.24 42.3125 602.068 44.1094 600.531C45.9323 599.021 47.3646 597.172 48.4063 594.984C49.474 592.823 50.0078 590.362 50.0078 587.602V568.969C50.0078 566.208 49.474 563.721 48.4063 561.508C47.3646 559.32 45.9323 557.458 44.1094 555.922C42.3125 554.411 40.2031 553.24 37.7813 552.406C35.3594 551.599 32.7682 551.195 30.0078 551.195C27.2474 551.195 24.6432 551.599 22.1953 552.406C19.7734 553.24 17.6511 554.411 15.8281 555.922C14.0313 557.458 12.612 559.32 11.5703 561.508C10.5287 563.721 10.0078 566.208 10.0078 568.969L10.0078 587.602C10.0078 590.362 10.5287 592.823 11.5703 594.984C12.612 597.172 14.0313 599.021 15.8281 600.531C17.6511 602.068 19.7734 603.24 22.1953 604.047C24.6432 604.854 27.2474 605.258 30.0078 605.258ZM2.00001 690.648L2.00001 679.828L18.0156 663.031V638.5H25.9063L25.9063 670.648C25.9063 672.315 26.2188 673.878 26.8438 675.336C27.4948 676.794 28.3672 678.057 29.4609 679.125C30.5547 680.219 31.8307 681.078 33.2891 681.703C34.7734 682.328 36.349 682.641 38.0156 682.641C39.6823 682.641 41.2448 682.328 42.7031 681.703C44.1615 681.078 45.4245 680.219 46.4922 679.125C47.5859 678.057 48.4453 676.794 49.0703 675.336C49.6953 673.878 50.0078 672.315 50.0078 670.648V634.008H2.00001L2.00001 626H58.0156V670.648C58.0156 673.409 57.4818 676 56.4141 678.422C55.3724 680.844 53.9401 682.953 52.1172 684.75C50.3203 686.573 48.2109 688.005 45.7891 689.047C43.3672 690.115 40.776 690.648 38.0156 690.648C35.5156 690.648 33.1458 690.219 30.9063 689.359C28.6927 688.5 26.7005 687.315 24.9297 685.805C23.1849 684.294 21.7266 682.51 20.5547 680.453C19.4089 678.422 18.6406 676.221 18.25 673.852L2.00001 690.648ZM2 768.539L2 757.758L30.7891 729.164L18.0156 711.43H2L2.00001 703.422H58.0156V711.43H26.8047L58.0156 755.336V767.016L35.2031 735.258L2 768.539ZM18.0156 839.242C15.776 839.242 13.6797 838.826 11.7266 837.992C9.79948 837.159 8.10677 836.013 6.64844 834.555C5.21615 833.122 4.08333 831.43 3.25 829.477C2.41667 827.549 2 825.479 2 823.266L2 774.594H10.0078L10.0078 823.266C10.0078 824.385 10.2161 825.427 10.6328 826.391C11.0495 827.354 11.6224 828.187 12.3516 828.891C13.0807 829.62 13.9271 830.193 14.8906 830.609C15.8802 831.026 16.9219 831.234 18.0156 831.234C19.1094 831.234 20.138 831.026 21.1016 830.609C22.0651 830.193 22.9115 829.62 23.6406 828.891C24.3698 828.188 24.9427 827.354 25.3594 826.391C25.776 825.427 25.9844 824.385 25.9844 823.266L25.9844 790.609C25.9844 788.422 26.401 786.352 27.2344 784.398C28.0677 782.445 29.2005 780.74 30.6328 779.281C32.0911 777.849 33.7969 776.703 35.75 775.844C37.7031 775.01 39.7865 774.594 42 774.594C44.1875 774.594 46.2578 775.01 48.2109 775.844C50.1641 776.703 51.8568 777.849 53.2891 779.281C54.7474 780.74 55.8932 782.445 56.7266 784.398C57.5859 786.352 58.0156 788.422 58.0156 790.609V835.258H50.0078V790.609C50.0078 789.516 49.7995 788.474 49.3828 787.484C48.9661 786.521 48.3932 785.674 47.6641 784.945C46.9349 784.216 46.0755 783.643 45.0859 783.227C44.1224 782.81 43.0938 782.602 42 782.602C40.9062 782.602 39.8646 782.81 38.875 783.227C37.9115 783.643 37.0651 784.216 36.3359 784.945C35.6068 785.674 35.0339 786.521 34.6172 787.484C34.2005 788.474 33.9922 789.516 33.9922 790.609L33.9922 823.266C33.9922 825.479 33.5625 827.549 32.7031 829.477C31.8698 831.43 30.724 833.122 29.2656 834.555C27.8333 836.013 26.1406 837.159 24.1875 837.992C22.2604 838.826 20.2031 839.242 18.0156 839.242Z" stroke="#FD1C74" stroke-opacity="0.55" stroke-width="4" mask="url(#path-1-outside-1_145_251)"/>
</svg>
