<svg width="1918" height="1080" viewBox="0 0 1918 1080" fill="none" xmlns="http://www.w3.org/2000/svg">
<g clip-path="url(#clip0_71_261)">
<path d="M0 540V1080H960H1920V540V1.87755e-05H960H0V540ZM499.5 28.9888C511.05 41.9326 520.5 52.854 520.5 53.2584C520.5 53.6629 426 53.9326 310.5 53.9326H100.5L58.05 30.2023C34.8 17.1236 15.45 6.20227 15.15 5.9326C14.85 5.66294 118.95 5.39328 246.45 5.39328H478.35L499.5 28.9888ZM957 29.6629V53.9326H743.55H530.1L510.6 32.0899C499.95 20.0899 490.35 9.16856 489.3 7.82024C487.35 5.52811 495 5.39328 722.1 5.39328H957V29.6629ZM1428.45 10.5169C1426.2 13.3483 1416.9 24.2697 1407.75 34.7865L1391.25 53.9326H1177.2H963V29.6629V5.39328H1197.9H1432.8L1428.45 10.5169ZM1904.85 5.9326C1904.55 6.20227 1885.2 17.1236 1861.95 30.2023L1819.5 53.9326H1609.35H1399.2L1409.4 42.0674C1415.1 35.5955 1424.55 24.6742 1430.7 17.7978L1441.65 5.39328H1673.55C1801.2 5.39328 1905.15 5.66294 1904.85 5.9326ZM54.45 34.9214L96 58.2472V540V1021.62L52.95 1045.75C29.4 1058.97 9.15 1070.43 7.95 1070.97C6.3 1071.91 6 983.191 6 539.865V7.82024L9.45 9.70788C11.25 10.7865 31.5 22.1124 54.45 34.9214ZM1913.7 805.348L1913.25 1071.64L1868.7 1046.56L1824 1021.62V540V58.2472L1868.7 33.3034L1913.25 8.22474L1913.7 273.708C1913.85 419.596 1913.85 658.921 1913.7 805.348ZM545.7 80.0899C555.75 91.4157 564 101.124 564 101.663C564 102.067 479.1 102.472 375.3 102.472H186.75L149.4 81.5731C129 70.1124 111.75 60.4045 111.3 60C110.85 59.5955 204.3 59.3259 318.9 59.4607H527.25L545.7 80.0899ZM957 80.8989V102.472H765H573.15L555.3 82.5169C545.55 71.5955 537 61.8877 536.4 60.9438C535.5 59.7304 577.95 59.3259 746.1 59.3259H957V80.8989ZM1383.45 61.0787C1382.85 62.1573 1374.6 71.8652 1365.15 82.6517L1348.05 102.472H1155.45H963V80.8989V59.3259H1173.75C1348.2 59.3259 1384.5 59.5955 1383.45 61.0787ZM1808.7 60C1808.25 60.4045 1791 70.1124 1770.6 81.5731L1733.25 102.472H1544.55C1362.9 102.472 1355.85 102.337 1357.8 100.045C1358.85 98.6966 1367.25 88.9888 1376.25 78.4719L1392.75 59.3259H1601.1C1715.7 59.3259 1809.15 59.5955 1808.7 60ZM142.95 84.2697L181.5 105.843V540V974.157L147.6 993.034C129 1003.42 111.15 1013.39 107.85 1015.15L102 1018.25V540C102 276.944 102.6 62.0225 103.2 62.2922C103.95 62.427 121.8 72.4045 142.95 84.2697ZM1818 540.135V1018.25L1812.15 1015.15C1808.85 1013.39 1791 1003.42 1772.4 993.034L1738.5 974.157V540V105.843L1777.2 84C1798.35 72.1348 1816.2 62.1573 1816.95 62.1573C1817.55 62.0225 1818 277.213 1818 540.135ZM586.2 125.393C595.5 135.775 603 144.539 603 144.944C603 145.348 526.5 145.618 432.9 145.618H262.8L229.95 127.281C211.95 117.169 196.65 108.405 195.9 107.73C195 107.056 273.45 106.517 381.9 106.517H569.4L586.2 125.393ZM957 126.067V145.618H784.2H611.25L594.45 126.742C585.15 116.494 577.5 107.73 577.5 107.326C577.5 106.921 662.85 106.517 767.25 106.517H957V126.067ZM1342.5 107.191C1342.5 107.596 1335.15 116.225 1326.3 126.337L1309.95 144.944L1136.55 145.348L963 145.618V126.067V106.517H1152.75C1257.15 106.517 1342.5 106.787 1342.5 107.191ZM1724.1 107.73C1723.35 108.405 1708.05 117.169 1690.05 127.281L1657.2 145.618L1487.25 145.348L1317.15 144.944L1333.8 125.663L1350.45 106.517H1537.95C1646.55 106.517 1725 107.056 1724.1 107.73ZM239.25 138.202L258.75 149.124V540V930.742L224.25 950.157C205.35 960.674 189.3 969.438 188.7 969.438C188.1 969.438 187.5 775.955 187.5 539.326V109.214L203.7 118.247C212.55 123.101 228.6 132.135 239.25 138.202ZM1732.5 539.326C1732.5 775.82 1731.9 969.438 1731.3 969.438C1730.7 969.438 1714.65 960.674 1695.75 950.157L1661.25 930.742V539.865V148.989L1696.5 129.169C1715.85 118.247 1731.9 109.348 1732.2 109.348C1732.35 109.214 1732.5 302.697 1732.5 539.326ZM622.5 165.438C629.55 173.258 636.15 180.809 637.2 182.292C639.15 184.584 634.65 184.719 485.7 184.719H332.25L303 168.405C286.95 159.371 273.45 151.82 273.15 151.551C272.85 151.281 348.45 151.011 441.15 151.011L609.75 151.146L622.5 165.438ZM957 167.865V184.719H801.45H645.75L633 170.292C625.95 162.337 619.35 154.787 618.3 153.438C616.35 151.146 622.2 151.011 786.6 151.011H957V167.865ZM1302.45 152.629C1301.7 153.573 1295.1 161.258 1287.9 169.483L1274.85 184.719H1118.85H963V167.865V151.011H1133.4C1269.6 151.011 1303.65 151.416 1302.45 152.629ZM1646.85 151.551C1646.55 151.82 1633.05 159.371 1617 168.405L1587.75 184.719H1434.45H1281L1295.7 167.865L1310.25 151.011H1478.85C1571.55 151.011 1647.15 151.281 1646.85 151.551ZM330 540V890.966L298.65 908.629C281.4 918.337 267 926.292 266.4 926.292C265.95 926.292 265.5 752.225 265.5 539.461V152.629L297.75 170.831L330 189.034V540ZM1653.9 926.022C1653.45 926.292 1638.9 918.607 1621.65 908.764L1590 890.966V540V189.034L1621.95 170.966L1653.75 153.034L1654.2 539.191C1654.35 751.551 1654.2 925.618 1653.9 926.022ZM658.2 205.213L671.7 220.449L534 220.854L396.3 221.124L369.45 206.157C354.75 197.798 342.45 190.921 342.15 190.652C341.85 190.382 409.65 190.112 493.05 190.112H644.7L658.2 205.213ZM958.5 205.618V221.124H818.4H678.3L665.85 207.236C659.1 199.685 652.8 192.674 652.05 191.73C650.85 190.517 681.6 190.112 804.6 190.112H958.5V205.618ZM1267.2 192.539C1266.15 193.888 1260.15 200.899 1254 208.045L1242.75 221.124H1102.2H961.5V205.618V190.112H1115.4C1263.15 190.112 1269.15 190.247 1267.2 192.539ZM1577.85 190.652C1577.55 190.921 1565.25 197.798 1550.55 206.157L1523.85 221.124H1386.6C1311.15 221.124 1249.5 220.719 1249.5 220.315C1249.5 219.91 1255.35 212.899 1262.4 204.809L1275.15 190.112H1426.8C1510.2 190.112 1578.15 190.382 1577.85 190.652ZM365.7 208.719L393 223.955V540V855.91L367.2 870.337C352.95 878.427 339.75 885.843 337.95 886.921L334.5 888.809V540.135C334.5 261.438 334.95 191.461 336.45 192.27C337.35 192.809 350.55 200.225 365.7 208.719ZM1585.2 713.663L1584.75 888.27L1555.95 872.09L1527 855.91V540V223.955L1555.95 207.775L1584.75 191.596L1585.2 365.393C1585.35 460.854 1585.35 617.663 1585.2 713.663ZM687.6 237.978C693.9 244.989 699 251.056 699 251.461C699 251.865 643.2 252.135 575.1 252.135H451.2L428.1 239.191C415.35 232.045 405 225.978 405 225.708C405 225.438 466.05 225.169 540.6 225.169H676.2L687.6 237.978ZM958.5 238.652V252.135H832.05H705.45L695.1 240.405C689.4 234.067 684.15 228 683.55 226.921C682.5 225.438 705.6 225.169 820.5 225.169H958.5V238.652ZM1236.45 227.056C1235.85 228.135 1230.75 234.202 1225.05 240.539L1215 252.135H1088.25H961.5V238.652V225.169H1099.5C1217.25 225.169 1237.5 225.438 1236.45 227.056ZM1515 225.708C1515 225.978 1504.65 232.045 1491.9 239.191L1468.8 252.135L1344.9 251.865L1221 251.461L1232.4 238.247L1243.65 225.169H1379.4C1453.95 225.169 1515 225.438 1515 225.708ZM426.45 242.562L448.5 255.101V540V824.899L426.45 837.438C414.15 844.315 402.75 850.787 400.95 851.865L397.5 853.753V540V226.247L400.95 228.135C402.75 229.213 414.15 235.685 426.45 242.562ZM1522.2 696.135L1521.75 853.348L1496.7 839.056L1471.5 824.899V540V255.101L1496.7 240.944L1521.75 226.652L1522.2 382.921C1522.35 468.809 1522.35 609.843 1522.2 696.135ZM715.2 268.315C721.05 274.921 726 280.719 726 281.124C726 281.528 675.9 281.798 614.85 281.798H503.7L481.65 269.528C469.65 262.652 459.45 256.989 459.15 256.719C458.85 256.449 513.75 256.18 581.4 256.18H704.25L715.2 268.315ZM958.2 268.584L957.75 281.124H844.5H731.4L723.45 272.36C718.95 267.506 714 261.978 712.35 259.82L709.35 256.18H834H958.65L958.2 268.584ZM1208.7 258.607C1207.65 259.955 1202.7 265.753 1197.75 271.416L1188.9 281.798L1075.5 281.528L962.25 281.124L961.8 268.584L961.35 256.18H1086C1205.85 256.18 1210.65 256.315 1208.7 258.607ZM1460.85 256.719C1460.55 256.989 1450.35 262.652 1438.35 269.528L1416.3 281.798H1305.75C1213.8 281.798 1195.35 281.528 1195.95 280.045C1196.4 278.966 1200.9 273.169 1206.15 267.236L1215.45 256.18H1338.45C1406.1 256.18 1461.15 256.449 1460.85 256.719ZM478.95 271.955L499.65 283.82V540V796.18L478.95 808.045C467.55 814.517 457.05 820.449 455.7 821.258C453.15 822.472 453 808.719 453 540C453 271.281 453.15 257.528 455.7 258.742C457.05 259.551 467.55 265.483 478.95 271.955ZM1466.7 680.764L1466.25 822.337L1443.3 809.258L1420.35 796.18V540V283.82L1443.3 270.742L1466.25 257.663L1466.7 398.427C1466.85 475.82 1466.85 602.831 1466.7 680.764ZM739.95 295.955L750 307.416H649.5H549L530.55 297.169C520.5 291.506 511.65 286.382 510.9 285.708C510 285.034 555.6 284.494 619.65 284.494H729.75L739.95 295.955ZM958.5 295.955V307.416H856.65H754.65L745.8 297.573C741 292.315 736.5 287.056 735.9 286.112C735 284.899 757.65 284.494 846.6 284.494H958.5V295.955ZM1183.95 286.247C1183.35 287.326 1179 292.449 1174.5 297.708L1166.25 307.281L1063.95 307.416H961.5V295.955V284.494H1073.25C1165.65 284.494 1185 284.764 1183.95 286.247ZM1409.25 285.708C1408.35 286.382 1399.5 291.506 1389.45 297.169L1371 307.416H1271.25C1216.35 307.416 1171.5 307.011 1171.5 306.607C1171.5 306.202 1175.7 301.079 1180.95 295.146L1190.25 284.494H1300.5C1364.4 284.494 1410 285.034 1409.25 285.708ZM540.45 306.202L546 309.438V540V770.562L536.7 775.82C531.45 778.787 522 784.045 515.7 787.685L504 794.157V540V285.843L519.45 294.472C528 299.191 537.45 304.449 540.45 306.202ZM1415.7 666.472L1415.25 793.753L1394.7 782.157L1374 770.562V540V309.303L1394.7 297.708L1415.25 286.112L1415.7 412.584C1415.85 482.157 1415.85 596.36 1415.7 666.472ZM761.85 320.225L771 330.337H680.25H589.5L573.3 321.303C564.45 316.449 556.65 311.865 555.9 311.191C555 310.652 598.95 310.112 653.55 310.112H752.55L761.85 320.225ZM958.5 320.225V330.337H866.7H774.75L767.25 321.978C763.2 317.393 759.15 312.809 758.55 311.865C757.5 310.382 775.8 310.112 858 310.112H958.5V320.225ZM1161.6 311.73C1160.85 312.674 1157.1 317.258 1153.05 321.843L1145.7 330.337H1053.6H961.5V320.225V310.112H1062.15C1142.1 310.112 1162.5 310.517 1161.6 311.73ZM1364.25 311.191C1363.35 311.865 1355.55 316.449 1346.7 321.303L1330.5 330.337L1240.35 330.067L1150.35 329.663L1158.75 319.82L1167.15 310.112H1266.45C1320.9 310.112 1365 310.652 1364.25 311.191ZM587.25 540V747.506L570 757.348C560.55 762.742 552.3 767.191 551.7 767.191C550.95 767.191 550.5 664.719 550.5 539.326V311.461L568.95 321.978L587.25 332.494V540ZM1368.9 766.921C1368.45 767.191 1360.2 763.011 1350.45 757.483L1332.75 747.506V540V332.494L1350.75 322.247L1368.75 312L1369.2 539.056C1369.35 664.045 1369.2 766.517 1368.9 766.921ZM781.2 341.798C785.55 346.517 789 350.831 789 351.236C789 351.64 752.85 351.91 708.6 351.91H628.05L612.9 343.551C604.5 338.966 597.15 334.787 596.4 334.112C595.5 333.573 635.1 333.034 684.15 333.034H773.4L781.2 341.798ZM958.5 342.472V351.91H876.15H793.8L786.15 343.281C781.95 338.562 778.5 334.247 778.5 333.843C778.5 333.438 819 333.034 868.5 333.034H958.5V342.472ZM1141.5 333.843C1141.5 334.247 1138.05 338.562 1133.85 343.281L1126.2 351.91H1043.85H961.5V342.472V333.034H1051.5C1101 333.034 1141.5 333.438 1141.5 333.843ZM1323.75 334.112C1322.85 334.787 1315.35 338.966 1307.1 343.551L1291.95 351.91L1211.25 351.64L1130.7 351.236L1138.5 342.067L1146.3 333.034H1235.7C1284.9 333.034 1324.5 333.573 1323.75 334.112ZM610.2 345.034L625.5 353.663V540.135V726.472L620.7 729.034C618 730.517 610.2 734.831 603.45 738.607L591 745.618V540C591 371.056 591.3 334.382 592.95 335.326C594 335.865 601.8 340.315 610.2 345.034ZM1328.7 642.202L1328.25 745.213L1311.45 735.775L1294.5 726.337V540V353.798L1311.45 344.225L1328.25 334.652L1328.7 436.854C1328.85 493.079 1328.85 585.438 1328.7 642.202ZM799.35 361.888C802.8 365.798 805.5 369.438 805.5 369.843C805.5 370.382 773.1 370.787 733.35 370.787H661.2L647.1 362.966C639.45 358.787 633.15 355.011 633 354.607C633 354.202 669 354.067 713.1 354.337L793.2 354.607L799.35 361.888ZM1286.85 355.011C1286.55 355.281 1280.1 358.921 1272.6 363.101L1258.95 370.787H1186.65C1147.05 370.787 1114.5 370.517 1114.5 370.112C1114.5 369.708 1117.35 366.067 1120.65 362.022L1126.8 354.607L1206.6 354.337C1250.4 354.067 1286.55 354.067 1286.85 354.202C1287.15 354.472 1287.15 354.742 1286.85 355.011ZM958.5 362.697V370.787H884.4H810.45L803.4 362.697L796.35 354.607H877.35H958.5V362.697ZM1116.75 362.697L1109.85 370.787H1035.6H961.5V362.697V354.607H1042.65H1123.65L1116.75 362.697ZM643.8 363.91L657.75 371.73L658.2 539.73L658.5 707.73L650.7 712.315C646.35 714.742 639.6 718.517 635.7 720.539L628.5 724.315V540.135C628.5 438.876 628.8 355.955 629.1 355.955C629.55 355.955 636.15 359.461 643.8 363.91ZM1291.5 540.135V724.315L1284.45 720.539C1280.4 718.517 1273.65 714.742 1269.3 712.315L1261.5 707.73L1261.8 539.73L1262.25 371.73L1275.75 363.91C1283.25 359.73 1289.7 356.09 1290.45 356.09C1291.05 355.955 1291.5 438.876 1291.5 540.135ZM815.25 379.551L821.7 386.292L755.7 386.697L689.7 386.966L678.6 380.764C672.45 377.393 667.05 374.022 666.6 373.348C666.15 372.674 696.3 372.27 737.25 372.539L808.65 372.809L815.25 379.551ZM958.5 379.551V386.966H891.9H825.3L819.15 380.36C815.7 376.719 813 373.348 813 372.944C813 372.539 845.7 372.135 885.75 372.135H958.5V379.551ZM1107 372.944C1107 373.348 1104.45 376.719 1101.45 380.36L1095.75 386.831L1028.7 386.966H961.5V379.551V372.135H1034.25C1074.3 372.135 1107 372.539 1107 372.944ZM1253.4 373.213C1253.1 373.753 1247.7 377.124 1241.55 380.629L1230.3 386.966H1164.9C1128.9 386.966 1099.5 386.562 1099.5 386.157C1099.5 384.405 1109.55 374.427 1112.25 373.348C1116 372 1254.3 371.865 1253.4 373.213ZM688.5 540V691.281L675 698.831L661.5 706.382V540V373.618L675 381.169L688.5 388.719V540ZM1258.5 539.865V706.382L1245 698.831L1231.5 691.281V540V388.719L1244.7 381.303C1251.9 377.124 1257.9 373.618 1258.2 373.618C1258.35 373.483 1258.5 448.449 1258.5 539.865ZM829.8 395.596C832.95 398.831 834.9 401.933 834.45 402.337C833.85 402.876 807.45 403.146 775.8 403.146L718.2 403.011L708.3 397.483C702.75 394.382 697.65 391.416 696.9 390.742C696 390.202 724.35 389.663 759.9 389.663H824.4L829.8 395.596ZM958.5 396.405V403.146H898.95H839.25L834.6 398.022C832.2 395.326 829.5 392.225 828.9 391.281C828 390.067 841.35 389.663 893.1 389.663H958.5V396.405ZM1091.1 391.281C1090.5 392.225 1087.95 395.326 1085.4 398.022L1081.05 403.146H1021.2H961.5V396.405V389.663H1026.9C1078.65 389.663 1092 390.067 1091.1 391.281ZM1223.25 390.742C1222.35 391.416 1217.25 394.382 1211.7 397.483L1201.8 403.011L1143.9 403.146C1112.1 403.146 1086 402.742 1086 402.067C1086 401.393 1088.1 398.427 1090.8 395.326L1095.6 389.663H1160.1C1195.65 389.663 1224 390.202 1223.25 390.742ZM710.55 400.989L715.5 403.82V540V676.18L708.45 680.09C704.4 682.247 699 685.213 696.45 686.697L691.5 689.258V540V390.742L698.7 394.517C702.6 396.539 708 399.506 710.55 400.989ZM1228.2 614.022L1227.75 688.989L1216.2 682.517L1204.5 676.18V540V403.685L1216.2 397.348L1227.75 391.011L1228.2 465.034C1228.35 505.753 1228.35 572.899 1228.2 614.022ZM842.55 409.753C846.6 414.202 847.05 415.146 844.95 415.82C843.6 416.36 820.05 416.629 792.45 416.629L742.35 416.494L732.3 410.966C726.75 408 721.95 405.303 721.65 405.034C721.35 404.764 747.3 404.494 779.4 404.494H837.75L842.55 409.753ZM958.5 410.562V416.494L905.1 416.629H851.7L846.6 411.64C843.9 408.809 841.65 406.112 841.5 405.438C841.5 404.899 867.9 404.494 900 404.494H958.5V410.562ZM1078.5 405.303C1078.5 405.708 1076.4 408.405 1073.7 411.371L1068.9 416.629H1015.2L961.5 416.494V410.562V404.494H1020C1052.25 404.494 1078.5 404.899 1078.5 405.303ZM1198.35 405.034C1198.05 405.303 1193.25 408 1187.7 411.101L1177.5 416.494H1125.75C1091.4 416.494 1074 416.09 1074 415.146C1074 414.472 1075.8 411.64 1078.2 409.079L1082.25 404.494H1140.6C1172.7 404.494 1198.65 404.764 1198.35 405.034ZM732.3 413.393L739.5 417.303V540V662.697L732.3 666.607C728.4 668.899 723.75 671.461 721.95 672.539L718.5 674.427V540V405.573L721.95 407.461C723.75 408.539 728.4 411.101 732.3 413.393ZM1201.2 606.607L1200.75 674.022L1190.7 668.36L1180.5 662.697V540V417.303L1190.7 411.64L1200.75 405.978L1201.2 472.584C1201.35 509.124 1201.35 569.528 1201.2 606.607ZM854.1 422.562C856.2 425.124 858 427.551 858 427.955C858 428.36 836.7 428.764 810.75 428.764H763.65L754.2 423.371L744.75 417.978H797.4H850.2L854.1 422.562ZM958.5 423.371V428.764H910.2H861.75L857.7 424.18C855.3 421.618 853.5 419.191 853.5 418.787C853.5 418.247 877.2 417.978 906 417.978H958.5V423.371ZM1066.5 418.787C1066.5 419.191 1064.7 421.618 1062.45 424.18L1058.25 428.764H1009.95H961.5V423.371V417.978H1014C1042.95 417.978 1066.5 418.247 1066.5 418.787ZM1165.8 423.371L1156.35 428.764H1109.25C1083.3 428.764 1062 428.494 1062 427.955C1062 427.551 1063.8 425.124 1066.2 422.562L1070.25 417.978H1122.75H1175.25L1165.8 423.371ZM757.95 427.685L762 430.247V540V649.753L757.95 652.315C755.55 653.663 751.2 656.225 748.2 657.843L742.5 660.944V540V419.056L748.2 422.157C751.2 423.775 755.55 426.337 757.95 427.685ZM1177.2 599.865L1176.75 660.674L1167.45 655.281L1158 650.022V540V429.978L1167.45 424.719L1176.75 419.326L1177.2 479.191C1177.35 512.225 1177.35 566.427 1177.2 599.865ZM864.6 434.427L868.35 438.876L825.75 439.281L783.15 439.551L775.5 435.371C771.45 433.079 768 430.921 768 430.652C768 430.382 788.85 430.112 814.35 430.112H860.85L864.6 434.427ZM958.5 434.831V439.551H915.3C872.25 439.551 871.95 439.551 868.95 436.449C862.35 429.843 860.7 430.112 911.1 430.112H958.5V434.831ZM1055.1 431.73C1054.5 432.674 1052.7 434.831 1051.05 436.449C1048.05 439.551 1047.75 439.551 1004.7 439.551H961.5V434.831V430.112H1008.9C1046.25 430.112 1056 430.517 1055.1 431.73ZM1152 430.652C1152 430.921 1148.55 433.079 1144.5 435.371L1136.85 439.551L1094.25 439.281L1051.65 438.876L1055.4 434.427L1059.15 430.112H1105.65C1131.15 430.112 1152 430.382 1152 430.652ZM773.25 436.18L781.5 440.899V540V638.966L773.25 643.82C768.6 646.382 764.55 648.539 764.25 648.539C763.8 648.539 763.5 599.73 763.5 540C763.5 480.27 763.8 431.461 764.25 431.461C764.7 431.461 768.75 433.618 773.25 436.18ZM1156.5 540C1156.5 599.73 1156.2 648.539 1155.75 648.539C1155.45 648.539 1151.4 646.382 1146.75 643.82L1138.5 638.966V540V440.899L1146.45 436.18C1150.65 433.618 1154.7 431.596 1155.45 431.596C1156.05 431.461 1156.5 480.27 1156.5 540ZM874.2 445.079L877.8 448.989H838.65H799.5L793.5 445.483C790.2 443.461 787.5 441.708 787.5 441.438C787.5 441.169 806.25 440.899 829.2 441.034H870.75L874.2 445.079ZM958.5 444.944V448.989H919.05H879.6L876.3 444.944L872.85 440.899H915.75H958.5V444.944ZM1043.7 444.944L1040.4 448.989H1000.95H961.5V444.944V440.899H1004.25H1047.15L1043.7 444.944ZM1132.5 441.438C1132.5 441.708 1129.8 443.461 1126.5 445.483L1120.5 448.989H1081.5H1042.35L1045.8 444.944L1049.1 440.899H1090.8C1113.75 440.899 1132.5 441.169 1132.5 441.438ZM799.5 540V629.258L792 633.438L784.5 637.618V540V442.382L792 446.562L799.5 450.742V540ZM1135.5 540V637.618L1128 633.438L1120.5 629.258V540V450.742L1127.7 446.562C1131.6 444.27 1134.9 442.382 1135.2 442.382C1135.35 442.247 1135.5 486.202 1135.5 540ZM816 540V619.955L808.5 624.135L801 628.315V540V451.685L808.5 455.865L816 460.045V540ZM882.3 453.978C883.8 455.191 885 456.674 885 457.348C885 457.888 869.4 458.427 850.35 458.427C816 458.427 815.85 458.427 810.3 455.056L804.75 451.685H842.1C874.8 451.685 879.9 451.955 882.3 453.978ZM958.5 455.056V458.427H923.55H888.45L885 455.056L881.55 451.685H919.95H958.5V455.056ZM1035 455.056L1031.55 458.427H996.45H961.5V455.056V451.685H1000.05H1038.45L1035 455.056ZM1109.7 455.056C1104.15 458.427 1104 458.427 1069.65 458.427C1050.6 458.427 1035 458.022 1035 457.483C1035 457.079 1036.05 455.461 1037.55 454.112C1039.8 451.82 1043.1 451.685 1077.6 451.685H1115.25L1109.7 455.056ZM1119 540V628.315L1111.5 624.135L1104 619.955V540V460.045L1111.2 456C1115.1 453.708 1118.4 451.82 1118.7 451.82C1118.85 451.685 1119 491.461 1119 540ZM890.25 462.742L892.5 465.843L861.6 466.247C832.5 466.517 830.4 466.382 825.6 463.685C822.75 462.202 820.5 460.584 820.5 460.315C820.5 460.045 835.65 459.775 854.1 459.775C887.4 459.775 887.85 459.775 890.25 462.742ZM958.5 463.146V466.517H927.45C900.75 466.517 896.1 466.247 893.7 464.225C892.2 463.011 891 461.528 891 460.854C891 460.315 906.15 459.775 924.75 459.775H958.5V463.146ZM1029 460.719C1029 461.124 1027.95 462.742 1026.45 464.09C1024.2 466.247 1021.2 466.517 992.7 466.517H961.5V463.146V459.775H995.25C1013.85 459.775 1029 460.18 1029 460.719ZM1099.5 460.315C1099.5 460.584 1097.25 462.202 1094.4 463.685C1089.6 466.382 1087.5 466.517 1058.4 466.247L1027.5 465.843L1029.75 462.742C1032.15 459.775 1032.6 459.775 1065.9 459.775C1084.35 459.775 1099.5 460.045 1099.5 460.315ZM829.5 540V612.809L823.5 615.91L817.5 619.011V540V460.989L823.5 464.09L829.5 467.191V540ZM1102.5 540V619.011L1096.5 615.91L1090.5 612.809V540V467.191L1096.2 464.225C1099.2 462.607 1101.9 461.258 1102.2 461.124C1102.35 461.124 1102.5 496.584 1102.5 540ZM897 470.562C898.5 473.124 897.75 473.124 871.95 473.528C848.7 473.933 844.65 473.663 840.15 471.506C837.45 470.157 834.75 469.348 834.45 469.753C834 470.022 835.8 471.371 838.35 472.584L843 474.742V540V605.258L838.35 607.416C835.8 608.629 834.15 609.978 834.45 610.382C834.9 610.787 837.3 609.843 839.55 608.36C844.95 604.989 843.6 604.989 874.2 605.258L900 605.393L897.6 608.764L895.2 612.135H864.9C848.4 612.135 834.15 611.596 833.25 611.056C832.35 610.517 831.75 585.169 831.75 540C831.75 494.831 832.35 469.483 833.25 468.944C834.15 468.405 848.4 467.865 865.05 467.865C893.7 467.865 895.5 468 897 470.562ZM958.5 470.831V473.933L930.45 473.663C914.85 473.393 901.95 473.258 901.5 473.258C901.05 473.258 899.85 472.045 898.8 470.562C897 467.865 897.3 467.865 927.75 467.865H958.5V470.831ZM1021.2 470.562C1020.15 472.045 1018.95 473.258 1018.5 473.258C1018.05 473.258 1005.15 473.393 989.55 473.663L961.5 473.933V470.831V467.865H992.25C1022.7 467.865 1023 467.865 1021.2 470.562ZM1086.75 468.944C1087.65 469.483 1088.25 494.831 1088.25 540C1088.25 585.169 1087.65 610.517 1086.75 611.056C1086 611.596 1071.6 612.135 1055.1 612.135H1024.8L1022.4 608.764L1020 605.393L1045.8 605.258C1076.4 604.989 1075.05 604.989 1080.45 608.36C1082.7 609.843 1085.1 610.787 1085.55 610.382C1085.85 609.978 1084.2 608.629 1081.65 607.416L1077 605.258V540V474.742L1081.65 472.584C1084.2 471.371 1086 470.022 1085.55 469.753C1085.25 469.348 1082.55 470.157 1079.85 471.506C1075.35 473.663 1071.3 473.933 1048.05 473.528C1022.25 473.124 1021.5 473.124 1023 470.562C1024.5 468 1026.3 467.865 1054.95 467.865C1071.6 467.865 1086 468.405 1086.75 468.944ZM903.3 477.708C904.95 480.135 858.75 481.348 853.2 479.056C850.95 478.112 848.85 476.899 848.55 476.36C848.1 475.685 859.95 475.416 874.95 475.685C894.15 475.955 902.55 476.494 903.3 477.708ZM1071.75 475.955C1069.05 479.865 1062.45 480.674 1039.2 480C1021.05 479.461 1015.8 478.921 1016.7 477.708C1017.6 476.494 1025.55 475.955 1044.75 475.551C1059.6 475.416 1071.9 475.011 1072.2 474.876C1072.5 474.742 1072.2 475.281 1071.75 475.955ZM855 539.73V597.978L849.75 601.079L844.5 604.045V540V476.09L849.75 478.787L855 481.618V539.73ZM958.5 477.978C958.5 479.73 954.75 480 933.15 480C912.45 480 907.5 479.596 906 477.978C904.35 476.225 907.35 475.955 931.35 475.955C954.45 475.955 958.5 476.225 958.5 477.978ZM1014.6 477.978C1013.85 479.73 1009.35 480 987.6 480C965.4 480 961.5 479.73 961.5 477.978C961.5 476.225 965.55 475.955 988.5 475.955C1011.75 475.955 1015.35 476.225 1014.6 477.978ZM1075.5 540V603.91L1070.25 601.213L1065 598.382V540V481.618L1069.95 478.921C1072.5 477.438 1074.9 476.09 1075.2 476.09C1075.35 475.955 1075.5 504.809 1075.5 540ZM908.7 482.966C909.75 483.91 910.5 485.124 910.5 485.663C910.5 486.202 900.45 486.742 888.15 486.742C868.2 486.742 865.5 486.472 862.35 484.045L858.75 481.483L882.9 481.348C899.55 481.348 907.5 481.888 908.7 482.966ZM958.5 484.045C958.5 486.607 957.45 486.742 936.3 486.742C915.9 486.742 913.8 486.472 911.25 484.045C908.55 481.348 908.7 481.348 933.45 481.348C957.45 481.348 958.5 481.483 958.5 484.045ZM1008.75 484.045C1006.2 486.472 1004.1 486.742 983.7 486.742C962.55 486.742 961.5 486.607 961.5 484.045C961.5 481.483 962.55 481.348 986.55 481.348C1011.3 481.348 1011.45 481.348 1008.75 484.045ZM1057.65 484.045C1054.5 486.472 1051.8 486.742 1031.85 486.742C1019.55 486.742 1009.5 486.202 1009.5 485.663C1009.5 482.022 1014 481.348 1037.25 481.348L1061.25 481.483L1057.65 484.045ZM865.5 540V591.91L861.75 594.067C859.65 595.281 858.15 596.629 858.6 596.899C859.05 597.303 860.85 596.629 862.8 595.416C865.5 593.663 870.45 593.258 888.3 593.258C900.6 593.258 910.5 593.798 910.5 594.337C910.5 597.843 905.85 598.652 882.9 598.921L858.75 599.191L881.55 600C899.55 600.539 904.2 601.079 903.15 602.427C902.25 603.64 895.65 604.045 875.1 603.775C849.9 603.371 848.55 603.236 852.45 601.348L856.65 599.191L856.5 540.809V482.427L861 485.393L865.5 488.225V540ZM1063.5 540.944L1063.35 599.191L1067.55 601.348C1071.45 603.236 1070.1 603.371 1044.9 603.775C1024.35 604.045 1017.75 603.64 1016.85 602.427C1015.8 601.079 1020.45 600.539 1038.45 600L1061.25 599.191L1037.1 598.921C1014.15 598.652 1009.5 597.843 1009.5 594.337C1009.5 593.798 1019.4 593.258 1031.7 593.258C1049.55 593.258 1054.5 593.663 1057.2 595.416C1059.15 596.629 1060.95 597.303 1061.4 596.899C1061.85 596.629 1060.35 595.281 1058.25 594.067L1054.5 591.91V540.135V488.36L1058.7 485.528C1060.95 484.045 1062.9 482.697 1063.2 482.697C1063.35 482.697 1063.5 508.854 1063.5 540.944ZM874.5 540.135C874.5 584.09 874.35 587.865 871.95 589.079C870.45 589.888 870 590.562 871.05 590.562C871.95 590.562 873.3 589.888 873.75 589.213C875.25 587.056 915.45 587.461 914.7 589.483C913.95 591.371 877.05 592.719 870.45 591.236L867 590.562V539.326V488.09L870.75 490.247L874.5 492.405V540.135ZM958.5 490.112C958.5 491.865 955.2 492.135 938.55 492.135C925.05 492.135 918 491.596 916.8 490.517C915.45 489.303 915 489.303 915 490.517C915 493.079 876.15 492.674 872.4 490.112C869.85 488.36 874.8 488.09 913.95 488.09C952.35 488.09 958.5 488.36 958.5 490.112ZM1047.6 490.112C1043.85 492.674 1005 493.079 1005 490.517C1005 489.303 1004.55 489.303 1003.2 490.517C1002 491.596 994.95 492.135 981.45 492.135C964.8 492.135 961.5 491.865 961.5 490.112C961.5 488.36 967.65 488.09 1006.05 488.09C1045.2 488.09 1050.15 488.36 1047.6 490.112ZM1051.2 590.831C1047.9 592.719 1006.05 591.506 1005.3 589.483C1004.55 587.461 1044.75 587.056 1046.25 589.213C1046.7 589.888 1048.05 590.562 1048.95 590.562C1050 590.562 1049.55 589.888 1048.2 589.079C1045.65 587.865 1045.5 584.09 1045.5 540.135V492.405L1048.95 490.382L1052.25 488.494L1052.7 539.056C1053 578.697 1052.55 589.888 1051.2 590.831ZM890.7 540.944C890.4 562.247 890.7 579.775 891.45 579.775C892.05 579.775 892.5 562.247 892.5 540.674V501.708H960H1027.5V540.674C1027.5 562.247 1027.95 579.775 1028.7 579.775C1029.3 579.775 1029.6 562.247 1029.3 540.944L1028.85 501.978L1036.5 497.798L1044 493.618V540.135V586.652L1038.45 583.146C1035.3 581.258 1032.6 580.315 1032.3 581.124C1031.55 582.876 888.45 582.876 887.7 581.124C887.4 580.315 884.7 581.258 881.55 583.146L876 586.652V540.135V493.618L883.5 497.798L891.15 501.978L890.7 540.944ZM1036.95 495.64C1034.4 496.584 1031.85 498.067 1031.25 498.876C1029.9 500.764 890.1 500.764 888.75 498.876C888.15 498.067 885.6 496.584 883.05 495.64C878.85 494.022 889.35 493.753 960 493.753C1030.65 493.753 1041.15 494.022 1036.95 495.64ZM921.75 584.09C921.9 583.955 939.15 583.685 960 583.685C980.85 583.685 998.1 583.955 998.25 584.09C998.55 584.36 1006.65 584.225 1016.25 583.82C1027.95 583.416 1035.3 583.685 1037.85 584.764C1040.85 585.843 1023 586.247 960 586.247C897 586.247 879.15 585.843 882.15 584.764C884.7 583.685 892.05 583.416 903.75 583.82C913.35 584.225 921.45 584.36 921.75 584.09ZM958.5 589.888C958.5 591.64 955.05 591.91 936.6 591.91C917.25 591.91 914.85 591.64 916.5 589.888C918 588.27 922.5 587.865 938.4 587.865C955.2 587.865 958.5 588.135 958.5 589.888ZM1003.5 589.888C1005.15 591.64 1002.75 591.91 983.4 591.91C964.95 591.91 961.5 591.64 961.5 589.888C961.5 588.135 964.8 587.865 981.6 587.865C997.5 587.865 1002 588.27 1003.5 589.888ZM958.5 595.955C958.5 598.517 957.45 598.652 933.45 598.652C908.7 598.652 908.55 598.652 911.25 595.955C913.8 593.528 915.9 593.258 936.3 593.258C957.45 593.258 958.5 593.393 958.5 595.955ZM1010.85 597.978C1013.4 600.674 1015.5 603.101 1015.5 603.371C1015.5 603.775 1003.35 604.045 988.5 604.045C965.55 604.045 961.5 603.775 961.5 602.022C961.5 600.27 965.4 600 986.7 599.73L1011.75 599.461L986.7 599.056C962.7 598.652 961.5 598.517 961.5 595.955C961.5 593.393 962.55 593.258 983.85 593.258H1006.2L1010.85 597.978ZM958.5 602.022C958.5 603.775 954.45 604.045 931.5 604.045C908.25 604.045 904.65 603.775 905.4 602.022C906.15 600.27 910.65 600 932.4 600C954.6 600 958.5 600.27 958.5 602.022ZM958.5 608.764V612.135H927.75H897L899.4 608.764L901.8 605.393H930.15H958.5V608.764ZM1020.6 608.764L1023 612.135H992.25H961.5V608.764V605.393H989.85H1018.2L1020.6 608.764ZM890.1 616.854L887.7 620.225H854.1C835.65 620.225 820.5 619.955 820.5 619.685C820.5 619.416 822.75 617.933 825.45 616.315C829.95 613.753 832.5 613.483 861.45 613.483H892.5L890.1 616.854ZM958.5 616.854V620.225H924.75C906.15 620.225 891 619.82 891 619.281C891 618.876 892.05 617.258 893.55 615.91C895.8 613.753 898.8 613.483 927.3 613.483H958.5V616.854ZM1026.9 615.775C1027.95 617.124 1029 618.607 1029 619.146C1029 619.82 1013.85 620.225 995.25 620.225H961.5V616.854V613.483H993.15C1021.65 613.483 1025.1 613.753 1026.9 615.775ZM1094.4 616.315C1097.25 617.798 1099.5 619.416 1099.5 619.685C1099.5 619.955 1084.35 620.225 1065.9 620.225H1032.3L1029.9 616.854L1027.5 613.483H1058.4C1087.2 613.483 1089.75 613.618 1094.4 616.315ZM885 622.517C885 622.921 883.95 624.539 882.45 625.888C880.2 628.18 876.9 628.315 842.4 628.315H804.9L810 624.944C815.25 621.708 815.55 621.708 850.2 621.573C869.25 621.573 885 621.978 885 622.517ZM958.5 624.944V628.315H919.95H881.55L885 624.944L888.45 621.573H923.55H958.5V624.944ZM1035 624.944L1038.45 628.315H1000.05H961.5V624.944V621.573H996.45H1031.55L1035 624.944ZM1109.7 624.944L1115.25 628.315L1077.15 628.045C1039.65 627.64 1039.05 627.64 1036.8 624.539L1034.7 621.573H1069.35C1104 621.573 1104.15 621.573 1109.7 624.944ZM958.5 635.056V639.101H915.45C872.55 639.101 872.55 639.101 875.25 636.405C876.75 634.921 877.65 633.303 877.2 632.899C876.75 632.494 874.95 633.843 873.3 635.73L870.3 639.101L828.45 638.831L786.75 638.427L792.75 634.787L798.75 631.146H878.7L958.5 631.011V635.056ZM1044 635.056L1047.15 639.101H1004.4H961.5V635.056V631.011H1001.1H1040.85L1044 635.056ZM1126.5 634.382C1129.8 636.27 1132.5 638.022 1132.5 638.427C1132.5 638.831 1113.75 639.101 1090.95 638.966H1049.25L1045.8 634.921L1042.2 631.011H1081.35H1120.5L1126.5 634.382ZM865.35 644.629C863.55 646.921 861.3 649.079 860.4 649.348C859.5 649.618 838.2 649.753 813 649.618L767.25 649.213L774.75 644.899L782.25 640.584H825.45L868.65 640.449L865.35 644.629ZM958.5 645.169V649.888H911.25C885.3 649.888 864 649.483 864 648.944C864 648.405 865.8 646.247 868.05 644.225L872.1 640.449H915.3H958.5V645.169ZM1052.25 644.09C1054.2 646.247 1056 648.27 1056 648.809C1056 649.483 1034.7 649.888 1008.75 649.888H961.5V645.169V640.449H1005H1048.65L1052.25 644.09ZM1144.5 644.629C1148.55 646.921 1152 649.079 1152 649.348C1152 649.618 1131.15 649.888 1105.65 649.888H1059.3L1055.4 645.169L1051.35 640.449H1094.1H1137L1144.5 644.629ZM858 652.045C858 652.449 856.2 654.876 853.95 657.438L849.75 662.022H797.25H744.75L753.75 656.764L762.75 651.506L810.45 651.371C836.55 651.236 858 651.506 858 652.045ZM958.5 656.629V662.022H906C877.2 662.022 853.5 661.753 853.5 661.213C853.5 660.809 855.3 658.382 857.7 655.82L861.75 651.236H910.2H958.5V656.629ZM1062.45 655.82C1064.7 658.382 1066.5 660.809 1066.5 661.213C1066.5 661.753 1042.95 662.022 1014 662.022H961.5V656.629V651.236H1009.95H1058.25L1062.45 655.82ZM1165.8 656.629L1175.25 662.022H1122.75H1070.25L1066.2 657.438C1063.8 654.876 1062 652.449 1062 652.045C1062 651.506 1083.3 651.236 1109.25 651.236H1156.35L1165.8 656.629ZM846.45 664.18C846.9 664.719 845.25 667.416 842.55 670.247L837.75 675.506H779.25H720.75L731.25 669.438L741.75 663.506L793.65 663.371C822.15 663.371 845.85 663.64 846.45 664.18ZM958.5 669.438V675.506H900C867.9 675.506 841.5 675.101 841.5 674.697C841.5 674.292 843.6 671.596 846.3 668.629L850.95 663.371H904.8H958.5V669.438ZM1073.7 668.629C1076.4 671.596 1078.5 674.292 1078.5 674.697C1078.5 675.101 1052.25 675.506 1020 675.506H961.5V669.438V663.371H1015.2H1069.05L1073.7 668.629ZM1188.75 669.438L1199.25 675.506H1140.75H1082.25L1078.2 670.921C1075.8 668.36 1074 665.528 1074 664.719C1074 663.775 1089.9 663.371 1126.2 663.371L1178.25 663.506L1188.75 669.438ZM834 678.472C833.85 679.416 831.6 682.517 828.9 685.348L823.95 690.337L759.6 690.067L695.4 689.663L706.5 683.326L717.75 676.989L775.95 676.854C822 676.854 834 677.124 834 678.472ZM958.5 683.596V690.337H893.1C841.35 690.337 828 689.933 828.9 688.584C829.5 687.775 832.2 684.674 834.6 681.978L839.25 676.854H898.95H958.5V683.596ZM1085.4 681.843C1087.95 684.674 1090.5 687.775 1091.1 688.584C1092 689.933 1078.65 690.337 1026.9 690.337H961.5V683.596V676.854H1021.2H1081.05L1085.4 681.843ZM1213.05 683.056C1219.05 686.562 1224 689.528 1224 689.798C1224 690.067 1195.05 690.337 1159.8 690.337H1095.6L1090.8 684.674C1088.1 681.573 1086 678.607 1086 677.933C1086 677.258 1112.1 676.854 1144.05 676.854L1202.1 676.989L1213.05 683.056ZM815.85 699.775L809.55 706.517H740.1C702 706.517 669.75 706.921 668.4 707.326C667.05 707.73 666 707.596 666 707.056C666.15 706.382 671.25 703.011 677.7 699.506L689.25 693.169L755.7 693.034H822.15L815.85 699.775ZM958.5 699.775V706.517L885.75 706.787C845.7 707.056 813 706.921 813 706.517C813 706.112 815.7 703.011 819.15 699.371L825.3 693.034H891.9H958.5V699.775ZM1101.45 699.64C1104.45 703.281 1107 706.517 1107 706.787C1107 706.921 1074.3 707.056 1034.25 706.787L961.5 706.517V699.775V693.034H1028.7L1095.75 693.169L1101.45 699.64ZM1242 699.371C1248.6 703.011 1253.85 706.112 1254 706.517C1254 706.921 1221.75 707.056 1182.45 706.921L1110.75 706.517L1106.55 702.202C1096.95 692.225 1091.85 693.034 1164.75 693.034H1230.15L1242 699.371ZM805.5 710.022C805.5 710.427 802.8 713.933 799.35 717.843L793.2 724.719L713.1 725.393C669 725.798 633 725.798 633 725.393C633 724.989 639.3 721.213 646.95 717.034L660.75 709.348L733.2 709.213C772.95 709.213 805.5 709.618 805.5 710.022ZM958.5 717.303V725.393H877.35H796.35L803.4 717.303L810.45 709.213H884.4H958.5V717.303ZM1116.75 717.303L1123.65 725.393H1042.65H961.5V717.303V709.213H1035.6H1109.85L1116.75 717.303ZM1272.9 716.899C1280.55 721.213 1287 724.989 1287 725.393C1287 725.798 1251 725.933 1206.9 725.663L1126.8 725.393L1120.65 717.978C1117.2 713.933 1114.5 710.292 1114.5 709.888C1114.5 709.483 1146.9 709.213 1186.65 709.213H1258.65L1272.9 716.899ZM789 728.899C789 729.303 785.4 733.483 781.2 738.337L773.25 746.966H684.15C635.1 746.966 595.35 746.562 595.95 746.157C596.4 745.753 603.75 741.438 612.3 736.719L627.75 728.09H708.3C752.7 728.09 789 728.494 789 728.899ZM958.5 737.528V746.966H868.5C819 746.966 778.5 746.562 778.5 746.157C778.5 745.753 781.95 741.438 786.15 736.719L793.8 728.09H876.15H958.5V737.528ZM1134 736.449C1138.05 741.169 1141.5 745.348 1141.5 745.888C1141.5 746.562 1101 746.966 1051.5 746.966H961.5V737.528V728.09H1044H1126.35L1134 736.449ZM1308.6 737.124L1324.95 746.292L1236 746.697L1146.9 746.966L1143.45 743.326C1141.65 741.169 1138.05 736.989 1135.5 733.753L1130.85 728.09H1211.55H1292.25L1308.6 737.124ZM769.5 750.472C769.5 750.876 765.75 755.326 761.1 760.584L752.7 769.888H653.55C599.1 769.888 554.85 769.483 555.3 769.079C555.9 768.674 563.55 764.225 572.55 759.101L588.75 749.798H679.2C728.85 749.663 769.5 749.933 769.5 750.472ZM958.5 759.775V769.888H858C776.85 769.888 757.65 769.618 758.55 768.135C759.15 767.191 763.05 762.607 767.1 758.022L774.45 749.663H866.55H958.5V759.775ZM1153.05 758.022C1157.1 762.742 1160.85 767.326 1161.6 768.135C1162.5 769.483 1142.1 769.888 1062.15 769.888H961.5V759.775V749.663H1053.6H1145.7L1153.05 758.022ZM1346.7 758.697C1355.55 763.551 1363.35 768.135 1364.25 768.809C1365 769.348 1321.05 769.888 1266.45 769.888H1167.3L1159.95 761.393C1155.9 756.809 1152.15 752.225 1151.4 751.281C1150.5 750.067 1168.8 749.663 1240.5 749.663H1330.5L1346.7 758.697ZM748.5 773.393C748.5 773.798 744.3 778.921 739.2 784.854L729.75 795.506H619.65C559.05 795.506 510 795.101 510.6 794.562C511.2 794.022 519.9 788.899 529.95 783.101L548.25 772.719H648.45C703.5 772.584 748.5 772.989 748.5 773.393ZM958.5 784.045V795.506H846.75C785.25 795.506 735 795.236 735 794.831C735 794.427 739.5 789.169 744.9 783.371L754.8 772.584H856.65H958.5V784.045ZM1175.25 782.966C1180.2 788.764 1184.55 793.888 1184.7 794.427C1185 794.966 1134.9 795.506 1073.4 795.506H961.5V784.045V772.584H1063.95H1166.25L1175.25 782.966ZM1389.45 782.831C1399.5 788.494 1408.35 793.618 1409.25 794.292C1410 794.966 1364.4 795.506 1300.35 795.506H1190.25L1180.8 784.719C1175.7 778.787 1171.5 773.663 1171.5 773.258C1171.5 772.854 1216.35 772.584 1271.25 772.584H1371L1389.45 782.831ZM724.95 799.955C724.35 801.034 719.4 806.697 714 812.764L704.25 823.82H581.25C506.85 823.82 459.15 823.281 460.5 822.472C461.7 821.798 471.9 816.135 483 809.798L503.25 798.337L614.7 798.202C707.1 798.202 726 798.472 724.95 799.955ZM958.2 811.281L958.65 823.82H834H709.35L712.35 820.045C713.85 818.022 719.1 812.36 723.6 807.236L732.15 798.202L844.95 798.472L957.75 798.876L958.2 811.281ZM1197.75 808.584C1202.7 814.247 1207.65 820.045 1208.7 821.393C1210.65 823.685 1205.85 823.82 1086.15 823.82H961.5V811.955C961.5 805.348 961.95 799.551 962.55 799.146C963 798.607 1014.15 798.202 1076.1 798.202H1188.9L1197.75 808.584ZM1438.35 810.472C1450.35 817.348 1460.55 823.011 1460.85 823.281C1461.15 823.551 1406.25 823.82 1338.6 823.82H1215.75L1206.3 812.899C1201.05 806.831 1196.4 801.169 1195.95 800.09C1195.35 798.472 1211.7 798.202 1305.75 798.202H1416.3L1438.35 810.472ZM699 828.539C699 828.944 693.9 835.011 687.6 842.022L676.2 854.831H539.55H403.05L426.9 841.348L450.75 828L574.95 827.865C643.2 827.865 699 828.135 699 828.539ZM958.5 841.348V854.831H820.35C710.4 854.831 682.5 854.427 683.4 853.079C684 852.27 689.25 846.202 695.1 839.596L705.6 827.865H832.05H958.5V841.348ZM1225.05 839.461C1230.75 845.798 1235.85 851.865 1236.45 852.944C1237.5 854.562 1217.25 854.831 1099.5 854.831H961.5V841.348V827.865H1088.25H1215L1225.05 839.461ZM1492.8 841.348L1516.95 854.831H1380.3H1243.8L1233.6 842.966C1228.05 836.494 1222.8 830.427 1222.05 829.483C1220.85 828.27 1245.75 827.865 1344.75 827.865H1468.8L1492.8 841.348ZM666.6 865.213C663.45 868.854 657.15 875.73 652.65 880.719L644.4 889.888H492.9L341.25 889.753L349.5 885.169C354 882.607 366.15 875.73 376.5 869.798L395.25 859.146L533.85 859.011L672.3 858.876L666.6 865.213ZM958.5 874.382V889.888H804.6C681.6 889.888 650.85 889.483 652.05 888.135C652.8 887.326 659.1 880.315 665.85 872.629L678.15 858.876H818.25H958.5V874.382ZM1254 871.955C1260.15 879.101 1266.15 886.112 1267.2 887.461C1269.15 889.753 1263.15 889.888 1115.4 889.888H961.5V874.382V858.876H1102.2H1242.75L1254 871.955ZM1550.55 873.843C1565.25 882.202 1577.55 889.079 1577.85 889.348C1578.15 889.618 1510.2 889.888 1426.95 889.888H1275.3L1262.4 875.056C1255.35 866.831 1249.5 859.955 1249.5 859.551C1249.5 859.146 1311.15 858.876 1386.6 858.876H1523.85L1550.55 873.843ZM634.2 901.079C631.5 904.18 624.9 911.73 619.5 917.798L609.75 928.854H441C335.25 928.854 273.15 928.449 274.5 927.64C275.7 926.966 288.9 919.416 303.75 910.921L330.75 895.551L484.95 895.416L639.15 895.281L634.2 901.079ZM957 912.135V928.989H786.6C619.2 928.989 616.2 928.989 618.15 926.427C619.35 924.944 625.95 917.393 633 909.573L645.75 895.281H801.45H957V912.135ZM1287.9 910.382C1295.1 918.742 1301.7 926.427 1302.45 927.236C1303.65 928.584 1269.6 928.989 1133.4 928.989H963V912.135V895.281H1118.85H1274.85L1287.9 910.382ZM1617.3 911.596C1633.2 920.629 1646.55 928.18 1646.85 928.449C1647.15 928.719 1571.55 928.989 1478.85 928.989H1310.25L1295.7 912.135L1281.15 895.281H1434.75H1588.35L1617.3 911.596ZM602.7 935.461C602.55 936.135 595.2 944.629 586.5 954.337L570.75 972.135H383.25C264.45 972 196.5 971.596 198 970.787C199.2 970.112 214.05 961.618 231 952.045L261.75 934.652L432.45 934.517C526.35 934.382 603 934.921 602.7 935.461ZM957 953.258V972.135H767.25H577.5L594.3 953.258L611.1 934.382H784.05H957V953.258ZM1326.3 953.528L1342.5 972.135H1152.75H963V953.258V934.382L1136.55 934.652L1309.95 935.056L1326.3 953.528ZM1687.8 951.371C1704.45 960.809 1719.6 969.303 1721.25 970.247C1723.65 971.865 1695.75 972.135 1536.75 972.135H1349.25L1335 955.685C1327.2 946.652 1319.85 938.157 1318.8 936.809C1316.85 934.517 1323.15 934.382 1486.95 934.382H1657.2L1687.8 951.371ZM563.7 978.742C563.55 979.416 555.15 988.989 545.25 1000.18L527.25 1020.54H318.9C204.3 1020.67 110.85 1020.27 111.3 1019.87C111.75 1019.46 128.55 1009.89 148.65 998.427L185.25 977.798L374.7 977.663C483.15 977.528 564 978.067 563.7 978.742ZM957 999.101V1020.67H746.1C577.95 1020.67 535.5 1020.27 536.4 1018.92C537 1018.11 545.55 1008.4 555.3 997.348L573.15 977.528H765H957V999.101ZM1365.15 997.348C1374.75 1008.4 1383 1018.11 1383.6 1019.06C1384.5 1020.27 1342.05 1020.67 1173.9 1020.67H963V999.101V977.528H1155.45H1347.9L1365.15 997.348ZM1770.3 998.022C1790.4 1009.21 1807.35 1018.92 1808.1 1019.6C1809 1020.13 1715.85 1020.67 1601.1 1020.67H1392.75L1376.25 1001.53C1367.25 991.011 1358.85 981.303 1357.8 979.955C1355.85 977.663 1362.9 977.528 1544.85 977.528H1733.7L1770.3 998.022ZM520.5 1026.74C520.5 1027.15 511.05 1038.07 499.35 1051.01L478.2 1074.61H246.3C103.35 1074.61 15.15 1074.07 16.5 1073.26C17.7 1072.58 37.05 1061.8 59.25 1049.12L99.75 1026.2H310.2C425.85 1026.07 520.5 1026.34 520.5 1026.74ZM957 1050.34V1074.61H722.25C527.55 1074.61 487.5 1074.34 488.55 1072.85C489.15 1071.78 498.9 1060.85 510 1048.58L530.1 1026.07H743.55H957V1050.34ZM1407.75 1045.21C1416.9 1055.73 1426.2 1066.65 1428.45 1069.48L1432.8 1074.61H1197.9H963V1050.34V1026.07H1177.2H1391.25L1407.75 1045.21ZM1861.8 1049.8C1885.2 1062.88 1904.55 1073.8 1904.85 1074.07C1905.3 1074.34 1800.9 1074.47 1673.25 1074.34L1440.9 1073.93L1429.2 1060.45C1422.75 1053.03 1413.45 1042.25 1408.35 1036.45L1399.35 1026.07H1609.35H1819.5L1861.8 1049.8Z" fill="white" fill-opacity="0.1"/>
<path d="M903.75 496.315L887.25 496.989L904.95 497.259C914.55 497.528 939.45 497.663 960 497.663C980.7 497.663 1005.45 497.528 1015.2 497.259L1032.75 496.989L1016.25 496.315C1007.25 495.775 999.3 495.641 998.7 495.91C998.1 496.045 980.7 496.315 960 496.315C939.3 496.315 921.9 496.045 921.3 495.91C920.7 495.641 912.9 495.775 903.75 496.315Z" fill="white" fill-opacity="0.1"/>
</g>
<defs>
<clipPath id="clip0_71_261">
<rect width="1920" height="1080" fill="white"/>
</clipPath>
</defs>
</svg>
