<svg width="276" height="129" viewBox="0 0 276 129" fill="none" xmlns="http://www.w3.org/2000/svg">
<g opacity="0.5">
<path d="M38.1809 67.8723C38.4801 62.5262 41.094 57.8163 45.0374 54.4774C48.9045 51.198 54.1097 49.1936 59.7891 49.1936C65.4629 49.1936 70.6681 51.198 74.5381 54.4774C78.4787 57.8163 81.0925 62.5263 81.3945 67.8667C81.6938 73.3598 79.4892 78.4627 75.622 82.2454C71.6786 86.0931 66.0698 88.5074 59.7891 88.5074C53.5085 88.5074 47.8883 86.0931 43.9478 82.2454C40.0778 78.4627 37.8788 73.3597 38.1809 67.8723Z" fill="white"/>
<path d="M48.6841 68.3554C48.8376 65.6123 50.1788 63.1956 52.2022 61.4824C54.1864 59.7997 56.8572 58.7712 59.7714 58.7712C62.6826 58.7712 65.3534 59.7997 67.3392 61.4824C69.3611 63.1956 70.7023 65.6123 70.8573 68.3525C71.0108 71.171 69.8796 73.7894 67.8953 75.7303C65.872 77.7046 62.994 78.9434 59.7714 78.9434C56.5487 78.9434 53.665 77.7046 51.6431 75.7303C49.6574 73.7894 48.5291 71.171 48.6841 68.3554Z" fill="white"/>
<path d="M31.0286 73.9113C31.0474 74.9847 31.3892 77.0707 31.902 78.6998C32.9796 82.1479 34.8074 85.3377 37.3507 88.149C39.9607 91.0386 43.1747 93.3596 46.8869 95.0075C50.7888 96.7381 55.0166 97.62 59.4081 97.6128C63.7923 97.607 68.0202 96.7076 71.9221 94.964C75.6343 93.3001 78.8453 90.969 81.451 88.078C83.9929 85.2551 85.8178 82.0594 86.8983 78.6113C87.4415 76.8691 87.7847 75.1008 87.9223 73.3267C88.057 71.5787 88.0005 69.8278 87.7529 68.0784C87.2691 64.6695 86.0915 61.4709 84.2782 58.5552C82.6198 55.8759 80.482 53.5303 77.9401 51.556L77.9459 51.5517L52.2937 31.8248C52.2705 31.8074 52.2517 31.7886 52.2271 31.7726C50.544 30.4787 47.7139 30.483 45.8629 31.7799C43.9916 33.0912 43.7772 35.2598 45.4428 36.6278L45.4356 36.635L56.1348 45.3489L23.5246 45.3837H23.4811C20.7857 45.3866 18.1945 47.1577 17.6818 49.396C17.1546 51.6764 18.9853 53.568 21.7879 53.5781L21.7836 53.5883L38.3125 53.5564L8.81772 76.2309C8.78006 76.2584 8.7395 76.2874 8.70474 76.315C5.92241 78.4488 5.02299 81.997 6.77552 84.2425C8.55413 86.5258 12.3358 86.5301 15.1471 84.2556L31.2444 71.0608C31.2444 71.0608 31.0098 72.8422 31.0286 73.9113ZM72.3928 79.8762C69.076 83.2605 64.4325 85.1796 59.4081 85.1898C54.3764 85.1985 49.7329 83.2967 46.4161 79.9183C44.7954 78.2718 43.6049 76.3773 42.8705 74.3596C42.1507 72.3766 41.8711 70.2717 42.0565 68.148C42.2318 66.0722 42.8488 64.0921 43.8337 62.3006C44.8012 60.5396 46.1337 58.9483 47.7791 57.6021C51.0032 54.9707 55.1079 53.5462 59.4009 53.5404C63.6982 53.5346 67.8 54.9461 71.027 57.5688C72.6694 58.9091 74.0005 60.4946 74.968 62.2528C75.9573 64.0428 76.5699 66.0156 76.7524 68.0973C76.9349 70.218 76.6554 72.32 75.9356 74.3044C75.1998 76.328 74.0135 78.2225 72.3928 79.8762Z" fill="#AAAAAA"/>
<path d="M224.431 68.3118C224.678 65.5441 226.815 63.7888 230.078 63.7888C233.345 63.7888 235.48 65.5441 235.728 68.3118H224.431ZM235.393 75.1456C234.558 77.1968 232.588 78.411 229.913 78.411C226.563 78.411 224.307 76.3163 224.216 73.0074H243.475V72.0341C243.475 63.7453 238.617 59.0874 229.913 59.0874C221.46 59.0874 216.349 63.7888 216.349 71.1623C216.349 78.5807 221.54 83.2748 229.913 83.2748C234.937 83.2748 238.833 81.5501 241.235 78.5183L235.393 75.1456Z" fill="white"/>
<path d="M138.975 68.3267C139.23 65.559 141.366 63.8037 144.632 63.8037C147.894 63.8037 150.029 65.559 150.28 68.3267H138.975ZM149.945 75.1605C149.108 77.2175 147.14 78.4317 144.459 78.4317C141.114 78.4317 138.853 76.3312 138.765 73.0209H158.02V72.0533C158.02 63.7602 153.163 59.1008 144.459 59.1008C136.002 59.1008 130.9 63.8037 130.9 71.1772C130.9 78.5956 136.089 83.2897 144.459 83.2897C149.482 83.2897 153.381 81.5707 155.786 78.5346L149.945 75.1605Z" fill="white"/>
<path d="M129.178 54.0815H122.233V82.5381H129.178V54.0815Z" fill="white"/>
<path d="M159.746 61.6392H166.73V63.3335C169.203 60.6905 172.172 59.3545 175.52 59.3545C179.377 59.3545 182.297 60.6905 183.805 62.965C185.064 64.8436 185.146 67.1109 185.146 70.0904V82.5352H178.152V71.6005C178.152 67.063 177.241 64.9683 173.264 64.9683C169.245 64.9683 166.73 67.3662 166.73 71.3916V82.5352H159.746V61.6392Z" fill="white"/>
<path d="M207.643 71.5182C207.643 75.413 205.045 77.9676 201.024 77.9676C197.001 77.9676 194.402 75.5001 194.402 71.5631C194.402 67.5682 196.966 65.1021 201.024 65.1021C205.045 65.1021 207.643 67.6117 207.643 71.5182ZM207.643 62.5868C205.878 60.6909 203.323 59.6507 199.771 59.6507C192.109 59.6507 186.878 64.3826 186.878 71.4746C186.878 78.4274 192.073 83.2913 199.645 83.2913C203.117 83.2913 205.666 82.4122 207.643 80.4408V82.5355H214.632V52.2744L207.643 54.079V62.5868Z" fill="white"/>
<path d="M106.359 65.1061C110.42 65.1061 112.973 67.5721 112.973 71.567C112.973 75.504 110.379 77.9715 106.359 77.9715C102.341 77.9715 99.7452 75.417 99.7452 71.5221C99.7452 67.6156 102.341 65.1061 106.359 65.1061ZM99.7452 54.0829L92.7539 52.2783V82.5395H99.7452V80.4448C101.712 82.4162 104.266 83.2952 107.74 83.2952C115.317 83.2952 120.505 78.4314 120.505 71.4786C120.505 64.3866 115.272 59.6547 107.614 59.6547C104.056 59.6547 101.502 60.6948 99.7452 62.5907V54.0829Z" fill="white"/>
<path d="M245.2 82.5422V61.6462H252.189V62.9373C254.282 60.4132 256.496 59.157 259.015 59.157C259.515 59.157 260.143 59.2382 260.979 59.3209V65.2785C260.305 65.1901 259.555 65.1901 258.758 65.1901C254.696 65.1901 252.189 67.8737 252.189 72.4373V82.5422H245.2Z" fill="white"/>
</g>
</svg>
