<svg width="1920" height="607" viewBox="0 0 1920 607" fill="none" xmlns="http://www.w3.org/2000/svg">
<g clip-path="url(#clip0_106_799)">
<path d="M947.497 197.725L943.145 207.43H928.139H913.283L924.387 198.089C935.642 188.749 934.141 189.477 918.385 201.243L910.131 207.43L895.125 207.308C881.019 207.308 880.419 207.187 884.321 205.489C886.572 204.518 888.372 203.427 888.372 203.063C888.372 202.699 885.971 203.548 882.97 204.882C876.968 207.793 882.07 207.551 811.84 207.308C796.534 207.187 782.728 207.187 781.077 207.187C779.427 207.187 759.168 207.187 736.058 207.187C712.949 207.187 692.39 207.066 690.289 207.187C688.188 207.187 657.876 207.308 622.761 207.551L558.984 207.915L613.007 208.643C642.719 209.007 665.379 209.492 663.278 209.613C661.177 209.856 660.277 210.22 661.027 210.583C661.927 210.826 668.98 210.341 676.934 209.492C694.041 207.793 765.921 208.036 762.319 209.856C759.468 211.311 759.618 211.311 772.074 209.492C778.526 208.643 791.882 208.157 806.588 208.4C828.797 208.764 830.298 208.885 826.846 210.583C824.295 211.797 824.145 212.16 826.096 211.675C835.55 209.007 840.352 208.643 856.109 208.885L873.666 209.249L854.158 217.983L834.8 226.838L807.188 226.717H779.577L801.036 219.924C812.741 216.163 822.195 212.888 821.894 212.646C821.594 212.403 810.64 215.557 797.434 219.56L773.574 226.838L731.857 226.596L690.139 226.232L724.804 219.075C743.712 215.072 759.018 211.675 758.718 211.433C758.418 211.19 740.71 214.465 719.251 218.832L680.235 226.838L616.608 226.717L552.982 226.596L606.104 219.196C635.366 215.072 658.476 211.554 657.726 211.433C656.825 211.19 629.814 214.586 597.701 218.953L539.176 226.838L444.036 226.596L348.896 226.232L378.158 223.563C466.696 215.557 507.663 211.675 504.962 211.311C503.311 211.19 462.644 214.586 414.624 218.953L327.437 226.838L182.777 226.717C103.243 226.596 39.6166 226.353 41.2673 226.11C42.918 225.989 88.237 223.199 141.809 219.924C195.532 216.77 237.55 213.98 235.449 213.737C233.198 213.495 203.485 215.072 169.421 217.134C48.6204 224.412 27.6116 225.625 13.8058 226.353C-22.6595 228.536 12.005 229.264 147.512 229.386C275.666 229.507 292.773 229.749 278.367 231.084C234.398 235.329 4.50189 255.951 2.40101 255.951C1.05044 255.951 0 256.436 0 257.164C0 258.013 51.4716 258.377 151.263 258.499C234.398 258.499 301.776 258.741 300.876 258.984C299.075 259.59 4.0517 299.621 1.65069 299.621C0.750314 299.621 0 300.47 0 301.44C0 303.017 18.1576 303.26 151.113 303.502C294.123 303.866 301.776 303.987 292.623 305.807C287.22 306.899 219.542 320.727 142.26 336.497C64.9772 352.266 1.2005 365.125 0.750314 365.125C0.300126 365.125 0 366.216 0 367.551C0 369.977 1.2005 369.977 151.864 370.219L303.877 370.583L293.373 373.858C287.521 375.678 268.763 381.501 251.355 386.717C193.281 404.427 116.749 427.96 62.2761 444.579C32.5636 453.798 6.4527 461.804 4.20176 462.41C0.900377 463.381 0 464.351 0 467.141V470.659L148.712 470.902L297.425 471.266L149.313 538.589L1.35057 605.913L13.0555 606.277L24.7604 606.641L170.321 538.589L315.882 470.659H437.133C544.728 470.659 563.936 471.023 557.033 473.328C556.283 473.449 518.617 501.591 473.298 535.557C427.979 569.643 388.213 599.605 384.911 602.031L378.909 606.398H391.664H404.419L490.706 538.589L576.992 470.659H699.143C814.691 470.659 821.144 470.78 820.094 472.721C819.493 473.934 805.988 503.29 789.931 537.983C773.874 572.676 760.069 602.274 759.318 603.729C757.968 606.519 757.968 606.519 770.423 606.519H783.178L807.789 545.625C821.444 512.024 833.749 481.455 835.25 477.573L837.951 470.659H960.402H1082.85L1085.55 477.573C1087.06 481.455 1099.36 512.024 1113.02 545.503L1137.63 606.519H1150.38C1157.44 606.519 1162.84 606.155 1162.54 605.549C1162.09 605.064 1148.28 575.466 1131.77 539.802C1115.27 504.139 1101.31 473.934 1100.71 472.721C1099.66 470.78 1106.11 470.659 1221.66 470.659H1343.81L1430.1 538.589L1516.39 606.398H1529.14H1541.9L1532.44 599.484C1493.28 570.613 1362.72 472.236 1362.72 471.508C1362.57 471.023 1417.04 470.659 1483.82 470.659H1604.92L1750.48 538.589L1896.04 606.641L1907.75 606.277L1919.45 605.913L1771.49 538.589L1623.38 471.266L1772.09 470.902L1920.8 470.659V467.141C1920.8 464.351 1919.9 463.381 1916.75 462.41C1914.35 461.804 1870.38 448.218 1818.76 432.448C1767.14 416.679 1710.12 399.211 1691.96 393.631C1673.8 388.051 1649.94 380.773 1638.84 377.376C1627.73 373.98 1618.28 370.947 1617.98 370.583C1617.53 370.219 1685.51 369.977 1768.94 369.977C1919.75 369.977 1920.8 369.977 1920.8 367.551C1920.8 366.216 1920.5 365.125 1920.05 365.125C1919.6 365.125 1855.83 352.266 1778.55 336.497C1701.26 320.727 1633.58 306.899 1628.18 305.807C1619.03 303.987 1626.68 303.866 1769.69 303.502C1902.65 303.26 1920.8 303.017 1920.8 301.44C1920.8 300.47 1920.05 299.621 1919.15 299.621C1916.6 299.621 1621.73 259.59 1619.93 258.984C1619.18 258.741 1686.41 258.499 1769.69 258.499C1869.33 258.377 1920.8 258.013 1920.8 257.164C1920.8 256.436 1919.75 255.951 1918.4 255.951C1916.3 255.951 1686.41 235.329 1642.44 231.084C1628.03 229.749 1645.14 229.507 1773.44 229.386C1908.8 229.264 1943.46 228.536 1907 226.353C1893.19 225.625 1872.18 224.412 1751.38 217.134C1717.32 215.072 1687.61 213.495 1685.36 213.737C1683.26 213.98 1725.42 216.77 1779 219.924C1832.72 223.199 1877.89 225.989 1879.54 226.11C1881.19 226.353 1817.56 226.596 1738.03 226.717L1593.37 226.838L1506.18 218.953C1458.16 214.586 1417.49 211.19 1415.84 211.311C1413.14 211.675 1454.11 215.557 1542.65 223.563L1571.91 226.232L1476.77 226.596L1381.63 226.838L1323.1 218.953C1290.99 214.586 1263.98 211.19 1263.08 211.433C1262.33 211.554 1285.44 215.072 1314.7 219.196L1367.82 226.596L1304.05 226.717L1240.27 226.838L1199.3 218.468C1176.64 213.859 1157.89 209.734 1157.44 209.37C1155.63 207.915 1229.77 208.036 1243.87 209.492C1251.82 210.341 1259.03 210.826 1259.78 210.583C1260.68 210.22 1259.63 209.856 1257.53 209.613C1255.43 209.492 1278.09 209.007 1307.8 208.643L1361.82 207.915L1298.04 207.551C1262.93 207.308 1232.62 207.187 1230.52 207.187C1228.41 207.066 1207.86 207.187 1184.75 207.187C1161.64 207.187 1141.38 207.187 1139.73 207.187C1138.08 207.187 1124.27 207.187 1108.96 207.308C1038.74 207.551 1043.84 207.793 1037.83 204.882C1034.83 203.548 1032.43 202.699 1032.43 203.063C1032.43 203.427 1034.23 204.518 1036.63 205.489C1040.39 207.187 1039.79 207.308 1025.68 207.308L1010.67 207.43L1002.42 201.243C986.664 189.477 985.163 188.749 996.418 198.089L1007.52 207.43H992.666H977.66L973.308 197.725C970.907 192.267 968.806 188.142 968.356 188.385C968.056 188.749 969.556 192.873 971.657 197.847C973.758 202.699 975.409 206.823 975.409 207.066C975.409 207.308 968.656 207.43 960.402 207.43C952.149 207.43 945.396 207.308 945.396 207.066C945.396 206.823 947.047 202.699 949.148 197.847C951.249 192.873 952.749 188.749 952.449 188.385C951.999 188.142 949.898 192.267 947.497 197.725ZM1193.45 218.468L1230.67 226.232L1188.95 226.596L1147.23 226.838L1123.37 219.56C1110.17 215.557 1099.21 212.403 1098.91 212.646C1098.61 212.888 1108.06 216.163 1119.77 219.924L1141.23 226.717H1113.62L1086.01 226.838L1069.35 219.317C1060.19 215.193 1051.34 211.19 1049.84 210.341C1047.44 209.007 1055.09 208.764 1091.71 208.764C1116.32 208.764 1136.73 208.521 1137.03 208.279C1138.08 207.43 1155.18 210.462 1193.45 218.468ZM896.626 217.74L884.621 226.717L861.361 226.838H838.101L857.609 217.74L877.118 208.764H892.874H908.631L896.626 217.74ZM938.193 217.74L934.141 226.838H910.882L887.622 226.717L899.327 217.74L911.182 208.643H926.638H942.245L938.193 217.74ZM979.611 216.891C981.411 221.501 982.912 225.504 982.912 225.989C982.912 226.474 972.858 226.838 960.402 226.838C948.097 226.838 937.893 226.474 937.893 225.989C937.893 225.504 939.394 221.501 941.194 216.891L944.496 208.643H960.402H976.309L979.611 216.891ZM1021.48 217.74L1033.18 226.717L1009.92 226.838H986.664L982.612 217.74L978.56 208.643H994.167H1009.62L1021.48 217.74ZM1063.2 217.74L1082.7 226.838H1059.44L1036.18 226.717L1024.18 217.74L1012.17 208.764H1027.93H1043.69L1063.2 217.74ZM507.213 231.084C501.06 231.933 457.542 237.877 410.572 244.306L325.186 255.951L178.725 255.83L32.2635 255.708L69.0289 252.191C89.2874 250.371 117.649 247.702 132.055 246.368C146.461 244.912 188.329 241.152 225.094 237.756C261.86 234.48 295.924 231.205 300.876 230.599C305.828 229.992 356.85 229.628 414.174 229.507C504.211 229.507 516.967 229.749 507.213 231.084ZM602.503 242.608L537.975 255.951L440.435 255.83L342.894 255.708L366.904 252.312C380.109 250.371 403.369 247.096 418.675 245.034C433.982 242.972 465.045 238.605 487.704 235.329L528.972 229.507H598.001L667.03 229.386L602.503 242.608ZM763.67 229.749C763.37 229.992 744.162 235.936 721.052 243.093L679.035 255.951L614.508 255.83C559.585 255.708 551.031 255.466 556.733 254.132C560.485 253.282 585.095 248.188 611.506 242.608C637.917 237.149 662.528 231.933 666.279 231.084C670.931 229.992 686.988 229.507 718.651 229.386C743.712 229.386 763.97 229.507 763.67 229.749ZM828.197 229.749C827.897 229.992 814.841 235.936 799.235 243.093L771.023 255.951L729.156 255.708L687.288 255.345L728.255 242.486L769.072 229.507L798.935 229.386C815.442 229.264 828.497 229.507 828.197 229.749ZM868.564 238.726C861.661 244.063 853.708 250.007 850.556 252.191L845.154 255.951L811.24 255.708L777.176 255.345L804.637 242.365L832.099 229.507L856.559 229.386L881.019 229.264L868.564 238.726ZM926.788 242.608L920.636 255.951H885.521H850.556L867.514 242.608L884.621 229.386L908.781 229.264H932.941L926.788 242.608ZM989.965 242.001C992.666 248.673 994.917 254.495 994.917 254.981C994.917 255.587 979.46 255.951 960.402 255.951C941.495 255.951 925.888 255.587 925.888 255.223C925.888 254.374 935.042 231.326 935.942 230.113C936.242 229.628 947.497 229.386 960.853 229.507L985.013 229.871L989.965 242.001ZM1053.29 242.608L1070.25 255.951H1035.28H1000.17L994.017 242.608L987.864 229.264H1012.02L1036.18 229.386L1053.29 242.608ZM1115.57 242.244L1143.63 255.345L1109.56 255.708L1075.65 255.951L1070.25 252.191C1067.1 250.007 1059.14 244.063 1052.24 238.726L1039.79 229.264H1063.65H1087.66L1115.57 242.244ZM1191.8 242.244L1233.52 255.345L1191.65 255.708L1149.78 255.951L1121.57 243.093C1105.96 235.936 1092.91 229.992 1092.61 229.749C1092.31 229.507 1105.06 229.264 1120.97 229.264H1150.08L1191.8 242.244ZM1256.48 231.569C1262.33 232.903 1287.54 238.119 1312.3 243.336C1337.06 248.43 1360.32 253.282 1364.07 254.132C1369.77 255.466 1361.22 255.708 1306.3 255.83L1241.77 255.951L1199.75 243.093C1176.64 235.936 1157.44 229.992 1157.13 229.749C1156.83 229.507 1176.49 229.264 1201.1 229.264C1240.27 229.264 1246.87 229.507 1256.48 231.569ZM1458.31 238.969C1496.88 244.306 1539.5 250.25 1553.15 252.191L1577.91 255.708L1480.37 255.83L1382.83 255.951L1318.3 242.608L1253.78 229.386H1321L1388.23 229.264L1458.31 238.969ZM1655.94 233.874C1696.91 237.877 1769.84 244.67 1844.12 251.342L1888.39 255.345L1742.08 255.708L1595.92 255.951L1510.38 244.306C1463.41 237.877 1419.74 231.933 1413.59 231.084C1403.84 229.749 1417.19 229.507 1509.63 229.749L1616.93 229.992L1655.94 233.874ZM522.069 258.862C521.769 259.105 476.75 268.445 422.127 279.484L322.935 299.621L175.273 299.499C94.2395 299.378 29.4123 299.014 31.5132 298.771C33.6141 298.529 99.0415 289.31 177.074 278.392L318.884 258.62L420.776 258.499C476.9 258.377 522.369 258.62 522.069 258.862ZM663.278 260.439C658.776 262.016 596.5 281.304 549.68 295.496L536.025 299.621L438.184 299.378L340.343 299.014L358.95 295.254C388.213 289.188 462.944 273.54 499.709 265.777L533.474 258.62H601.002C663.128 258.62 668.08 258.741 663.278 260.439ZM763.37 259.105C762.92 259.469 742.811 268.809 718.651 279.727L674.833 299.621L611.356 299.378L547.73 299.014L611.956 278.756L676.033 258.62L720.152 258.499C744.462 258.377 763.97 258.741 763.37 259.105ZM838.852 261.288C836.751 262.865 824.445 272.085 811.39 281.91L787.68 299.621H735.008H682.186L726.304 278.999L770.573 258.377H806.588H842.603L838.852 261.288ZM918.385 259.469C918.385 259.954 914.333 269.173 909.531 279.727L900.677 299.014L847.855 299.378L795.033 299.621L820.994 279.12L847.105 258.499L882.82 258.377C902.328 258.377 918.385 258.862 918.385 259.469ZM1004.07 277.422C1008.27 287.975 1012.17 297.316 1012.62 298.044C1013.07 299.257 1001.97 299.621 960.402 299.621C918.835 299.621 907.73 299.257 908.181 298.044C908.631 297.316 912.532 287.975 916.734 277.422L924.688 258.377H960.402H996.117L1004.07 277.422ZM1099.81 279.12L1125.77 299.621L1072.95 299.378L1020.13 299.014L1011.27 279.727C1006.47 269.173 1002.42 259.954 1002.42 259.469C1002.42 258.862 1018.48 258.377 1038.14 258.377L1073.7 258.499L1099.81 279.12ZM1194.5 278.999L1238.62 299.621H1185.8H1133.12L1109.41 281.91C1096.36 272.085 1084.05 262.865 1081.95 261.288L1078.2 258.377H1114.22H1150.23L1194.5 278.999ZM1308.1 278.635L1373.08 299.014L1309.45 299.378L1245.97 299.621L1202.15 279.727C1177.99 268.809 1157.89 259.469 1157.44 259.105C1156.83 258.741 1176.04 258.377 1199.75 258.377H1243.12L1308.1 278.635ZM1420.8 265.777C1440.3 269.901 1475.57 277.301 1499.13 282.153C1522.69 287.126 1550.6 292.949 1561.1 295.011L1580.46 299.014L1482.62 299.378L1384.78 299.621L1371.12 295.496C1324.31 281.304 1262.03 262.016 1257.53 260.439C1252.72 258.741 1257.53 258.62 1318.75 258.499L1385.08 258.377L1420.8 265.777ZM1734.58 277.301C1809.31 287.733 1875.64 296.952 1881.79 297.801C1891.39 299.135 1871.58 299.378 1745.53 299.499L1597.87 299.621L1498.68 279.484C1444.06 268.445 1399.04 259.105 1398.74 258.862C1398.44 258.62 1443.15 258.377 1498.38 258.377H1598.62L1734.58 277.301ZM519.968 304.351C515.316 305.928 455.591 324.245 389.413 344.503C356.399 354.571 327.737 363.305 325.636 363.912C323.235 364.761 268.012 365.003 174.073 364.882L26.4111 364.518L39.7667 361.849C47.2698 360.272 65.1273 356.633 79.5333 353.601C93.9394 350.568 120.35 344.988 138.058 341.349C155.765 337.71 177.825 333.1 186.828 331.16C195.982 329.219 219.542 324.245 239.35 320.121C259.159 315.997 285.119 310.659 297.125 308.112L318.884 303.502L420.926 303.381C477.05 303.381 521.619 303.866 519.968 304.351ZM664.028 304.351C663.128 304.958 632.965 318.787 596.65 335.284L530.922 365.125L434.732 364.882L338.542 364.518L398.567 345.837C431.431 335.526 475.399 321.819 495.958 315.269L533.474 303.381H599.501C637.017 303.26 664.779 303.745 664.028 304.351ZM778.076 306.777C775.525 308.718 757.067 322.668 736.959 337.71L700.344 365.125H621.41C573.841 365.125 543.378 364.639 544.728 363.912C545.929 363.305 575.641 349.476 610.756 333.1L674.533 303.26H728.555H782.578L778.076 306.777ZM893.324 314.42C890.473 320.606 884.021 334.556 879.068 345.352L870.065 365.125H790.982L712.048 365.003L751.065 334.192L790.081 303.381L844.254 303.26H898.577L893.324 314.42ZM1027.18 334.192L1039.34 364.518L999.869 364.882C978.11 365.003 942.695 365.003 920.936 364.882L881.469 364.518L893.174 335.405C899.627 319.393 905.179 305.564 905.63 304.715C906.08 303.502 917.935 303.26 960.553 303.502L1014.88 303.866L1027.18 334.192ZM1169.74 334.192L1208.76 365.003L1129.82 365.125H1050.74L1041.74 345.352C1036.78 334.556 1030.33 320.606 1027.48 314.42L1022.23 303.26H1076.55L1130.72 303.381L1169.74 334.192ZM1310.05 333.1C1345.16 349.476 1374.88 363.305 1376.08 363.912C1377.43 364.639 1346.96 365.125 1299.39 365.125H1220.46L1183.85 337.71C1163.74 322.668 1145.28 308.718 1142.73 306.777L1138.23 303.26H1192.25H1246.27L1310.05 333.1ZM1430.4 317.088C1454.56 324.609 1498.68 338.438 1528.24 347.657L1582.26 364.518L1486.07 364.882L1389.88 365.125L1324.15 335.284C1287.84 318.787 1257.68 304.958 1256.93 304.351C1256.03 303.745 1283.64 303.26 1320.85 303.26H1386.43L1430.4 317.088ZM1635.54 310.659C1655.04 314.662 1679.95 319.878 1690.91 322.183C1733.38 331.038 1751.68 334.92 1782.75 341.349C1800.45 344.988 1826.87 350.568 1841.27 353.601C1855.68 356.633 1873.54 360.272 1881.04 361.849L1894.39 364.518L1746.73 364.882C1652.79 365.003 1597.57 364.761 1595.17 363.912C1593.07 363.305 1564.41 354.571 1531.39 344.503C1465.21 324.245 1405.49 305.928 1400.84 304.351C1399.19 303.866 1443.3 303.381 1498.98 303.381L1600.12 303.26L1635.54 310.659ZM516.967 371.068C516.066 371.675 470.297 392.661 415.074 417.77L314.832 463.381L169.721 463.138C32.7137 462.774 25.0605 462.653 31.5132 460.712C38.116 458.771 282.118 382.35 307.629 374.222L320.384 370.098H419.426C478.851 369.977 517.717 370.462 516.967 371.068ZM691.79 371.675C690.589 372.645 662.528 393.631 629.514 418.377L569.489 463.381H450.939C376.508 463.381 333.29 462.896 334.64 462.168C335.841 461.561 380.409 440.576 433.682 415.587L530.472 370.219L612.257 370.098C682.636 369.977 693.591 370.219 691.79 371.675ZM866.913 371.432C866.613 372.282 856.859 393.388 845.454 418.134L824.596 463.381H705.296H585.996L590.497 459.984C593.049 458.043 619.76 437.058 650.072 413.282L705.146 369.977H786.48C850.857 369.977 867.514 370.341 866.913 371.432ZM1060.49 416.072C1070.55 441.061 1078.95 461.925 1078.95 462.41C1078.95 463.017 1025.68 463.381 960.402 463.381C895.275 463.381 841.853 463.017 841.853 462.653C841.853 461.682 878.018 372.039 878.918 370.826C879.218 370.341 916.134 370.098 960.703 370.219L1042.04 370.583L1060.49 416.072ZM1270.73 413.282C1301.05 437.058 1327.76 458.043 1330.31 459.984L1334.81 463.381H1215.51H1096.21L1075.35 418.134C1063.95 393.388 1054.19 372.282 1053.89 371.432C1053.29 370.341 1069.95 369.977 1134.33 369.977H1215.66L1270.73 413.282ZM1484.27 414.374C1536.64 438.756 1581.51 459.742 1583.91 461.076C1588.42 463.259 1586.92 463.381 1469.87 463.381H1351.32L1291.29 418.377C1258.28 393.631 1230.22 372.645 1229.02 371.675C1227.21 370.219 1237.87 369.977 1308.1 369.977H1389.13L1484.27 414.374ZM1649.49 385.625C1837.52 444.579 1883.29 459.014 1889.29 460.712C1895.74 462.653 1887.94 462.774 1751.08 463.138L1605.97 463.381L1505.73 417.77C1450.51 392.661 1404.74 371.675 1403.99 371.068C1403.09 370.462 1441.65 369.977 1501.08 369.977H1599.52L1649.49 385.625Z" fill="#FD1C74" fill-opacity="0.2"/>
<path d="M35.716 186.444C41.5684 186.686 51.4726 186.686 57.4751 186.444C63.3276 186.322 58.5256 186.08 46.5205 186.08C34.5155 186.08 29.7135 186.322 35.716 186.444Z" fill="#FD1C74" fill-opacity="0.2"/>
<path d="M357.601 186.444C359.852 186.687 363.454 186.687 365.855 186.444C368.106 186.201 366.155 185.959 361.653 185.959C357.151 185.959 355.2 186.201 357.601 186.444Z" fill="#FD1C74" fill-opacity="0.2"/>
<path d="M937.144 186.808C936.693 187.536 937.294 187.657 938.494 187.293C941.195 186.444 941.645 185.595 939.545 185.595C938.644 185.595 937.594 186.08 937.144 186.808Z" fill="#FD1C74" fill-opacity="0.2"/>
<path d="M979.913 186.08C979.913 186.323 980.964 186.929 982.314 187.293C983.515 187.657 984.115 187.536 983.665 186.808C982.764 185.595 979.913 185.11 979.913 186.08Z" fill="#FD1C74" fill-opacity="0.2"/>
<path d="M1555.1 186.444C1557.36 186.687 1560.96 186.687 1563.36 186.444C1565.61 186.201 1563.66 185.959 1559.16 185.959C1554.65 185.959 1552.7 186.201 1555.1 186.444Z" fill="#FD1C74" fill-opacity="0.2"/>
<path d="M1863.48 186.444C1869.33 186.687 1879.24 186.687 1885.24 186.444C1891.09 186.323 1886.29 186.08 1874.29 186.08C1862.28 186.08 1857.48 186.323 1863.48 186.444Z" fill="#FD1C74" fill-opacity="0.2"/>
<path d="M1092.46 211.069C1093.66 211.675 1095.46 212.282 1096.21 212.282C1097.11 212.282 1096.66 211.675 1095.46 211.069C1094.26 210.462 1092.61 209.856 1091.71 209.856C1090.96 209.856 1091.26 210.462 1092.46 211.069Z" fill="#FD1C74" fill-opacity="0.2"/>
<path d="M19.2096 194.935C25.0621 195.178 34.9663 195.178 40.9688 194.935C46.8212 194.814 42.0192 194.571 30.0142 194.571C18.0091 194.571 13.2071 194.814 19.2096 194.935Z" fill="#FD1C74" fill-opacity="0.2"/>
<path d="M339.593 194.935C343.495 195.178 349.647 195.178 353.099 194.935C356.55 194.693 353.399 194.571 345.896 194.571C338.543 194.571 335.691 194.693 339.593 194.935Z" fill="#FD1C74" fill-opacity="0.2"/>
<path d="M548.932 194.935C551.634 195.178 555.685 195.178 557.936 194.935C560.187 194.693 557.936 194.45 552.984 194.45C548.032 194.45 546.231 194.693 548.932 194.935Z" fill="#FD1C74" fill-opacity="0.2"/>
<path d="M686.989 194.935C688.79 195.178 691.791 195.178 693.742 194.935C695.543 194.693 694.042 194.45 690.29 194.45C686.539 194.45 685.038 194.693 686.989 194.935Z" fill="#FD1C74" fill-opacity="0.2"/>
<path d="M778.528 194.935C779.428 195.178 781.229 195.178 782.28 194.935C783.18 194.571 782.43 194.329 780.329 194.329C778.228 194.329 777.478 194.571 778.528 194.935Z" fill="#FD1C74" fill-opacity="0.2"/>
<path d="M840.055 194.936C841.106 195.299 842.456 195.178 842.906 194.814C843.507 194.45 842.606 194.086 840.956 194.208C839.305 194.208 838.855 194.572 840.055 194.936Z" fill="#FD1C74" fill-opacity="0.2"/>
<path d="M903.381 195.299C902.181 195.906 901.88 196.512 902.631 196.512C903.531 196.512 905.182 195.906 906.382 195.299C907.583 194.693 908.033 194.086 907.133 194.086C906.382 194.086 904.582 194.693 903.381 195.299Z" fill="#FD1C74" fill-opacity="0.2"/>
<path d="M1014.43 195.299C1015.63 195.906 1017.43 196.512 1018.18 196.512C1019.08 196.512 1018.63 195.906 1017.43 195.299C1016.23 194.693 1014.58 194.086 1013.68 194.086C1012.93 194.086 1013.23 194.693 1014.43 195.299Z" fill="#FD1C74" fill-opacity="0.2"/>
<path d="M1078.65 194.935C1079.7 195.299 1081.05 195.178 1081.51 194.814C1082.11 194.45 1081.2 194.086 1079.55 194.207C1077.9 194.207 1077.45 194.571 1078.65 194.935Z" fill="#FD1C74" fill-opacity="0.2"/>
<path d="M1138.68 194.935C1139.58 195.178 1141.38 195.178 1142.43 194.935C1143.33 194.571 1142.58 194.329 1140.48 194.329C1138.38 194.329 1137.63 194.571 1138.68 194.935Z" fill="#FD1C74" fill-opacity="0.2"/>
<path d="M1227.22 194.935C1229.02 195.178 1232.02 195.178 1233.97 194.935C1235.77 194.693 1234.27 194.45 1230.52 194.45C1226.77 194.45 1225.26 194.693 1227.22 194.935Z" fill="#FD1C74" fill-opacity="0.2"/>
<path d="M1363.77 194.935C1366.48 195.178 1370.53 195.178 1372.78 194.935C1375.03 194.693 1372.78 194.45 1367.83 194.45C1362.87 194.45 1361.07 194.693 1363.77 194.935Z" fill="#FD1C74" fill-opacity="0.2"/>
<path d="M1568.61 194.935C1572.51 195.178 1578.66 195.178 1582.11 194.935C1585.57 194.693 1582.41 194.571 1574.91 194.571C1567.56 194.571 1564.71 194.693 1568.61 194.935Z" fill="#FD1C74" fill-opacity="0.2"/>
<path d="M1879.99 194.935C1885.84 195.178 1895.75 195.178 1901.75 194.935C1907.6 194.814 1902.8 194.571 1890.79 194.571C1878.79 194.571 1873.99 194.814 1879.99 194.935Z" fill="#FD1C74" fill-opacity="0.2"/>
<path d="M297.575 196.148C301.477 196.391 307.78 196.391 311.831 196.148C315.733 195.906 312.432 195.784 304.628 195.784C296.825 195.784 293.524 195.906 297.575 196.148Z" fill="#FD1C74" fill-opacity="0.2"/>
<path d="M521.92 196.148C524.621 196.391 528.673 196.391 530.923 196.148C533.174 195.906 530.923 195.663 525.971 195.663C521.019 195.663 519.219 195.906 521.92 196.148Z" fill="#FD1C74" fill-opacity="0.2"/>
<path d="M668.981 196.148C670.782 196.391 673.783 196.391 675.734 196.148C677.535 195.906 676.034 195.663 672.283 195.663C668.531 195.663 667.03 195.906 668.981 196.148Z" fill="#FD1C74" fill-opacity="0.2"/>
<path d="M767.273 196.148C768.623 196.391 770.724 196.391 771.775 196.148C772.675 195.784 771.625 195.542 769.073 195.542C766.672 195.542 765.772 195.784 767.273 196.148Z" fill="#FD1C74" fill-opacity="0.2"/>
<path d="M831.049 196.148C831.949 196.391 833.75 196.391 834.8 196.148C835.7 195.784 834.95 195.542 832.849 195.542C830.748 195.542 829.998 195.784 831.049 196.148Z" fill="#FD1C74" fill-opacity="0.2"/>
<path d="M874.569 196.148C875.619 196.512 876.97 196.391 877.42 196.027C878.02 195.663 877.12 195.299 875.469 195.42C873.819 195.42 873.368 195.784 874.569 196.148Z" fill="#FD1C74" fill-opacity="0.2"/>
<path d="M1044.14 196.148C1045.19 196.512 1046.54 196.391 1046.99 196.027C1047.59 195.663 1046.69 195.299 1045.04 195.42C1043.39 195.42 1042.94 195.784 1044.14 196.148Z" fill="#FD1C74" fill-opacity="0.2"/>
<path d="M1086.16 196.148C1087.06 196.391 1088.86 196.391 1089.91 196.148C1090.81 195.784 1090.06 195.542 1087.96 195.542C1085.86 195.542 1085.11 195.784 1086.16 196.148Z" fill="#FD1C74" fill-opacity="0.2"/>
<path d="M1149.93 196.148C1151.29 196.391 1153.39 196.391 1154.44 196.148C1155.34 195.784 1154.29 195.542 1151.74 195.542C1149.33 195.542 1148.43 195.784 1149.93 196.148Z" fill="#FD1C74" fill-opacity="0.2"/>
<path d="M1245.22 196.148C1247.02 196.391 1250.02 196.391 1251.97 196.148C1253.78 195.906 1252.27 195.663 1248.52 195.663C1244.77 195.663 1243.27 195.906 1245.22 196.148Z" fill="#FD1C74" fill-opacity="0.2"/>
<path d="M1390.78 196.148C1393.49 196.391 1397.54 196.391 1399.79 196.148C1402.04 195.906 1399.79 195.663 1394.84 195.663C1389.88 195.663 1388.08 195.906 1390.78 196.148Z" fill="#FD1C74" fill-opacity="0.2"/>
<path d="M1609.13 196.148C1613.03 196.391 1619.33 196.391 1623.38 196.148C1627.28 195.906 1623.98 195.784 1616.18 195.784C1608.38 195.784 1605.07 195.906 1609.13 196.148Z" fill="#FD1C74" fill-opacity="0.2"/>
<path d="M243.554 198.574C244.905 198.817 247.306 198.817 248.806 198.574C250.157 198.21 248.956 197.968 246.105 197.968C243.254 197.968 242.053 198.21 243.554 198.574Z" fill="#FD1C74" fill-opacity="0.2"/>
<path d="M485.905 198.574C486.955 198.938 488.306 198.817 488.756 198.453C489.356 198.089 488.456 197.725 486.805 197.847C485.155 197.847 484.704 198.211 485.905 198.574Z" fill="#FD1C74" fill-opacity="0.2"/>
<path d="M644.973 198.574C646.024 198.938 647.374 198.817 647.824 198.453C648.425 198.089 647.524 197.725 645.874 197.847C644.223 197.847 643.773 198.211 644.973 198.574Z" fill="#FD1C74" fill-opacity="0.2"/>
<path d="M1273.74 198.574C1274.79 198.938 1276.14 198.817 1276.59 198.453C1277.19 198.089 1276.29 197.725 1274.64 197.847C1272.99 197.847 1272.54 198.211 1273.74 198.574Z" fill="#FD1C74" fill-opacity="0.2"/>
<path d="M1432.8 198.574C1433.85 198.938 1435.2 198.817 1435.65 198.453C1436.25 198.089 1435.35 197.725 1433.7 197.847C1432.05 197.847 1431.6 198.211 1432.8 198.574Z" fill="#FD1C74" fill-opacity="0.2"/>
<path d="M1672.15 198.574C1673.5 198.817 1675.9 198.817 1677.4 198.574C1678.75 198.21 1677.55 197.968 1674.7 197.968C1671.85 197.968 1670.65 198.21 1672.15 198.574Z" fill="#FD1C74" fill-opacity="0.2"/>
<path d="M221.044 199.788C222.395 200.03 224.796 200.03 226.297 199.788C227.647 199.424 226.447 199.181 223.595 199.181C220.744 199.181 219.544 199.424 221.044 199.788Z" fill="#FD1C74" fill-opacity="0.2"/>
<path d="M469.398 199.787C470.299 200.03 472.099 200.03 473.15 199.787C474.05 199.423 473.3 199.181 471.199 199.181C469.098 199.181 468.348 199.423 469.398 199.787Z" fill="#FD1C74" fill-opacity="0.2"/>
<path d="M1447.81 199.787C1448.71 200.03 1450.51 200.03 1451.56 199.787C1452.46 199.423 1451.71 199.181 1449.61 199.181C1447.51 199.181 1446.76 199.423 1447.81 199.787Z" fill="#FD1C74" fill-opacity="0.2"/>
<path d="M1694.66 199.787C1696.01 200.03 1698.41 200.03 1699.91 199.787C1701.27 199.423 1700.06 199.181 1697.21 199.181C1694.36 199.181 1693.16 199.423 1694.66 199.787Z" fill="#FD1C74" fill-opacity="0.2"/>
<path d="M183.528 201C185.779 201.243 189.08 201.243 191.031 201C192.831 200.758 191.031 200.515 186.829 200.515C182.777 200.515 181.127 200.758 183.528 201Z" fill="#FD1C74" fill-opacity="0.2"/>
<path d="M445.386 201C446.287 201.243 448.088 201.243 449.138 201C450.038 200.637 449.288 200.394 447.187 200.394C445.086 200.394 444.336 200.637 445.386 201Z" fill="#FD1C74" fill-opacity="0.2"/>
<path d="M617.961 201C618.861 201.243 620.662 201.243 621.712 201C622.613 200.637 621.862 200.394 619.761 200.394C617.661 200.394 616.91 200.637 617.961 201Z" fill="#FD1C74" fill-opacity="0.2"/>
<path d="M1299.24 201C1300.15 201.243 1301.95 201.243 1303 201C1303.9 200.637 1303.15 200.394 1301.05 200.394C1298.94 200.394 1298.19 200.637 1299.24 201Z" fill="#FD1C74" fill-opacity="0.2"/>
<path d="M1471.07 201C1472.42 201.243 1474.52 201.243 1475.57 201C1476.47 200.637 1475.42 200.394 1472.87 200.394C1470.47 200.394 1469.57 200.637 1471.07 201Z" fill="#FD1C74" fill-opacity="0.2"/>
<path d="M1730.68 201.001C1732.93 201.243 1736.23 201.243 1738.18 201.001C1739.98 200.758 1738.18 200.515 1733.98 200.515C1729.93 200.515 1728.28 200.758 1730.68 201.001Z" fill="#FD1C74" fill-opacity="0.2"/>
<path d="M158.018 202.214C160.269 202.456 163.57 202.456 165.521 202.214C167.322 201.971 165.521 201.728 161.319 201.728C157.267 201.728 155.617 201.971 158.018 202.214Z" fill="#FD1C74" fill-opacity="0.2"/>
<path d="M429.631 202.213C430.982 202.456 433.083 202.456 434.133 202.213C435.033 201.849 433.983 201.607 431.432 201.607C429.031 201.607 428.13 201.849 429.631 202.213Z" fill="#FD1C74" fill-opacity="0.2"/>
<path d="M606.703 202.214C608.054 202.456 610.155 202.456 611.205 202.214C612.106 201.85 611.055 201.607 608.504 201.607C606.103 201.607 605.203 201.85 606.703 202.214Z" fill="#FD1C74" fill-opacity="0.2"/>
<path d="M726.005 202.214C727.056 202.578 728.406 202.456 728.857 202.092C729.457 201.728 728.556 201.364 726.906 201.486C725.255 201.486 724.805 201.85 726.005 202.214Z" fill="#FD1C74" fill-opacity="0.2"/>
<path d="M1192.7 202.213C1193.75 202.577 1195.1 202.456 1195.55 202.092C1196.15 201.728 1195.25 201.364 1193.6 201.486C1191.95 201.486 1191.5 201.849 1192.7 202.213Z" fill="#FD1C74" fill-opacity="0.2"/>
<path d="M1310.5 202.214C1311.85 202.456 1313.95 202.456 1315 202.214C1315.9 201.85 1314.85 201.607 1312.3 201.607C1309.9 201.607 1309 201.85 1310.5 202.214Z" fill="#FD1C74" fill-opacity="0.2"/>
<path d="M1487.57 202.214C1488.93 202.456 1491.03 202.456 1492.08 202.214C1492.98 201.85 1491.93 201.607 1489.38 201.607C1486.97 201.607 1486.07 201.85 1487.57 202.214Z" fill="#FD1C74" fill-opacity="0.2"/>
<path d="M1756.19 202.214C1758.44 202.456 1761.74 202.456 1763.69 202.214C1765.49 201.971 1763.69 201.728 1759.49 201.728C1755.44 201.728 1753.79 201.971 1756.19 202.214Z" fill="#FD1C74" fill-opacity="0.2"/>
<path d="M122.003 203.427C124.254 203.669 127.855 203.669 130.256 203.427C132.507 203.184 130.556 202.941 126.054 202.941C121.553 202.941 119.602 203.184 122.003 203.427Z" fill="#FD1C74" fill-opacity="0.2"/>
<path d="M406.371 203.426C408.172 203.669 410.873 203.669 412.374 203.426C413.724 203.063 412.224 202.82 408.922 202.941C405.621 202.941 404.42 203.184 406.371 203.426Z" fill="#FD1C74" fill-opacity="0.2"/>
<path d="M591.698 203.426C593.049 203.669 595.15 203.669 596.2 203.426C597.101 203.063 596.05 202.82 593.499 202.82C591.098 202.82 590.198 203.063 591.698 203.426Z" fill="#FD1C74" fill-opacity="0.2"/>
<path d="M715.501 203.427C716.551 203.791 717.902 203.669 718.352 203.305C718.952 202.942 718.052 202.578 716.401 202.699C714.75 202.699 714.3 203.063 715.501 203.427Z" fill="#FD1C74" fill-opacity="0.2"/>
<path d="M1203.2 203.427C1204.26 203.79 1205.61 203.669 1206.06 203.305C1206.66 202.941 1205.76 202.577 1204.11 202.699C1202.45 202.699 1202 203.063 1203.2 203.427Z" fill="#FD1C74" fill-opacity="0.2"/>
<path d="M1325.51 203.426C1326.86 203.669 1328.96 203.669 1330.01 203.426C1330.91 203.063 1329.86 202.82 1327.31 202.82C1324.91 202.82 1324.01 203.063 1325.51 203.426Z" fill="#FD1C74" fill-opacity="0.2"/>
<path d="M1509.33 203.426C1511.13 203.669 1513.84 203.669 1515.34 203.426C1516.69 203.063 1515.19 202.82 1511.89 202.941C1508.58 202.941 1507.38 203.184 1509.33 203.426Z" fill="#FD1C74" fill-opacity="0.2"/>
<path d="M1790.7 203.426C1792.95 203.669 1796.55 203.669 1798.95 203.426C1801.21 203.184 1799.25 202.941 1794.75 202.941C1790.25 202.941 1788.3 203.184 1790.7 203.426Z" fill="#FD1C74" fill-opacity="0.2"/>
<path d="M94.0906 204.64C96.7918 204.882 101.594 204.882 104.595 204.64C107.746 204.397 105.645 204.154 99.793 204.154C94.0906 204.154 91.5396 204.397 94.0906 204.64Z" fill="#FD1C74" fill-opacity="0.2"/>
<path d="M388.364 204.64C390.165 204.882 392.866 204.882 394.367 204.64C395.717 204.276 394.217 204.033 390.915 204.154C387.614 204.154 386.414 204.397 388.364 204.64Z" fill="#FD1C74" fill-opacity="0.2"/>
<path d="M579.695 204.64C581.045 204.882 583.146 204.882 584.196 204.64C585.097 204.276 584.046 204.033 581.495 204.033C579.094 204.033 578.194 204.276 579.695 204.64Z" fill="#FD1C74" fill-opacity="0.2"/>
<path d="M707.999 204.639C709.049 205.003 710.4 204.882 710.85 204.518C711.45 204.154 710.55 203.79 708.899 203.912C707.248 203.912 706.798 204.275 707.999 204.639Z" fill="#FD1C74" fill-opacity="0.2"/>
<path d="M792.034 204.639C793.084 205.003 794.435 204.882 794.885 204.518C795.485 204.154 794.585 203.79 792.934 203.912C791.283 203.912 790.833 204.275 792.034 204.639Z" fill="#FD1C74" fill-opacity="0.2"/>
<path d="M1126.67 204.639C1127.72 205.003 1129.07 204.882 1129.52 204.518C1130.12 204.154 1129.22 203.79 1127.57 203.912C1125.92 203.912 1125.47 204.275 1126.67 204.639Z" fill="#FD1C74" fill-opacity="0.2"/>
<path d="M1210.71 204.639C1211.76 205.003 1213.11 204.882 1213.56 204.518C1214.16 204.154 1213.26 203.79 1211.61 203.912C1209.96 203.912 1209.51 204.275 1210.71 204.639Z" fill="#FD1C74" fill-opacity="0.2"/>
<path d="M1337.51 204.64C1338.86 204.882 1340.96 204.882 1342.01 204.64C1342.92 204.276 1341.86 204.033 1339.31 204.033C1336.91 204.033 1336.01 204.276 1337.51 204.64Z" fill="#FD1C74" fill-opacity="0.2"/>
<path d="M1527.34 204.64C1529.14 204.882 1531.84 204.882 1533.34 204.64C1534.69 204.276 1533.19 204.033 1529.89 204.154C1526.59 204.154 1525.39 204.397 1527.34 204.64Z" fill="#FD1C74" fill-opacity="0.2"/>
<path d="M1815.31 204.64C1818.01 204.882 1822.81 204.882 1825.82 204.64C1828.97 204.397 1826.87 204.154 1821.01 204.154C1815.31 204.154 1812.76 204.397 1815.31 204.64Z" fill="#FD1C74" fill-opacity="0.2"/>
<path d="M62.7266 205.853C66.178 206.095 71.5803 206.095 74.7316 205.853C77.7329 205.61 74.8817 205.367 68.2789 205.367C61.6762 205.367 59.1251 205.61 62.7266 205.853Z" fill="#FD1C74" fill-opacity="0.2"/>
<path d="M365.106 205.853C367.357 206.095 370.658 206.095 372.609 205.853C374.41 205.61 372.609 205.367 368.407 205.367C364.355 205.367 362.705 205.61 365.106 205.853Z" fill="#FD1C74" fill-opacity="0.2"/>
<path d="M564.689 205.853C566.039 206.095 568.44 206.095 569.941 205.853C571.292 205.489 570.091 205.246 567.24 205.246C564.389 205.246 563.188 205.489 564.689 205.853Z" fill="#FD1C74" fill-opacity="0.2"/>
<path d="M697.494 205.853C698.394 206.095 700.195 206.095 701.245 205.853C702.146 205.489 701.395 205.246 699.295 205.246C697.194 205.246 696.443 205.489 697.494 205.853Z" fill="#FD1C74" fill-opacity="0.2"/>
<path d="M1219.71 205.853C1220.61 206.095 1222.41 206.095 1223.46 205.853C1224.36 205.489 1223.61 205.246 1221.51 205.246C1219.41 205.246 1218.66 205.489 1219.71 205.853Z" fill="#FD1C74" fill-opacity="0.2"/>
<path d="M1351.02 205.853C1352.37 206.095 1354.77 206.095 1356.27 205.853C1357.62 205.489 1356.42 205.246 1353.57 205.246C1350.72 205.246 1349.52 205.489 1351.02 205.853Z" fill="#FD1C74" fill-opacity="0.2"/>
<path d="M1549.1 205.853C1551.35 206.095 1554.65 206.095 1556.6 205.853C1558.4 205.61 1556.6 205.367 1552.4 205.367C1548.35 205.367 1546.7 205.61 1549.1 205.853Z" fill="#FD1C74" fill-opacity="0.2"/>
<path d="M1846.98 205.853C1850.43 206.095 1855.83 206.095 1858.98 205.853C1861.98 205.61 1859.13 205.367 1852.53 205.367C1845.92 205.367 1843.37 205.61 1846.98 205.853Z" fill="#FD1C74" fill-opacity="0.2"/>
<path d="M16.5082 207.43L-0.749023 208.157L21.0101 208.4C33.0151 208.521 43.8197 208.036 45.0202 207.43C47.4212 206.095 46.6709 206.095 16.5082 207.43Z" fill="#FD1C74" fill-opacity="0.2"/>
<path d="M346.497 206.702C345.896 207.187 279.118 207.672 197.934 207.793L50.2725 208.036L171.823 208.643C238.752 209.006 290.973 209.613 288.122 209.977C285.271 210.341 289.323 210.462 297.126 210.22C304.929 209.856 321.136 209.249 332.991 208.885C362.854 207.672 519.519 208.643 513.967 209.977C510.365 210.826 510.966 210.826 516.668 210.462C520.57 210.098 531.224 209.492 540.378 209.128C549.382 208.643 557.185 207.672 557.785 207.066C558.386 206.216 556.885 206.095 553.584 206.702C547.431 207.672 363.754 207.672 354.15 206.702C350.398 206.338 346.947 206.338 346.497 206.702Z" fill="#FD1C74" fill-opacity="0.2"/>
<path d="M1363.02 207.066C1363.62 207.672 1371.43 208.643 1380.43 209.128C1389.58 209.492 1400.24 210.098 1404.14 210.462C1409.84 210.826 1410.44 210.826 1406.84 209.977C1401.29 208.643 1557.95 207.672 1587.82 208.885C1599.67 209.249 1615.88 209.856 1623.68 210.22C1631.48 210.462 1635.54 210.341 1632.69 209.977C1629.83 209.613 1682.21 209.006 1748.98 208.643L1870.53 208.036L1723.47 207.551C1642.59 207.308 1573.71 207.066 1570.41 207.066C1567.11 207.066 1521.19 207.187 1468.37 207.308C1415.54 207.43 1370.08 207.187 1367.22 206.702C1363.92 206.095 1362.42 206.216 1363.02 207.066Z" fill="#FD1C74" fill-opacity="0.2"/>
<path d="M1875.79 207.43C1877.89 208.521 1922.16 209.249 1920.66 208.157C1920.36 207.915 1909.55 207.43 1896.8 207.066C1881.79 206.581 1874.29 206.702 1875.79 207.43Z" fill="#FD1C74" fill-opacity="0.2"/>
<path d="M249.856 212.282L239.352 213.01L248.355 213.131C253.307 213.131 262.161 212.767 267.864 212.282L278.368 211.433H269.364C264.412 211.433 255.708 211.797 249.856 212.282Z" fill="#FD1C74" fill-opacity="0.2"/>
<path d="M1652.94 212.282C1658.8 212.767 1667.5 213.131 1672.45 213.131H1681.46L1670.2 212.282C1664.05 211.797 1655.2 211.433 1650.69 211.433C1642.74 211.433 1642.74 211.433 1652.94 212.282Z" fill="#FD1C74" fill-opacity="0.2"/>
</g>
<defs>
<clipPath id="clip0_106_799">
<rect width="1920" height="606.876" fill="white"/>
</clipPath>
</defs>
</svg>
