<svg width="276" height="129" viewBox="0 0 276 129" fill="none" xmlns="http://www.w3.org/2000/svg">
<g opacity="0.5">
<path d="M166.553 69.7472C163.786 69.7646 161.391 70.481 159.382 71.5483C158.64 69.9633 157.899 68.5798 157.775 67.5458C157.635 66.3451 157.466 65.6113 157.635 64.1771C157.805 62.7429 158.579 60.7083 158.579 60.5415C158.564 60.3907 158.408 59.6569 156.817 59.6409C155.226 59.6249 153.85 59.9745 153.695 60.4254C153.419 61.2586 153.197 62.1114 153.03 62.9777C152.752 64.5453 149.847 70.0994 148.192 73.0186C147.651 71.8845 147.187 70.8839 147.095 70.0834C146.955 68.8827 146.786 68.1489 146.955 66.7147C147.124 65.2804 147.898 63.2458 147.898 63.0791C147.883 62.9283 147.728 62.1945 146.137 62.1785C144.545 62.1625 143.169 62.512 143.015 62.963C142.86 63.4139 142.69 64.4813 142.35 65.5152C142.025 66.5492 138.161 75.823 137.157 78.2405C136.647 79.4746 136.199 80.4592 135.874 81.1263C135.549 81.7934 135.859 81.177 135.828 81.2437L135.396 82.1283V82.1443C135.179 82.5619 134.947 82.9621 134.839 82.9621C134.763 82.9621 134.607 81.8441 134.87 80.3098C135.443 77.0905 136.833 72.07 136.817 71.8872C136.817 71.8045 137.081 70.9199 135.921 70.469C134.792 70.018 134.391 70.7692 134.298 70.7692C134.205 70.7692 134.127 71.036 134.127 71.036C134.127 71.036 135.38 65.3818 131.731 65.3818C129.444 65.3818 126.292 68.0675 124.73 70.5184L116.848 75.1719L116.677 74.9718C112.26 69.8806 104.084 66.2784 104.424 59.4408C104.548 56.9552 105.351 50.4005 120.125 42.4622C132.226 35.9582 141.917 37.742 143.602 41.7111C145.998 47.3813 138.425 57.9212 125.844 59.4421C121.053 60.0265 118.534 58.0239 117.9 57.2741C117.235 56.4896 117.142 56.4563 116.895 56.607C116.493 56.8405 116.74 57.5409 116.895 57.9585C117.266 59.0099 118.811 60.8777 121.438 61.8116C123.741 62.6294 129.366 63.0791 136.167 60.244C143.786 57.058 149.737 48.2191 147.99 40.8319C146.212 33.3099 134.653 30.8417 123.725 35.0283C117.22 37.5272 110.185 41.4283 105.117 46.5488C99.0772 52.6192 98.1191 57.9239 98.5197 60.1252C99.9266 67.9808 109.955 73.1013 113.973 76.8877L113.417 77.2212C111.408 78.2885 103.758 82.6086 101.842 87.1781C99.6781 92.3479 102.182 96.0676 103.851 96.5679C109.012 98.1195 114.297 95.3338 117.157 90.7469C120 86.1601 119.66 80.2071 118.347 77.488L118.3 77.388L119.877 76.3873C120.896 75.7363 121.902 75.1359 122.782 74.6196C122.287 76.0712 121.931 77.7882 121.746 80.2898C121.529 83.2249 122.642 87.0273 124.111 88.5296C124.76 89.1806 125.533 89.1967 126.012 89.1967C127.712 89.1967 128.485 87.6784 129.335 85.8612C130.386 83.6425 131.313 81.0743 131.313 81.0743C131.313 81.0743 130.154 88.0293 133.322 88.0293C134.482 88.0293 135.64 86.4109 136.166 85.5771V85.5931C136.166 85.5931 136.197 85.5424 136.259 85.4263C136.382 85.2262 136.444 85.1088 136.444 85.1088V85.0754C136.908 84.2082 137.944 82.223 139.489 78.9383C141.483 74.7023 143.399 69.399 143.399 69.399C143.399 69.399 143.585 70.6998 144.157 72.8345C144.497 74.1019 145.239 75.4868 145.811 76.837L145.07 77.9376L145.084 77.955C144.689 78.5206 144.282 79.0767 143.863 79.6227C142.287 81.6573 140.401 83.9761 140.154 84.6431C139.86 85.4276 139.922 86.0107 140.494 86.4776C140.912 86.8112 141.654 86.8779 142.441 86.8112C143.863 86.7111 144.852 86.3269 145.347 86.0934C146.239 85.7501 147.082 85.2727 147.85 84.6752C149.395 83.4411 150.339 81.6893 150.246 79.3545C150.199 78.0697 149.813 76.8023 149.334 75.6015L149.751 74.9344C152.193 71.0814 154.078 66.8454 154.078 66.8454C154.078 66.8454 154.264 68.1462 154.836 70.2809C155.131 71.3656 155.718 72.549 156.243 73.7163C153.956 75.7349 152.518 78.0697 152.024 79.604C151.111 82.4391 151.822 83.7239 153.167 84.0241C153.771 84.1575 154.636 83.8573 155.285 83.5571C156.089 83.273 157.063 82.79 157.959 82.0722C159.505 80.8381 160.988 79.1197 160.911 76.8023C160.864 75.7349 160.602 74.6836 160.246 73.683C162.193 72.8158 164.713 72.3155 167.911 72.7317C174.789 73.5989 176.149 78.2352 175.885 80.1697C175.622 82.1042 174.185 83.1716 173.706 83.5051C173.226 83.8226 173.072 83.9387 173.119 84.1722C173.18 84.5231 173.397 84.5057 173.815 84.439C174.387 84.339 177.431 82.854 177.554 79.2851C177.74 74.6983 173.706 69.6952 166.551 69.7459L166.553 69.7472ZM113.511 89.0459C111.239 91.7316 108.04 92.7482 106.68 91.881C105.212 90.9631 105.784 87.0113 108.582 84.1588C110.282 82.4244 112.492 80.8234 113.945 79.8388L115.352 78.9209C115.444 78.8542 115.506 78.8209 115.506 78.8209C115.615 78.7542 115.739 78.6701 115.862 78.5874C116.898 82.6566 115.909 86.2255 113.513 89.0446L113.511 89.0459ZM130.127 76.8543C129.338 78.9396 127.669 84.2923 126.665 83.9921C125.8 83.7413 125.274 79.6894 126.494 75.6856C127.113 73.667 128.427 71.2655 129.199 70.3316C130.452 68.8306 131.812 68.3303 132.152 68.9467C132.553 69.7472 130.621 75.5522 130.127 76.8543ZM143.835 83.9254C143.495 84.1095 143.186 84.2429 143.046 84.1428C142.937 84.0761 143.186 83.8253 143.186 83.8253C143.186 83.8253 144.901 81.8401 145.581 80.9235L146.927 79.0717V79.2718C146.927 81.6733 144.794 83.2743 143.836 83.9254H143.835ZM154.405 81.3237C154.158 81.1236 154.188 80.5059 155.023 78.5714C155.348 77.8042 156.09 76.5194 157.372 75.3027C157.526 75.803 157.619 76.2873 157.604 76.7369C157.588 79.7388 155.61 80.8568 154.405 81.3237Z" fill="white"/>
</g>
</svg>
