<svg width="276" height="129" viewBox="0 0 276 129" fill="none" xmlns="http://www.w3.org/2000/svg">
<g opacity="0.5">
<path fill-rule="evenodd" clip-rule="evenodd" d="M109.048 34.4009H122.865L87.9783 94.6119L52.8623 34.4009H66.9927L87.9783 70.6491L109.048 34.4009Z" fill="white"/>
<path fill-rule="evenodd" clip-rule="evenodd" d="M95.9926 34.3884H109.133L87.961 70.7122L66.959 34.3884H79.8939L87.961 48.3725L95.9926 34.3884Z" fill="#AAAAAA"/>
<path fill-rule="evenodd" clip-rule="evenodd" d="M131.109 46.2756C131.109 45.8314 131.356 45.4613 131.848 45.1651C132.34 44.869 132.855 44.7209 133.392 44.7209C134.138 44.7209 134.601 45.0023 134.78 45.5649L142.658 71.9495L150.491 45.5649C150.7 45.0023 151.148 44.7209 151.834 44.7209C152.401 44.7209 152.931 44.8838 153.423 45.2096C153.916 45.5353 154.162 45.9054 154.162 46.32C154.162 46.3496 154.155 46.3941 154.139 46.4533C154.124 46.5125 154.117 46.5717 154.117 46.631L145.03 76.1694C144.702 77.0282 143.911 77.4576 142.658 77.4576C141.405 77.4576 140.644 77.0282 140.375 76.1694L131.199 46.631C131.14 46.4533 131.109 46.3348 131.109 46.2756ZM154.515 69.0177V57.4691C154.515 57.1137 154.701 56.8028 155.074 56.5363C155.447 56.2698 155.887 56.1365 156.395 56.1365C156.872 56.1365 157.297 56.2772 157.67 56.5585C158.043 56.8398 158.23 57.1434 158.23 57.4691V69.0176C158.23 70.3502 158.737 71.5495 159.752 72.6155C160.766 73.6816 161.975 74.2146 163.377 74.2146C164.75 74.2146 165.944 73.689 166.958 72.6378C167.973 71.5865 168.48 70.3798 168.48 69.0176V57.424C168.48 57.0982 168.667 56.8021 169.04 56.5356C169.413 56.2691 169.853 56.1359 170.36 56.1359C170.898 56.1359 171.338 56.2617 171.681 56.5134C172.024 56.7651 172.196 57.0687 172.196 57.424V69.0177C172.196 71.2978 171.323 73.2892 169.577 74.9919C167.831 76.6947 165.765 77.546 163.378 77.546C160.96 77.546 158.879 76.6947 157.133 74.9919C155.388 73.2892 154.515 71.2978 154.515 69.0177ZM175.233 68.9288V64.2649C175.233 61.9847 176.106 60.0155 177.852 58.3572C179.598 56.6989 181.694 55.8698 184.141 55.8698C186.469 55.8698 188.483 56.6471 190.184 58.2018C191.885 59.7564 192.735 61.7034 192.735 64.0428C192.735 64.9015 192.631 65.59 192.422 66.1083C192.213 66.6266 191.892 66.9966 191.46 67.2188C191.027 67.4409 190.624 67.5815 190.251 67.6408C189.878 67.7 189.378 67.7296 188.751 67.7296H178.948V69.0622C178.948 70.6908 179.538 71.9938 180.717 72.971C181.895 73.9483 183.425 74.4368 185.305 74.4368C186.289 74.4368 187.147 74.2888 187.878 73.9927C188.61 73.6965 189.199 73.4078 189.647 73.1265C190.094 72.8452 190.452 72.7046 190.721 72.7046C191.139 72.7046 191.497 72.8896 191.795 73.2598C192.094 73.6299 192.243 74.0075 192.243 74.3924C192.243 75.0735 191.564 75.7694 190.206 76.4801C188.848 77.1908 187.17 77.5461 185.17 77.5461C182.246 77.5461 179.859 76.754 178.008 75.1697C176.158 73.5855 175.233 71.5051 175.233 68.9288ZM178.949 65.2421H187.23C188.005 65.2421 188.528 65.1459 188.796 64.9534C189.065 64.7609 189.199 64.3833 189.199 63.8207C189.199 62.4882 188.707 61.3185 187.722 60.3117C186.737 59.3048 185.529 58.8014 184.096 58.8014C182.694 58.8014 181.485 59.2678 180.471 60.2005C179.456 61.1333 178.949 62.2808 178.949 63.643L178.949 65.2421ZM194.61 75.1473C194.61 74.4958 194.834 73.9406 195.281 73.4816C195.729 73.0226 196.281 72.7932 196.938 72.7932C197.564 72.7932 198.101 73.0227 198.549 73.4816C198.997 73.9406 199.22 74.4959 199.22 75.1473C199.22 75.7692 198.997 76.3096 198.549 76.7686C198.101 77.2276 197.564 77.4571 196.938 77.4571C196.281 77.4571 195.729 77.2276 195.281 76.7686C194.834 76.3096 194.61 75.7692 194.61 75.1473ZM197.917 85.7635C197.917 85.2897 198.066 84.8973 198.364 84.5864C198.663 84.2755 199.021 84.12 199.439 84.12C200.602 84.12 201.363 83.6906 201.722 82.8319C202.08 81.9732 202.259 80.685 202.259 78.9675V57.4243C202.259 57.0394 202.43 56.7285 202.773 56.4916C203.117 56.2547 203.557 56.1362 204.094 56.1362C204.631 56.1362 205.079 56.2547 205.437 56.4916C205.795 56.7285 205.974 57.0394 205.974 57.4243V78.9675C205.974 81.5438 205.467 83.587 204.452 85.0972C203.437 86.6075 201.901 87.3626 199.842 87.3626C198.558 87.3626 197.917 86.8295 197.917 85.7635ZM201.766 48.2297C201.766 47.667 201.99 47.1785 202.438 46.7638C202.885 46.3493 203.437 46.142 204.094 46.142C204.721 46.142 205.258 46.3493 205.705 46.7638C206.153 47.1784 206.377 47.667 206.377 48.2297C206.377 48.7923 206.153 49.2883 205.705 49.7177C205.258 50.1471 204.721 50.3618 204.094 50.3618C203.467 50.3618 202.923 50.1471 202.46 49.7177C201.997 49.2883 201.766 48.7923 201.766 48.2297ZM208.743 74.1698C208.743 73.7849 208.87 73.4073 209.124 73.0372C209.378 72.667 209.683 72.482 210.042 72.482C210.28 72.482 210.623 72.6596 211.071 73.015C211.519 73.3703 212.16 73.7183 212.996 74.0588C213.831 74.3993 214.816 74.5696 215.95 74.5696C217.442 74.5696 218.524 74.3031 219.195 73.7701C219.867 73.2371 220.202 72.5708 220.202 71.7712C220.202 70.794 219.829 70.0167 219.083 69.4392C218.337 68.8618 217.427 68.425 216.353 68.1289C215.279 67.8328 214.204 67.507 213.13 67.1517C212.056 66.7963 211.146 66.204 210.399 65.3749C209.653 64.5458 209.28 63.4501 209.28 62.0879C209.28 60.4001 209.885 58.9416 211.093 57.7127C212.302 56.4838 214.145 55.8694 216.621 55.8694C218.203 55.8694 219.65 56.1137 220.963 56.6023C222.276 57.0909 222.933 57.6461 222.933 58.2679C222.933 58.6233 222.791 59.0231 222.508 59.4672C222.224 59.9114 221.873 60.1335 221.456 60.1335C221.336 60.1335 220.762 59.9188 219.732 59.4894C218.703 59.0601 217.681 58.8454 216.666 58.8454C215.293 58.8454 214.271 59.1637 213.6 59.8004C212.928 60.4371 212.593 61.1552 212.593 61.9547C212.593 62.7838 212.966 63.4354 213.712 63.9091C214.458 64.3829 215.375 64.7531 216.465 65.0196C217.554 65.2861 218.636 65.6118 219.71 65.9968C220.784 66.3818 221.694 67.0406 222.44 67.9734C223.186 68.9062 223.559 70.1129 223.559 71.5936C223.559 73.4295 222.903 74.8805 221.59 75.9465C220.277 77.0126 218.442 77.5456 216.084 77.5456C214.055 77.5456 212.324 77.1829 210.892 76.4573C209.46 75.7318 208.743 74.9693 208.743 74.1698Z" fill="white"/>
</g>
</svg>
