<svg width="275" height="129" viewBox="0 0 275 129" fill="none" xmlns="http://www.w3.org/2000/svg">
<g opacity="0.5">
<path d="M36.5793 72.6006C36.5793 70.8585 35.9862 69.6023 34.8 68.8619C33.6321 68.1215 31.925 67.7508 29.6777 67.7508V61.2664C30.7917 61.2664 31.7805 61.186 32.6432 61.0225C33.5242 60.8425 34.2608 60.5618 34.8539 60.1824C35.447 59.7953 35.887 59.2794 36.1749 58.6649C36.4801 58.0503 36.6149 57.3099 36.5793 56.4437V47.8271C36.5793 46.4915 36.7497 45.3524 37.0915 44.4136C37.4333 43.4458 38.0543 42.6792 38.9247 42.0831C39.823 41.4695 41.0362 41.0185 42.5642 40.7281C44.0922 40.4378 46.0313 40.3042 48.3864 40.3042V46.4015C47.7266 46.4157 47.0688 46.4791 46.4184 46.5912C45.8436 46.7006 45.3593 46.898 44.9356 47.1874C44.5505 47.4584 44.2347 47.8378 44.019 48.3256C43.8033 48.8133 43.6955 49.4453 43.6955 50.2225V58.3232C43.5877 61.7106 41.4849 63.7063 37.389 64.3383V64.6634C39.4552 64.9702 41.0477 65.6313 42.1328 66.6146C43.2179 67.5979 43.7504 68.9538 43.6965 70.6504V78.7511C43.6965 79.5283 43.8043 80.1603 44.02 80.6481C44.2357 81.1359 44.5399 81.5153 44.9366 81.7862C45.3506 82.0766 45.8445 82.274 46.4193 82.3824C47.0124 82.4918 47.6681 82.5537 48.3874 82.5721V88.6956C46.0333 88.6956 44.0932 88.5504 42.5652 88.262C41.0372 87.9736 39.825 87.5216 38.9257 86.907C38.0447 86.3108 37.4333 85.5327 37.0925 84.5765C36.7516 83.6203 36.5802 82.4724 36.5802 81.1359V72.5996M237.849 81.1359C237.849 82.4715 237.679 83.6193 237.337 84.5765C236.995 85.5337 236.374 86.3108 235.477 86.907C234.596 87.5206 233.392 87.9716 231.866 88.262C230.34 88.5523 228.406 88.6956 226.042 88.6956V82.5721C226.761 82.5508 227.407 82.4899 227.983 82.3824C228.559 82.275 229.042 82.0756 229.439 81.7862C229.853 81.5153 230.167 81.1359 230.383 80.6481C230.617 80.1603 230.733 79.5283 230.733 78.7511V70.6504C230.679 68.9529 231.2 67.6066 232.297 66.6146C233.393 65.6226 234.966 64.9712 237.015 64.6634V64.3383C232.935 63.7063 230.852 61.7009 230.734 58.3232V50.2225C230.734 49.4463 230.618 48.8133 230.384 48.3256C230.187 47.8611 229.859 47.4652 229.44 47.1874C229.055 46.899 228.559 46.6996 227.984 46.5912C227.343 46.4764 226.694 46.413 226.043 46.4015V40.3042C228.397 40.3042 230.337 40.4494 231.865 40.7378C233.393 41.0262 234.597 41.4782 235.476 42.0927C236.374 42.6889 236.994 43.4651 237.336 44.4233C237.678 45.3621 237.848 46.5002 237.848 47.8368V56.4534C237.829 57.3205 237.964 58.06 238.253 58.6745C238.542 59.2891 238.981 59.7943 239.574 60.1921C240.167 60.5715 240.895 60.8502 241.757 61.0322C242.638 61.1948 243.635 61.2761 244.75 61.2761V67.7605C242.504 67.7605 240.788 68.1302 239.602 68.8716C238.434 69.6119 237.849 70.8585 237.849 72.6103V81.1465" fill="white"/>
<path d="M59.9162 82.8143C59.3038 82.8143 58.7608 82.7727 58.3121 82.6865C57.8558 82.6139 57.4591 82.5123 57.123 82.3787V79.482C57.5554 79.5958 57.9947 79.6805 58.4383 79.7356C58.9393 79.8108 59.4453 79.8473 59.9518 79.845C60.4024 79.8447 60.8508 79.7838 61.2853 79.664C61.7362 79.5581 62.1561 79.3473 62.511 79.0485C62.8836 78.7465 63.185 78.3303 63.4122 77.7903C63.6394 77.2502 63.755 76.5824 63.755 75.7617V49.282H67.1249V75.4075C67.1249 76.6657 66.9448 77.7738 66.5857 78.7039C66.2372 79.633 65.7451 80.4005 65.1078 81.0044C64.4819 81.62 63.7261 82.0729 62.8374 82.3633C61.9709 82.6652 60.7635 82.8162 59.6938 82.8162M83.8732 73.017H83.7288C83.3321 73.5589 82.9364 74.0312 82.5397 74.43C82.1537 74.8088 81.7172 75.132 81.2428 75.3901C80.7739 75.6436 80.2511 75.8304 79.6753 75.9514C79.0995 76.0724 78.4236 76.1324 77.6755 76.1324C76.8475 76.1324 76.084 76.0104 75.3869 75.7704C74.7098 75.5526 74.0885 75.1878 73.5671 74.7019C73.0626 74.218 72.6659 73.5909 72.3781 72.8631C72.0892 72.1149 71.9448 71.2333 71.9448 70.219C71.9448 68.2388 72.6351 66.7174 74.0168 65.6547C75.41 64.592 77.5244 64.0123 80.3589 63.9155L83.6739 63.7878V62.5296C83.6739 61.7205 83.5834 61.044 83.4043 60.501C83.2358 59.959 82.9836 59.5332 82.6476 59.1974C82.3231 58.8586 81.9158 58.6167 81.4219 58.4715C80.9405 58.3263 80.3888 58.2547 79.7639 58.2547C78.8156 58.2466 77.8723 58.3934 76.9707 58.6892C76.1177 58.9796 75.2954 59.328 74.502 59.7393L73.3486 57.2578C74.2373 56.7739 75.228 56.3645 76.3218 56.0258C77.4371 55.6845 78.5971 55.5135 79.7629 55.5186C80.9886 55.5186 82.0448 55.6464 82.9345 55.899C83.8357 56.141 84.5742 56.5329 85.1509 57.0759C85.7286 57.6082 86.1782 58.2895 86.4661 59.1228C86.754 59.9561 86.8994 60.9646 86.8994 62.1473V75.7675H84.5328L83.8732 73.017ZM78.5218 73.4602C79.2536 73.4602 79.9333 73.3441 80.5582 73.1157C81.1831 72.8873 81.7136 72.5418 82.1796 72.083C82.636 71.6117 82.9903 71.0261 83.2426 70.3264C83.5064 69.6141 83.6393 68.7808 83.6393 67.8265V66.0331L81.0627 66.1609C79.9815 66.2093 79.0745 66.3302 78.3418 66.5228C77.6091 66.7154 77.0208 66.9874 76.576 67.3377C76.1555 67.6599 75.8314 68.0922 75.6391 68.5872C75.4466 69.0711 75.3503 69.6199 75.3503 70.2354C75.3503 71.3465 75.6391 72.1711 76.2149 72.6802C76.7926 73.1999 77.5629 73.4593 78.5209 73.4593M89.6511 55.8835H93.0384L96.6239 66.9487L97.0928 68.4972L97.632 70.4174L98.1182 72.2562L98.4244 73.5783H98.5496L98.8558 72.2562L99.342 70.4174L99.8812 68.4972L100.35 66.9487L103.936 55.8825H107.323L100.566 75.7695H96.4025L89.6511 55.8835ZM120.723 73.017H120.579C120.182 73.5589 119.787 74.0312 119.39 74.43C119.004 74.8088 118.567 75.132 118.093 75.3901C117.624 75.6436 117.101 75.8304 116.526 75.9514C115.95 76.0724 115.274 76.1324 114.526 76.1324C113.698 76.1324 112.934 76.0104 112.237 75.7704C111.56 75.5526 110.939 75.1878 110.417 74.7019C109.913 74.218 109.516 73.5909 109.228 72.8631C108.939 72.1149 108.795 71.2333 108.795 70.219C108.795 68.2388 109.485 66.7174 110.867 65.6547C112.26 64.592 114.375 64.0123 117.209 63.9155L120.524 63.7878V62.5296C120.524 61.7205 120.434 61.044 120.255 60.501C120.086 59.959 119.834 59.5332 119.498 59.1974C119.173 58.8586 118.766 58.6167 118.272 58.4715C117.791 58.3263 117.239 58.2547 116.614 58.2547C115.666 58.2466 114.722 58.3934 113.821 58.6892C112.968 58.9796 112.146 59.328 111.352 59.7393L110.199 57.2578C111.087 56.7739 112.078 56.3645 113.172 56.0258C114.287 55.6845 115.447 55.5135 116.613 55.5186C117.839 55.5186 118.895 55.6464 119.785 55.899C120.686 56.141 121.424 56.5329 122.001 57.0759C122.579 57.6082 123.028 58.2895 123.316 59.1228C123.604 59.9561 123.75 60.9646 123.75 62.1473V75.7675H121.391L120.723 73.017ZM115.372 73.4689C116.104 73.4689 116.784 73.3528 117.408 73.1244C118.033 72.896 118.564 72.5505 119.03 72.0917C119.486 71.6204 119.841 71.0348 120.093 70.3351C120.357 69.6228 120.489 68.7895 120.489 67.8352V66.0418L117.913 66.1696C116.832 66.218 115.925 66.3389 115.192 66.5315C114.459 66.7241 113.871 66.9961 113.426 67.3465C113.006 67.6686 112.682 68.1009 112.489 68.5959C112.297 69.0798 112.201 69.6286 112.201 70.2441C112.201 71.3552 112.489 72.1798 113.065 72.6889C113.643 73.2086 114.413 73.468 115.371 73.468M143.961 68.6869C143.961 69.8483 143.751 70.9081 143.331 71.8381C142.922 72.7556 142.333 73.5347 141.565 74.1745C140.796 74.8142 139.859 75.3039 138.753 75.6417C137.648 75.9679 136.404 76.1305 135.023 76.1305C133.69 76.1305 132.441 76.0211 131.276 75.8043C130.123 75.5982 129.156 75.2913 128.375 74.88V71.6572L129.761 72.2379L131.419 72.7266L133.204 73.0886C133.81 73.1729 134.421 73.2156 135.033 73.2163C136.955 73.2163 138.372 72.8544 139.285 72.1295C140.209 71.4036 140.671 70.3661 140.671 69.0131C140.671 68.3607 140.581 67.7936 140.402 67.3097C140.233 66.8258 139.927 66.3864 139.483 65.9876C139.05 65.5773 138.468 65.1843 137.736 64.8107C137.004 64.4236 136.078 64.0075 134.961 63.5526C133.902 63.1296 132.961 62.6815 132.169 62.1763C131.398 61.6692 130.739 61.1117 130.224 60.4729C129.716 59.8379 129.331 59.1132 129.088 58.336C128.847 57.5395 128.727 56.6326 128.727 55.6193C128.727 54.5566 128.92 53.6091 129.305 52.7758C129.69 51.9425 130.229 51.2418 130.927 50.6756C131.624 50.0949 132.452 49.6555 133.413 49.3536C134.373 49.0516 135.454 48.9006 136.619 48.9006C138.049 48.9006 139.334 49.039 140.475 49.3168C141.616 49.582 142.632 49.9265 143.52 50.3495L142.313 53.1755C141.543 52.8252 140.643 52.5232 139.646 52.2696C138.647 52.0023 137.618 51.8683 136.584 51.8709C135.119 51.8709 133.984 52.2154 133.179 52.9036C132.374 53.581 131.971 54.4976 131.971 55.6561C131.971 56.3335 132.062 56.9433 132.241 57.4495C132.421 57.945 132.722 58.3979 133.142 58.8083C133.563 59.207 134.105 59.5874 134.8 59.9503C135.635 60.3642 136.489 60.7388 137.358 61.073C138.451 61.5085 139.406 61.944 140.223 62.4134C141.051 62.8722 141.742 63.3813 142.295 63.962C142.844 64.5372 143.268 65.222 143.538 65.9721C143.826 66.7329 143.979 67.6658 143.979 68.7053M156.171 76.1111C154.958 76.1111 153.822 75.9233 152.765 75.5498C151.719 75.1702 150.775 74.5501 150.009 73.739C149.238 72.9066 148.616 71.8498 148.179 70.5693C147.735 69.2773 147.513 67.7258 147.513 65.9238C147.513 64.0268 147.741 62.4222 148.187 61.1059C148.643 59.778 149.268 58.7028 150.061 57.883C150.866 57.0507 151.794 56.4458 152.872 56.0732C153.951 55.7006 155.089 55.5119 156.313 55.5119C157.235 55.5103 158.153 55.6136 159.052 55.8196C159.953 56.0258 160.703 56.2784 161.305 56.5803L160.342 59.3696C160.042 59.2393 159.735 59.1243 159.423 59.0251C159.082 58.9011 158.733 58.7983 158.379 58.7173C158.029 58.6227 157.674 58.55 157.316 58.4995C156.967 58.4395 156.637 58.4086 156.324 58.4086C154.437 58.4086 153.063 59.0183 152.198 60.2474C151.334 61.4543 150.901 63.3387 150.901 65.8976C150.901 68.4459 151.335 70.3109 152.198 71.4946C153.065 72.656 154.413 73.2512 156.18 73.2512C157.143 73.2512 158.029 73.1418 158.811 72.925C159.603 72.6956 160.324 72.4411 160.973 72.1285V75.0629C160.313 75.4173 159.611 75.685 158.883 75.8595C158.151 76.0404 157.201 76.1305 156.132 76.1305M174.038 55.5196L175.209 55.5728C175.584 55.5901 175.957 55.6328 176.326 55.7006L175.892 58.7434L174.848 58.5983C174.499 58.5499 174.169 58.5257 173.856 58.5257C173.099 58.5257 172.409 58.6825 171.784 58.997C171.158 59.299 170.629 59.7393 170.163 60.3191C169.718 60.8862 169.37 61.5753 169.118 62.3834C168.877 63.18 168.758 64.0675 168.758 65.045V75.7666H165.478V55.8845H168.146L168.542 59.5235H168.687L169.642 58.0205C169.972 57.5542 170.36 57.1315 170.795 56.7623C171.225 56.3898 171.711 56.0901 172.237 55.8748C172.766 55.6454 173.421 55.5303 174.095 55.5303" fill="#AAAAAA"/>
<path d="M59.9162 82.8143C59.3038 82.8143 58.7608 82.7727 58.3121 82.6865C57.8558 82.6139 57.4591 82.5123 57.123 82.3788V79.482C57.5554 79.5958 57.9947 79.6805 58.4383 79.7356C58.9393 79.8108 59.4453 79.8473 59.9518 79.845C60.4024 79.8447 60.8508 79.7838 61.2853 79.664C61.7362 79.5581 62.1561 79.3473 62.511 79.0485C62.8836 78.7465 63.185 78.3303 63.4122 77.7903C63.6394 77.2502 63.755 76.5824 63.755 75.7617V49.282H67.1249V75.4075C67.1249 76.6657 66.9448 77.7738 66.5857 78.7039C66.2372 79.633 65.7451 80.4005 65.1078 81.0044C64.4819 81.62 63.7261 82.0729 62.8374 82.3633C61.9709 82.6652 60.7635 82.8162 59.6938 82.8162M78.5218 73.4602C79.2536 73.4602 79.9333 73.3441 80.5582 73.1157C81.1831 72.8873 81.7136 72.5418 82.1796 72.083C82.636 71.6117 82.9903 71.0261 83.2426 70.3264C83.5064 69.6141 83.6393 68.7808 83.6393 67.8265V66.0331L81.0627 66.1609C79.9815 66.2093 79.0745 66.3302 78.3418 66.5228C77.6091 66.7154 77.0208 66.9874 76.576 67.3377C76.1555 67.6599 75.8314 68.0922 75.6391 68.5872C75.4466 69.0711 75.3503 69.6199 75.3503 70.2354C75.3503 71.3465 75.6391 72.1711 76.2149 72.6802C76.7926 73.1999 77.5629 73.4593 78.5209 73.4593M115.372 73.4689C116.104 73.4689 116.784 73.3528 117.408 73.1244C118.033 72.896 118.564 72.5505 119.03 72.0917C119.486 71.6204 119.841 71.0348 120.093 70.3351C120.357 69.6228 120.489 68.7895 120.489 67.8352V66.0418L117.913 66.1696C116.832 66.218 115.925 66.3389 115.192 66.5315C114.459 66.7241 113.871 66.9961 113.426 67.3465C113.006 67.6686 112.682 68.1009 112.489 68.5959C112.297 69.0798 112.201 69.6286 112.201 70.2441C112.201 71.3552 112.489 72.1798 113.065 72.6889C113.643 73.2086 114.413 73.468 115.371 73.468M143.961 68.6869C143.961 69.8483 143.751 70.9081 143.331 71.8381C142.922 72.7556 142.333 73.5347 141.565 74.1745C140.796 74.8142 139.859 75.3039 138.753 75.6417C137.648 75.9679 136.404 76.1305 135.023 76.1305C133.69 76.1305 132.441 76.0211 131.276 75.8043C130.123 75.5982 129.156 75.2914 128.375 74.88V71.6572L129.761 72.2379L131.419 72.7266L133.204 73.0886C133.81 73.1729 134.421 73.2156 135.033 73.2163C136.955 73.2163 138.372 72.8544 139.285 72.1295C140.209 71.4036 140.671 70.3661 140.671 69.0131C140.671 68.3607 140.581 67.7936 140.402 67.3097C140.233 66.8258 139.927 66.3864 139.483 65.9876C139.05 65.5773 138.468 65.1843 137.736 64.8107C137.004 64.4236 136.078 64.0075 134.961 63.5526C133.902 63.1296 132.961 62.6815 132.169 62.1763C131.398 61.6692 130.739 61.1117 130.224 60.4729C129.716 59.8379 129.331 59.1132 129.088 58.336C128.847 57.5395 128.727 56.6326 128.727 55.6193C128.727 54.5566 128.92 53.6091 129.305 52.7758C129.69 51.9425 130.229 51.2418 130.927 50.6756C131.624 50.0949 132.452 49.6555 133.413 49.3536C134.373 49.0516 135.454 48.9006 136.619 48.9006C138.049 48.9006 139.334 49.039 140.475 49.3168C141.616 49.582 142.632 49.9265 143.52 50.3495L142.313 53.1755C141.543 52.8252 140.643 52.5232 139.646 52.2696C138.647 52.0023 137.618 51.8683 136.584 51.8709C135.119 51.8709 133.984 52.2154 133.179 52.9036C132.374 53.581 131.971 54.4976 131.971 55.6561C131.971 56.3335 132.062 56.9433 132.241 57.4495C132.421 57.945 132.722 58.3979 133.142 58.8083C133.563 59.207 134.105 59.5874 134.8 59.9503C135.635 60.3642 136.489 60.7388 137.358 61.073C138.451 61.5085 139.406 61.944 140.223 62.4134C141.051 62.8722 141.742 63.3813 142.295 63.962C142.844 64.5372 143.268 65.222 143.538 65.9721C143.826 66.7329 143.979 67.6658 143.979 68.7053M156.171 76.1111C154.958 76.1111 153.822 75.9233 152.765 75.5498C151.719 75.1702 150.775 74.5501 150.009 73.739C149.238 72.9066 148.616 71.8498 148.179 70.5693C147.735 69.2773 147.513 67.7258 147.513 65.9238C147.513 64.0268 147.741 62.4222 148.187 61.1059C148.643 59.778 149.268 58.7028 150.061 57.883C150.866 57.0507 151.794 56.4458 152.872 56.0732C153.951 55.7006 155.089 55.5119 156.313 55.5119C157.235 55.5103 158.153 55.6136 159.052 55.8196C159.953 56.0258 160.703 56.2784 161.305 56.5803L160.342 59.3696C160.042 59.2393 159.735 59.1243 159.423 59.0251C159.082 58.9011 158.733 58.7983 158.379 58.7173C158.029 58.6227 157.674 58.55 157.316 58.4995C156.967 58.4395 156.637 58.4086 156.324 58.4086C154.437 58.4086 153.063 59.0183 152.198 60.2474C151.334 61.4543 150.901 63.3387 150.901 65.8976C150.901 68.4459 151.335 70.3109 152.198 71.4946C153.065 72.656 154.413 73.2512 156.18 73.2512C157.143 73.2512 158.029 73.1418 158.811 72.925C159.603 72.6956 160.324 72.4411 160.973 72.1285V75.0629C160.313 75.4173 159.611 75.685 158.883 75.8595C158.151 76.0404 157.201 76.1305 156.132 76.1305M174.038 55.5196L175.209 55.5728C175.584 55.5901 175.957 55.6328 176.326 55.7006L175.892 58.7434L174.848 58.5983C174.499 58.5499 174.169 58.5257 173.856 58.5257C173.099 58.5257 172.409 58.6825 171.784 58.997C171.158 59.299 170.629 59.7393 170.163 60.3191C169.718 60.8862 169.37 61.5753 169.118 62.3834C168.877 63.18 168.758 64.0675 168.758 65.045V75.7666H165.478V55.8845H168.146L168.542 59.5235H168.687L169.642 58.0205C169.972 57.5542 170.36 57.1315 170.795 56.7623C171.225 56.3898 171.711 56.0901 172.237 55.8748C172.766 55.6454 173.421 55.5303 174.095 55.5303M83.8732 73.017H83.7288C83.3321 73.5589 82.9364 74.0312 82.5397 74.43C82.1537 74.8088 81.7172 75.132 81.2428 75.3901C80.7739 75.6436 80.2511 75.8304 79.6753 75.9514C79.0995 76.0724 78.4236 76.1324 77.6755 76.1324C76.8475 76.1324 76.084 76.0104 75.3869 75.7704C74.7098 75.5526 74.0885 75.1878 73.5671 74.7019C73.0626 74.218 72.6659 73.5909 72.3781 72.8631C72.0892 72.1149 71.9448 71.2333 71.9448 70.219C71.9448 68.2388 72.6351 66.7174 74.0168 65.6547C75.41 64.592 77.5244 64.0123 80.3589 63.9155L83.6739 63.7878V62.5296C83.6739 61.7205 83.5834 61.044 83.4043 60.501C83.2358 59.959 82.9836 59.5332 82.6476 59.1974C82.3231 58.8586 81.9158 58.6167 81.4219 58.4715C80.9405 58.3263 80.3888 58.2547 79.7639 58.2547C78.8156 58.2466 77.8723 58.3934 76.9707 58.6892C76.1177 58.9796 75.2954 59.328 74.502 59.7393L73.3486 57.2578C74.2373 56.7739 75.228 56.3645 76.3218 56.0258C77.4371 55.6845 78.5971 55.5135 79.7629 55.5186C80.9886 55.5186 82.0448 55.6464 82.9345 55.899C83.8357 56.141 84.5742 56.5329 85.1509 57.0759C85.7286 57.6082 86.1782 58.2895 86.4661 59.1228C86.754 59.9561 86.8994 60.9646 86.8994 62.1473V75.7675H84.5328L83.8732 73.017ZM89.6511 55.8835H93.0384L96.6239 66.9487L97.0928 68.4972L97.632 70.4174L98.1182 72.2562L98.4244 73.5783H98.5496L98.8558 72.2562L99.342 70.4174L99.8812 68.4972L100.35 66.9487L103.936 55.8825H107.323L100.566 75.7695H96.4025L89.6511 55.8835ZM120.723 73.017H120.579C120.182 73.5589 119.787 74.0312 119.39 74.43C119.004 74.8088 118.567 75.132 118.093 75.3901C117.624 75.6436 117.101 75.8304 116.526 75.9514C115.95 76.0724 115.274 76.1324 114.526 76.1324C113.698 76.1324 112.934 76.0104 112.237 75.7704C111.56 75.5526 110.939 75.1878 110.417 74.7019C109.913 74.218 109.516 73.5909 109.228 72.8631C108.939 72.1149 108.795 71.2333 108.795 70.219C108.795 68.2388 109.485 66.7174 110.867 65.6547C112.26 64.592 114.375 64.0123 117.209 63.9155L120.524 63.7878V62.5296C120.524 61.7205 120.434 61.044 120.255 60.501C120.086 59.959 119.834 59.5332 119.498 59.1974C119.173 58.8586 118.766 58.6167 118.272 58.4715C117.791 58.3263 117.239 58.2547 116.614 58.2547C115.666 58.2466 114.722 58.3934 113.821 58.6892C112.968 58.9796 112.146 59.328 111.352 59.7393L110.199 57.2578C111.087 56.7739 112.078 56.3645 113.172 56.0258C114.287 55.6845 115.447 55.5135 116.613 55.5186C117.839 55.5186 118.895 55.6464 119.785 55.899C120.686 56.141 121.424 56.5329 122.001 57.0759C122.579 57.6082 123.028 58.2895 123.316 59.1228C123.604 59.9561 123.75 60.9646 123.75 62.1473V75.7675H121.391L120.723 73.017Z" stroke="#AAAAAA" stroke-width="2.129"/>
<path d="M183.256 75.7694H179.976V55.8824H183.255V75.7694M180.265 48.918C180.637 48.5918 181.093 48.4292 181.634 48.4292C181.898 48.4292 182.144 48.4708 182.372 48.557C182.603 48.6241 182.814 48.7486 182.985 48.9189C183.165 49.0883 183.302 49.3061 183.399 49.5712C183.506 49.8248 183.56 50.1326 183.56 50.4945C183.56 51.1952 183.368 51.7198 182.983 52.0702C182.61 52.4089 182.159 52.5773 181.631 52.5773C181.092 52.5773 180.62 52.3228 180.247 51.985C179.887 51.6463 179.718 51.1217 179.718 50.451C179.72 49.7687 179.901 49.2441 180.261 48.918H180.265Z" fill="#AAAAAA"/>
<path d="M183.256 75.7694H179.976V55.8824H183.255V75.7694M180.265 48.918C180.637 48.5918 181.093 48.4292 181.634 48.4292C181.898 48.4292 182.144 48.4708 182.372 48.557C182.603 48.6241 182.814 48.7486 182.985 48.9189C183.165 49.0883 183.302 49.3061 183.399 49.5712C183.506 49.8248 183.56 50.1326 183.56 50.4945C183.56 51.1952 183.368 51.7198 182.983 52.0702C182.61 52.4089 182.159 52.5773 181.631 52.5773C181.092 52.5773 180.62 52.3228 180.247 51.985C179.887 51.6463 179.718 51.1217 179.718 50.451C179.72 49.7687 179.901 49.2441 180.261 48.918H180.265Z" stroke="#AAAAAA" stroke-width="2.129" stroke-linecap="square"/>
<path d="M198.294 76.131C197.586 76.131 196.943 76.0536 196.367 75.8958C195.791 75.7381 195.267 75.5339 194.799 75.2803C194.343 75.0151 193.935 74.7064 193.574 74.356C193.232 74.014 192.919 73.6447 192.637 73.2517H192.42L192.528 74.4286L192.6 75.3964L192.636 76.1755V84.6702H189.356V55.8821H192.023L192.492 58.563H192.637C192.912 58.1421 193.225 57.7481 193.574 57.3861C193.927 57.008 194.334 56.6844 194.781 56.426C195.25 56.1483 195.773 55.9305 196.348 55.7737C196.926 55.6044 197.574 55.5202 198.293 55.5202C199.423 55.5202 200.45 55.7379 201.374 56.1725C202.311 56.6169 203.122 57.2892 203.734 58.1285C204.395 58.9859 204.905 60.0641 205.275 61.3339C205.645 62.6037 205.814 64.099 205.814 65.7898C205.814 67.4932 205.634 68.9894 205.275 70.2805C204.915 71.56 204.403 72.6352 203.734 73.5034C203.085 74.3725 202.29 75.0306 201.375 75.4777C200.451 75.9132 199.196 76.13 198.067 76.13M197.663 58.2543C196.75 58.2543 195.975 58.3927 195.338 58.6704C194.721 58.9423 194.191 59.3812 193.807 59.9383C193.421 60.5054 193.133 61.212 192.942 62.0675C192.762 62.9124 192.66 63.9083 192.636 65.0562V65.7985C192.636 67.0179 192.713 68.1048 192.87 69.0581C193.038 69.9998 193.315 70.7973 193.698 71.4487C194.077 72.0726 194.619 72.5801 195.265 72.9159C195.914 73.242 196.725 73.4046 197.697 73.4046C199.319 73.4046 200.509 72.7465 201.265 71.4303C202.033 70.114 202.418 68.2248 202.418 65.7617C202.418 63.2502 202.033 61.3726 201.265 60.129C200.508 58.8853 199.306 58.2639 197.661 58.2639M216.756 73.4327C216.972 73.4327 217.212 73.4134 217.478 73.3959L218.27 73.305L218.944 73.1772L219.43 73.0494V75.5493C219.274 75.6219 219.076 75.6945 218.835 75.7671C218.595 75.8397 218.331 75.8987 218.043 75.9481C217.745 76.0095 217.444 76.0521 217.142 76.0758C216.837 76.1117 216.53 76.1295 216.223 76.1291C215.522 76.135 214.824 76.0372 214.151 75.8387C213.524 75.6514 212.954 75.309 212.493 74.8428C212.037 74.3715 211.677 73.7395 211.412 72.9411C211.148 72.1319 211.015 71.1177 211.015 69.8982V58.3617H208.223V56.8945L211.015 55.4814L212.421 51.3159H214.313V55.8802H219.286V58.3617H214.313V69.8982C214.313 71.0596 214.499 71.95 214.871 72.5423C215.256 73.123 215.88 73.4298 216.745 73.4298" fill="#AAAAAA"/>
<path d="M198.294 76.131C197.586 76.131 196.943 76.0536 196.367 75.8958C195.791 75.7381 195.267 75.5339 194.799 75.2803C194.343 75.0151 193.935 74.7064 193.574 74.356C193.232 74.014 192.919 73.6447 192.637 73.2517H192.42L192.528 74.4286L192.6 75.3964L192.636 76.1755V84.6702H189.356V55.8821H192.023L192.492 58.563H192.637C192.912 58.1421 193.225 57.7481 193.574 57.3861C193.927 57.008 194.334 56.6844 194.781 56.426C195.25 56.1483 195.773 55.9305 196.348 55.7737C196.926 55.6044 197.574 55.5202 198.293 55.5202C199.423 55.5202 200.45 55.7379 201.374 56.1725C202.311 56.6169 203.122 57.2892 203.734 58.1285C204.395 58.9859 204.905 60.0641 205.275 61.3339C205.645 62.6037 205.814 64.099 205.814 65.7898C205.814 67.4932 205.634 68.9894 205.275 70.2805C204.915 71.56 204.403 72.6352 203.734 73.5034C203.085 74.3725 202.29 75.0306 201.375 75.4777C200.451 75.9132 199.196 76.13 198.067 76.13M197.663 58.2543C196.75 58.2543 195.975 58.3927 195.338 58.6704C194.721 58.9423 194.191 59.3812 193.807 59.9383C193.421 60.5054 193.133 61.212 192.942 62.0675C192.762 62.9124 192.66 63.9083 192.636 65.0562V65.7985C192.636 67.0179 192.713 68.1048 192.87 69.0581C193.038 69.9998 193.315 70.7973 193.698 71.4487C194.077 72.0726 194.619 72.5801 195.265 72.9159C195.914 73.242 196.725 73.4046 197.697 73.4046C199.319 73.4046 200.509 72.7465 201.265 71.4303C202.033 70.114 202.418 68.2248 202.418 65.7617C202.418 63.2502 202.033 61.3726 201.265 60.129C200.508 58.8853 199.306 58.2639 197.661 58.2639M216.756 73.4327C216.972 73.4327 217.212 73.4134 217.478 73.3959L218.27 73.305L218.944 73.1772L219.43 73.0494V75.5493C219.274 75.6219 219.076 75.6945 218.835 75.7671C218.595 75.8397 218.331 75.8987 218.043 75.9481C217.745 76.0095 217.444 76.0521 217.142 76.0758C216.837 76.1117 216.53 76.1295 216.223 76.1291C215.522 76.135 214.824 76.0372 214.151 75.8387C213.524 75.6514 212.954 75.309 212.493 74.8428C212.037 74.3715 211.677 73.7395 211.412 72.9411C211.148 72.1319 211.015 71.1177 211.015 69.8982V58.3617H208.223V56.8945L211.015 55.4814L212.421 51.3159H214.313V55.8802H219.286V58.3617H214.313V69.8982C214.313 71.0596 214.499 71.95 214.871 72.5423C215.256 73.123 215.88 73.4298 216.745 73.4298" stroke="#AAAAAA" stroke-width="2.129"/>
</g>
</svg>
