<svg width="276" height="129" viewBox="0 0 276 129" fill="none" xmlns="http://www.w3.org/2000/svg">
<g opacity="0.5">
<path fill-rule="evenodd" clip-rule="evenodd" d="M28.8375 55.0798C31.8177 43.1303 39.2758 37.1555 51.2043 37.1555C69.1008 37.1555 71.3334 50.5923 80.2791 52.8361C86.2446 54.331 91.4625 52.0924 95.9353 46.1177C92.9551 58.0646 85.497 64.0394 73.5711 64.0394C55.6746 64.0394 53.442 50.6026 44.4963 48.3588C38.5308 46.8639 33.3129 49.1025 28.8401 55.0772L28.8375 55.0798ZM6.4707 81.9637C9.45601 70.0142 16.9065 64.0394 28.8375 64.0394C46.734 64.0394 48.9666 77.4762 57.9123 79.72C63.8778 81.2149 69.0957 78.9763 73.5685 73.0015C70.5883 84.9511 63.1302 90.9258 51.2017 90.9258C33.3052 90.9258 31.0726 77.489 22.1269 75.2453C16.1614 73.7503 10.9435 75.9889 6.4707 81.9637Z" fill="white"/>
<path fill-rule="evenodd" clip-rule="evenodd" d="M112.219 57.8288H106.363V54.3157H122.16V57.8288H116.307V73.7632H112.219V57.8288ZM129.808 71.9656C129.266 72.5838 128.626 73.108 127.913 73.517C127.217 73.917 126.313 74.1171 125.205 74.1171C124.593 74.12 123.983 74.0372 123.394 73.8709C122.821 73.7068 122.319 73.4529 121.894 73.1093C121.469 72.7657 121.126 72.3272 120.875 71.7887C120.624 71.2502 120.491 70.6143 120.491 69.8655C120.491 68.8859 120.709 68.0859 121.146 67.4679C121.585 66.8474 122.176 66.3502 122.862 66.0242C123.569 65.678 124.362 65.4344 125.243 65.2883C126.132 65.1417 127.029 65.0509 127.929 65.0164L129.752 64.9344V64.2266C129.752 63.3548 129.514 62.7547 129.03 62.4316C128.546 62.1085 127.98 61.9444 127.33 61.9444C125.819 61.9444 124.959 62.5163 124.744 63.6625L121.262 63.3368C121.513 61.8496 122.168 60.7726 123.22 60.1058C124.273 59.4391 125.691 59.1109 127.47 59.1109C128.559 59.1109 129.485 59.2391 130.248 59.5058C131.011 59.7725 131.626 60.1469 132.087 60.6341C132.559 61.1408 132.905 61.7524 133.095 62.4188C133.305 63.1163 133.408 63.9061 133.408 64.778V73.7658H129.808V71.9708V71.9656ZM129.726 67.4166L128.036 67.4987C127.237 67.532 126.592 67.6166 126.103 67.7448C125.614 67.873 125.233 68.032 124.977 68.2218C124.721 68.4115 124.534 68.6321 124.447 68.8885C124.36 69.1449 124.311 69.427 124.311 69.7347C124.311 70.2065 124.475 70.5809 124.797 70.8502C125.12 71.1194 125.578 71.2605 126.154 71.2605C127.138 71.2605 127.936 71.0348 128.551 70.5784C128.896 70.3219 129.181 69.9988 129.396 69.6116C129.611 69.2244 129.721 68.7346 129.721 68.1551V67.4192L129.726 67.4166ZM136.501 59.5443H140.315V73.7606H136.501V59.5443ZM136.449 54.3131H140.367V57.7441H136.449V54.3131ZM143.577 54.3131H147.392V73.7606H143.577V54.3131ZM149.1 59.5443H153.237L155.227 68.968L157.946 59.6802H161.269L163.829 68.9962L165.819 59.5725H169.795L165.655 73.7888H161.95L159.415 64.419L156.855 73.7888H153.235L149.097 59.5725L149.1 59.5443ZM171.528 59.5443H175.343V73.7606H171.528V59.5443ZM171.477 54.3131H175.394V57.7441H171.477V54.3131ZM178.579 59.5443H182.284V61.5059C182.847 60.6726 183.513 60.0623 184.281 59.6802C185.049 59.2981 185.856 59.1083 186.688 59.1083C188.306 59.1083 189.504 59.5314 190.285 60.3751C191.066 61.2187 191.457 62.5496 191.457 64.3651V73.7606H187.645V64.8857C187.645 63.86 187.456 63.2061 187.072 62.8419C186.688 62.4778 186.183 62.2983 185.548 62.2983C185.062 62.2983 184.637 62.3752 184.281 62.5163C183.925 62.6573 183.595 62.8701 183.288 63.142C183.032 63.3984 182.819 63.701 182.647 64.0548C182.476 64.4159 182.388 64.8114 182.391 65.2113V73.7632H178.551V59.5468L178.579 59.5443ZM204.387 71.8836C203.909 72.6136 203.253 73.2095 202.481 73.6147C201.709 74.0199 200.847 74.2211 199.976 74.1991C197.979 74.1991 196.494 73.5273 195.508 72.1836C194.522 70.8399 194.038 68.9782 194.038 66.6012C194.027 65.5735 194.17 64.55 194.463 63.5651C194.745 62.647 195.147 61.8573 195.674 61.1957C196.192 60.5409 196.854 60.0144 197.607 59.6571C198.375 59.2981 199.233 59.1135 200.193 59.1135C200.9 59.1135 201.601 59.2417 202.3 59.4981C202.999 59.7545 203.657 60.2674 204.277 60.97V54.3234H208.092V73.7709H204.39V71.8913L204.387 71.8836ZM204.305 66.4909C204.305 65.5831 204.228 64.8575 204.049 64.3113C203.87 63.7651 203.644 63.324 203.301 62.9778C202.974 62.6522 202.615 62.465 202.226 62.3368C201.849 62.238 201.461 62.188 201.071 62.188C200.663 62.1862 200.26 62.2701 199.886 62.4342C199.512 62.5983 199.19 62.8522 198.905 63.1958C198.621 63.5394 198.401 63.9959 198.24 64.5549C198.078 65.1139 197.994 65.7857 197.994 66.5704C197.994 67.4217 198.071 68.1346 198.25 68.709C198.429 69.2834 198.616 69.745 198.89 70.0988C199.164 70.4527 199.479 70.7066 199.842 70.8604C200.206 71.0143 200.598 71.1168 201.015 71.1168C201.921 71.1168 202.666 70.8527 203.248 70.3271C203.614 69.9558 203.889 69.5034 204.049 69.0065C204.218 68.4885 204.305 67.8218 204.305 67.0063V66.5191V66.4909ZM234.112 67.0345C234.02 68.0705 233.779 69.027 233.39 69.9065C233.012 70.7683 232.466 71.5459 231.785 72.1939C231.062 72.8651 230.209 73.3793 229.278 73.7042C228.29 74.0632 227.143 74.2478 225.835 74.2478C224.365 74.2478 223.07 74.0017 221.953 73.5119C220.872 73.0478 219.912 72.3396 219.15 71.4425C218.394 70.5527 217.829 69.4757 217.447 68.2115C217.066 66.9473 216.876 65.5549 216.876 64.0318C216.876 62.4522 217.081 61.0367 217.501 59.7827C217.921 58.5288 218.52 57.4595 219.298 56.5697C220.077 55.6799 221.024 54.9978 222.13 54.526C223.236 54.0542 224.493 53.8182 225.894 53.8182C227.128 53.8182 228.205 53.9721 229.119 54.2798C230.034 54.5875 230.809 55.0337 231.437 55.6132C232.064 56.1928 232.563 56.8954 232.947 57.7108C233.346 58.5874 233.629 59.5123 233.789 60.4623L229.757 60.9803C229.557 59.8366 229.168 58.9365 228.605 58.2826C228.042 57.6288 227.125 57.3031 225.891 57.3031C224.329 57.3031 223.144 57.8877 222.34 59.0596C221.536 60.2315 221.124 61.8855 221.124 64.0292C221.124 66.1909 221.559 67.8756 222.419 69.0141C222.809 69.5698 223.33 70.0199 223.936 70.3243C224.542 70.6286 225.213 70.7776 225.891 70.7579C227.146 70.7579 228.067 70.4348 228.656 69.7911C229.245 69.1475 229.611 68.2269 229.757 67.0268L234.112 67.0345ZM240.044 67.4192C240.134 68.6167 240.521 69.4885 241.196 70.0347C241.872 70.5809 242.879 70.8553 244.205 70.8553C244.84 70.8553 245.377 70.7861 245.813 70.6502C246.248 70.5142 246.601 70.3322 246.875 70.1065C247.137 69.8948 247.338 69.618 247.459 69.3039C247.58 68.9819 247.64 68.6401 247.636 68.2961C247.636 67.7833 247.449 67.3089 247.067 66.8653C246.686 66.4217 245.987 66.096 244.968 65.8986L242.433 65.437C241.409 65.2575 240.554 65.019 239.791 64.7292C239.028 64.4395 238.388 64.0625 237.871 63.601C237.353 63.1394 236.959 62.5701 236.688 61.8983C236.416 61.2264 236.278 60.4264 236.278 59.5007C236.261 58.6501 236.453 57.8084 236.836 57.0492C237.206 56.3447 237.738 55.7383 238.388 55.2799C239.053 54.8081 239.847 54.4491 240.769 54.2029C241.691 53.9567 242.715 53.8362 243.821 53.8362C245.237 53.8362 246.417 54.0003 247.362 54.3234C248.306 54.6465 249.069 55.0799 249.651 55.6184C250.232 56.1569 250.662 56.7723 250.943 57.4852C251.225 58.198 251.412 58.9288 251.507 59.6904L247.666 60.1776C247.467 59.1058 247.083 58.3314 246.514 57.8621C245.946 57.3928 245.075 57.1544 243.913 57.1544C243.222 57.1544 242.658 57.2133 242.21 57.3339C241.762 57.4544 241.406 57.6057 241.135 57.7954C240.885 57.9592 240.686 58.1903 240.561 58.4621C240.454 58.7186 240.398 58.9801 240.398 59.2519C240.398 59.9776 240.602 60.5238 241.012 60.8854C241.422 61.247 242.113 61.5316 243.094 61.7316L245.761 62.2496C247.869 62.6676 249.412 63.3445 250.396 64.2754C251.379 65.2062 251.865 66.5832 251.865 68.3192C251.865 69.1706 251.706 69.9604 251.389 70.6784C251.064 71.4039 250.579 72.0464 249.971 72.558C249.279 73.1305 248.478 73.5571 247.618 73.8119C246.675 74.1119 245.569 74.2607 244.294 74.2607C241.642 74.2607 239.614 73.6965 238.209 72.558C236.803 71.4194 236.043 69.7373 235.904 67.4243H240.016L240.044 67.4192ZM257.71 67.4192C257.8 68.6167 258.187 69.4885 258.863 70.0347C259.538 70.5809 260.552 70.8553 261.871 70.8553C262.511 70.8553 263.043 70.7861 263.484 70.6502C263.924 70.5142 264.272 70.3322 264.546 70.1065C264.808 69.8948 265.009 69.618 265.13 69.3039C265.251 68.9819 265.311 68.6401 265.307 68.2961C265.299 67.765 265.096 67.2554 264.736 66.8653C264.352 66.4217 263.655 66.096 262.636 65.8986L260.102 65.437C259.078 65.2575 258.222 65.019 257.459 64.7292C256.697 64.4395 256.056 64.0625 255.539 63.601C255.022 63.1394 254.628 62.5701 254.354 61.8983C254.08 61.2264 253.944 60.4264 253.944 59.5007C253.927 58.6501 254.119 57.8084 254.502 57.0492C254.876 56.3415 255.393 55.7491 256.054 55.2542C256.714 54.7593 257.513 54.4234 258.435 54.1772C259.357 53.9311 260.381 53.8105 261.487 53.8105C262.903 53.8105 264.083 53.9747 265.028 54.2978C265.972 54.6209 266.733 55.0542 267.317 55.5927C267.9 56.1312 268.331 56.7466 268.61 57.4595C268.889 58.1724 269.078 58.9032 269.173 59.6648L265.332 60.152C265.133 59.0801 264.749 58.3057 264.18 57.8365C263.612 57.3672 262.741 57.1287 261.579 57.1287C260.888 57.1287 260.324 57.1877 259.876 57.3082C259.428 57.4287 259.072 57.58 258.801 57.7698C258.551 57.9336 258.352 58.1646 258.228 58.4365C258.117 58.6929 258.064 58.9545 258.064 59.2263C258.064 59.952 258.269 60.4982 258.678 60.8597C259.088 61.2213 259.779 61.5059 260.762 61.706L263.456 62.2445C265.563 62.6624 267.107 63.3394 268.09 64.2702C269.073 65.2011 269.559 66.5781 269.559 68.3141C269.568 69.1245 269.406 69.9276 269.083 70.6707C268.759 71.3966 268.274 72.0393 267.665 72.5503C267.04 73.0888 266.257 73.5042 265.309 73.8068C264.362 74.1094 263.261 74.2555 261.989 74.2555C259.336 74.2555 257.308 73.6914 255.9 72.5528C254.492 71.4143 253.734 69.7321 253.627 67.4192H257.71Z" fill="white"/>
</g>
</svg>
