<svg width="275" height="129" viewBox="0 0 275 129" fill="none" xmlns="http://www.w3.org/2000/svg">
<g opacity="0.5">
<path d="M94.6834 79.3298C94.6834 79.0243 94.8131 78.8941 95.1172 78.8941H99.9288C100.103 78.8941 100.188 79.0243 100.188 79.3298V79.5452C100.188 79.8507 100.103 79.9809 99.9288 79.9809H95.9V83.156H99.495C99.6695 83.156 99.7542 83.2862 99.7542 83.5917V83.8071C99.7542 84.1126 99.6695 84.2428 99.495 84.2428H95.9V87.6383H99.9288C100.103 87.6383 100.188 87.7685 100.188 88.074V88.2894C100.188 88.5948 100.103 88.7251 99.9288 88.7251H95.0773C94.7732 88.7251 94.6436 88.5948 94.6436 88.2894V79.3248L94.6834 79.3298ZM102.008 88.3845L102.053 83.4665V83.3063C102.038 82.2846 101.878 81.7688 101.878 81.7287C101.878 81.4683 102.442 81.4232 102.616 81.4232C102.965 81.4232 103.005 81.9891 103.095 82.3347C103.658 81.6837 104.481 81.288 105.264 81.288C106.695 81.288 107.517 82.1143 107.517 83.5517V88.3845C107.517 88.5598 107.343 88.69 106.954 88.69H106.909C106.52 88.69 106.346 88.5598 106.346 88.3845V83.6819C106.346 82.8556 105.827 82.3347 104.915 82.3347C104.306 82.3347 103.613 82.7253 103.18 83.2913V88.3845C103.18 88.5598 103.005 88.69 102.616 88.69H102.571C102.182 88.685 102.008 88.5548 102.008 88.3845ZM110.589 88.079C110.07 87.8637 109.721 87.5131 109.721 86.9472C109.721 86.251 110.285 85.9456 110.763 85.7703C109.941 85.3796 109.507 84.5934 109.507 83.6819C109.507 82.3748 110.459 81.288 112.279 81.288C112.628 81.288 112.927 81.3331 113.187 81.3731H115.57C115.744 81.3731 115.829 81.5034 115.829 81.8089V81.9841C115.829 82.2896 115.744 82.4198 115.57 82.4198H114.618C114.922 82.8105 115.096 83.2462 115.096 83.727C115.096 85.0341 114.144 86.1208 112.324 86.1208H112.194C111.845 86.1208 111.023 86.206 111.023 86.6868C111.023 87.7735 115.705 86.6868 115.705 89.4262C115.705 90.6432 114.493 91.6047 112.239 91.6047H112.085C110.345 91.5847 109.118 91.174 109.118 89.7768C109.028 88.9504 109.676 88.3845 110.589 88.079ZM112.324 90.558C113.581 90.558 114.403 90.0773 114.403 89.4262C114.403 88.5999 112.932 88.5147 111.631 88.2944C111.068 88.5097 110.245 88.9905 110.245 89.6015C110.24 90.3827 111.197 90.558 112.324 90.558ZM113.84 83.6819C113.84 82.6152 113.172 82.2997 112.329 82.2896H112.279C111.412 82.2896 110.719 82.6402 110.719 83.6819C110.719 84.7687 111.412 85.0741 112.279 85.0741H112.374C113.197 85.0491 113.84 84.7286 113.84 83.6819ZM121.379 84.1176V83.4665C121.379 82.8555 120.99 82.2896 119.863 82.2896C118.606 82.2896 117.829 82.8555 117.694 82.8555C117.519 82.8555 117.215 82.3347 117.215 82.1594C117.215 81.8089 118.427 81.288 119.813 81.288C121.548 81.288 122.545 82.1143 122.545 83.4665V86.5565C122.545 87.6884 122.72 88.2543 122.72 88.2994C122.72 88.5598 122.156 88.6049 121.982 88.6049C121.633 88.6049 121.593 88.0389 121.503 87.6483C120.985 88.2142 120.202 88.695 119.165 88.695C117.824 88.695 116.782 88.044 116.782 86.6066C116.787 84.2929 119.299 84.1176 121.379 84.1176ZM119.21 87.6884C120.207 87.6884 120.815 87.2076 121.379 86.7318V85.0792H121.094C119.708 85.0842 118.043 85.1743 118.043 86.5165C118.043 87.2927 118.432 87.6884 119.21 87.6884ZM125.712 88.079C125.193 87.8637 124.844 87.5131 124.844 86.9472C124.844 86.251 125.407 85.9456 125.886 85.7703C125.063 85.3796 124.63 84.5934 124.63 83.6819C124.63 82.3748 125.582 81.288 127.402 81.288C127.751 81.288 128.05 81.3331 128.309 81.3731H130.693C130.867 81.3731 130.952 81.5034 130.952 81.8089V81.9841C130.952 82.2896 130.867 82.4198 130.693 82.4198H129.74C130.044 82.8105 130.219 83.2462 130.219 83.727C130.219 85.0341 129.267 86.1208 127.447 86.1208H127.317C126.968 86.1208 126.145 86.206 126.145 86.6868C126.145 87.7735 130.827 86.6868 130.827 89.4262C130.827 90.6432 129.616 91.6047 127.362 91.6047H127.207C125.467 91.5847 124.241 91.174 124.241 89.7768C124.151 88.9504 124.759 88.3845 125.712 88.079ZM127.402 90.558C128.658 90.558 129.481 90.0773 129.481 89.4262C129.481 88.5999 128.005 88.5147 126.709 88.2944C126.145 88.5097 125.323 88.9905 125.323 89.6015C125.323 90.3827 126.275 90.558 127.402 90.558ZM128.918 83.6819C128.918 82.6152 128.249 82.2997 127.407 82.2896H127.357C126.489 82.2896 125.796 82.6402 125.796 83.6819C125.796 84.7687 126.489 85.0741 127.357 85.0741H127.452C128.274 85.0491 128.918 84.7286 128.918 83.6819ZM132.428 79.3298V78.5035C132.428 78.3282 132.602 78.198 132.991 78.198H133.166C133.555 78.198 133.729 78.3282 133.729 78.5035V79.3298C133.729 79.5051 133.555 79.6353 133.166 79.6353H132.991C132.602 79.6353 132.428 79.5051 132.428 79.3298ZM132.473 81.6386C132.473 81.4633 132.647 81.3331 133.036 81.3331H133.081C133.47 81.3331 133.644 81.4633 133.644 81.6386V88.3394C133.644 88.5147 133.47 88.6449 133.081 88.6449H133.036C132.647 88.6449 132.473 88.5147 132.473 88.3394V81.6386ZM136.068 83.4665C136.068 82.3347 135.893 81.7688 135.893 81.7237C135.893 81.4633 136.456 81.4182 136.631 81.4182C136.98 81.4182 137.02 81.9841 137.11 82.3297C137.673 81.6786 138.496 81.283 139.279 81.283C140.71 81.283 141.532 82.1093 141.532 83.5467V88.3795C141.532 88.5548 141.358 88.685 140.969 88.685H140.924C140.535 88.685 140.36 88.5548 140.36 88.3795V83.6769C140.36 82.8505 139.842 82.3297 138.93 82.3297C138.321 82.3297 137.628 82.7203 137.194 83.2862V88.3795C137.194 88.5548 137.02 88.685 136.631 88.685H136.586C136.197 88.685 136.023 88.5548 136.023 88.3795L136.068 83.4665ZM144.604 88.079C144.085 87.8637 143.736 87.5131 143.736 86.9472C143.736 86.251 144.299 85.9456 144.778 85.7703C143.955 85.3796 143.522 84.5934 143.522 83.6819C143.522 82.3748 144.474 81.288 146.294 81.288C146.643 81.288 146.942 81.3331 147.201 81.3731H149.585C149.759 81.3731 149.844 81.5034 149.844 81.8089V81.9841C149.844 82.2896 149.759 82.4198 149.585 82.4198H148.587C148.892 82.8105 149.066 83.2462 149.066 83.727C149.066 85.0341 148.114 86.1208 146.294 86.1208H146.164C145.815 86.1208 144.993 86.206 144.993 86.6868C144.993 87.7735 149.674 86.6868 149.674 89.4262C149.674 90.6432 148.463 91.6047 146.209 91.6047H146.055C144.314 91.5847 143.088 91.174 143.088 89.7768C143.043 88.9504 143.696 88.3845 144.604 88.079ZM146.339 90.558C147.595 90.558 148.418 90.0773 148.418 89.4262C148.418 88.5999 146.947 88.5147 145.646 88.2944C145.082 88.5097 144.26 88.9905 144.26 89.6015C144.26 90.3827 145.167 90.558 146.339 90.558ZM147.854 83.6819C147.854 82.6152 147.186 82.2997 146.344 82.2896H146.294C145.426 82.2896 144.733 82.6402 144.733 83.6819C144.733 84.7687 145.426 85.0741 146.294 85.0741H146.389C147.211 85.0491 147.854 84.7286 147.854 83.6819ZM154.915 82.3748H154.222C154.047 82.3748 153.962 82.2446 153.962 81.9391V81.7638C153.962 81.4583 154.047 81.3281 154.222 81.3281H154.915L155.089 79.8507C155.089 79.6754 155.219 79.5452 155.523 79.5452H155.653C155.957 79.5452 156.086 79.6754 156.086 79.8507V81.3281H157.258C157.433 81.3281 157.517 81.4583 157.517 81.7638V81.9391C157.517 82.2446 157.433 82.3748 157.258 82.3748H156.086V86.6817C156.086 87.5081 156.435 87.7284 156.824 87.7284C157.213 87.7284 157.303 87.6433 157.433 87.6433C157.607 87.6433 157.737 88.1641 157.737 88.2944C157.737 88.66 157.163 88.7251 156.804 88.7301H156.74C156.057 88.7301 154.995 88.4346 154.965 86.8921L154.915 82.3748ZM159.467 78.5035C159.467 78.3282 159.641 78.198 160.03 78.198H160.075C160.464 78.198 160.639 78.3282 160.639 78.5035V82.2446C161.117 81.7638 161.85 81.288 162.763 81.288C163.67 81.288 164.972 81.6386 164.972 83.5517V88.3845C164.972 88.5598 164.797 88.69 164.408 88.69H164.363C163.974 88.69 163.8 88.5598 163.8 88.3845V83.6819C163.8 82.8556 163.321 82.3347 162.369 82.3347C161.327 82.3347 160.634 83.2913 160.634 83.2913V88.3845C160.634 88.5598 160.459 88.69 160.07 88.69H160.025C159.636 88.69 159.462 88.5598 159.462 88.3845L159.467 78.5035ZM169.997 81.288C171.902 81.288 172.859 82.5501 172.859 84.8989C172.859 85.0741 172.555 85.4648 172.381 85.4648H168.003C168.133 86.9872 168.781 87.6834 170.127 87.6834C171.339 87.6834 171.992 87.1175 172.161 87.1175C172.336 87.1175 172.64 87.6383 172.64 87.8136C172.64 88.1642 171.558 88.685 170.172 88.685C167.873 88.685 166.791 87.5081 166.791 85.0291C166.747 82.5951 167.873 81.288 169.997 81.288ZM171.598 84.4632C171.598 83.0258 171.035 82.2846 169.953 82.2846C168.741 82.2846 168.133 83.0258 168.003 84.4632H171.598ZM178.1 79.1996C178.1 79.0243 178.274 78.8941 178.663 78.8941H178.793C179.182 78.8941 179.356 79.0243 179.356 79.1996V88.3845C179.356 88.5598 179.182 88.69 178.793 88.69H178.663C178.274 88.69 178.1 88.5598 178.1 88.3845V79.1996ZM181.824 88.3845L181.869 83.4665V83.3063C181.854 82.2846 181.7 81.7688 181.7 81.7287C181.7 81.4683 182.263 81.4232 182.438 81.4232C182.787 81.4232 182.827 81.9891 182.916 82.3347C183.48 81.6837 184.302 81.288 185.085 81.288C186.516 81.288 187.339 82.1143 187.339 83.5517V88.3845C187.339 88.5598 187.164 88.69 186.775 88.69H186.731C186.342 88.69 186.167 88.5598 186.167 88.3845V83.6819C186.167 82.8556 185.649 82.3347 184.736 82.3347C184.128 82.3347 183.435 82.7253 183.001 83.2913V88.3845C183.001 88.5598 182.827 88.69 182.438 88.69H182.393C181.999 88.685 181.824 88.5548 181.824 88.3845ZM189.842 82.3748H189.149C188.974 82.3748 188.89 82.2446 188.89 81.9391V81.7638C188.89 81.4583 188.974 81.3281 189.149 81.3281H189.842L190.016 79.8507C190.016 79.6754 190.191 79.5452 190.45 79.5452H190.58C190.884 79.5452 191.014 79.6754 191.014 79.8507V81.3281H192.185C192.36 81.3281 192.445 81.4583 192.445 81.7638V81.9391C192.445 82.2446 192.36 82.3748 192.185 82.3748H191.014V86.6817C191.014 87.5081 191.363 87.7284 191.752 87.7284C192.14 87.7284 192.23 87.6433 192.36 87.6433C192.534 87.6433 192.664 88.1641 192.664 88.2944C192.664 88.66 192.091 88.7251 191.732 88.7301H191.667C190.984 88.7301 189.922 88.4346 189.892 86.8921L189.842 82.3748ZM197.077 81.288C198.981 81.288 199.939 82.5501 199.939 84.8989C199.939 85.0741 199.634 85.4648 199.46 85.4648H195.082C195.212 86.9872 195.86 87.6834 197.206 87.6834C198.418 87.6834 199.071 87.1175 199.241 87.1175C199.415 87.1175 199.719 87.6383 199.719 87.8136C199.719 88.1642 198.637 88.685 197.251 88.685C194.953 88.685 193.871 87.5081 193.871 85.0291C193.871 82.5951 194.958 81.288 197.077 81.288ZM198.682 84.4632C198.682 83.0258 198.119 82.2846 197.037 82.2846C195.825 82.2846 195.217 83.0258 195.087 84.4632H198.682ZM201.803 88.3394V83.4665V83.3063C201.788 82.2846 201.634 81.7688 201.634 81.7287C201.634 81.4683 202.197 81.4232 202.372 81.4232C202.721 81.4232 202.761 81.9891 202.85 82.3347C203.329 81.6837 203.893 81.288 204.456 81.288C204.975 81.288 205.279 81.5034 205.279 81.8089C205.279 82.0693 205.149 82.5501 205.019 82.5501C204.845 82.5501 204.715 82.4198 204.242 82.4198C203.504 82.4198 202.985 83.2462 202.985 83.2462V88.3394C202.985 88.5147 202.811 88.6449 202.422 88.6449H202.377C201.973 88.6449 201.803 88.5147 201.803 88.3394ZM206.784 83.4665C206.784 82.3347 206.61 81.7688 206.61 81.7237C206.61 81.4633 207.173 81.4182 207.348 81.4182C207.697 81.4182 207.737 81.9841 207.827 82.3297C208.39 81.6786 209.213 81.283 209.995 81.283C211.426 81.283 212.249 82.1093 212.249 83.5467V88.3795C212.249 88.5548 212.075 88.685 211.686 88.685H211.641C211.252 88.685 211.077 88.5548 211.077 88.3795V83.6769C211.077 82.8505 210.559 82.3297 209.646 82.3297C209.038 82.3297 208.345 82.7203 207.911 83.2862V88.3795C207.911 88.5548 207.737 88.685 207.348 88.685H207.303C206.914 88.685 206.74 88.5548 206.74 88.3795L206.784 83.4665ZM217.315 81.288C219.22 81.288 220.177 82.5501 220.177 84.8989C220.177 85.0741 219.873 85.4648 219.698 85.4648H215.321C215.45 86.9872 216.098 87.6834 217.445 87.6834C218.656 87.6834 219.309 87.1175 219.479 87.1175C219.653 87.1175 219.958 87.6383 219.958 87.8136C219.958 88.1642 218.876 88.685 217.489 88.685C215.191 88.685 214.109 87.5081 214.109 85.0291C214.064 82.5951 215.191 81.288 217.315 81.288ZM218.915 84.4632C218.915 83.0258 218.352 82.2846 217.27 82.2846C216.058 82.2846 215.45 83.0258 215.321 84.4632H218.915ZM222.256 82.3748H221.563C221.389 82.3748 221.304 82.2446 221.304 81.9391V81.7638C221.304 81.4583 221.389 81.3281 221.563 81.3281H222.256L222.431 79.8507C222.431 79.6754 222.56 79.5452 222.864 79.5452H222.994C223.298 79.5452 223.428 79.6754 223.428 79.8507V81.3281H224.6C224.774 81.3281 224.859 81.4583 224.859 81.7638V81.9391C224.859 82.2446 224.774 82.3748 224.6 82.3748H223.428V86.6817C223.428 87.5081 223.777 87.7284 224.166 87.7284C224.555 87.7284 224.644 87.6433 224.774 87.6433C224.949 87.6433 225.078 88.1641 225.078 88.2944C225.078 88.66 224.505 88.7251 224.146 88.7301H224.081C223.398 88.7301 222.336 88.4346 222.306 86.8921L222.256 82.3748Z" fill="#848484"/>
<path d="M105.603 43.8572C109.243 43.8572 112.623 45.1643 112.623 46.1659C112.623 46.7769 111.846 48.2994 111.367 48.2994C110.978 48.2994 109.198 46.6868 105.648 46.6868C99.1462 46.6868 97.0272 50.4729 97.0272 56.9133C97.0272 62.5725 98.7174 67.3603 105.259 67.3603H105.508C107.328 67.3402 109.073 67.1349 109.981 66.8845V59.4424H105.693C105.174 59.4424 104.955 59.0919 104.955 58.3557V57.7447C104.955 56.9634 105.169 56.6579 105.693 56.6579H112.15C112.928 56.6579 113.232 57.0085 113.232 57.7447V67.5355C113.232 69.6239 109.243 70.1898 105.04 70.1898C97.7152 70.1898 93.6865 66.0531 93.6865 57.2639C93.6915 48.0339 97.9346 43.8572 105.603 43.8572ZM117.046 69.2333V56.2623C117.046 53.2524 116.622 51.8151 116.612 51.6148V51.6097C116.612 50.9136 118.128 50.7383 118.607 50.7383C119.474 50.7383 119.689 52.2157 119.908 53.1773C121.165 51.3944 122.64 50.3928 124.156 50.3928C125.587 50.3928 126.28 51.0038 126.28 51.8301C126.28 52.5262 125.976 53.8333 125.542 53.8333C125.064 53.8333 124.764 53.4427 123.508 53.4427C121.603 53.4427 120.127 55.7064 120.127 55.7064V69.2433C120.127 69.7642 119.694 70.0697 118.657 70.0697H118.527C117.48 70.0596 117.046 69.7541 117.046 69.2333ZM136.327 50.3878C141.353 50.3878 143.911 53.7382 143.911 60.0083C143.911 60.4441 143.133 61.5308 142.699 61.5308H131.087C131.391 65.6224 133.121 67.4955 136.761 67.4955C139.967 67.4955 141.742 65.9279 142.136 65.9279C142.654 65.9279 143.437 67.3653 143.437 67.7559C143.437 68.6273 140.535 70.1047 136.806 70.1047C130.758 70.1047 127.851 67.0347 127.796 60.5542V60.3589C127.746 53.8684 130.693 50.3878 136.327 50.3878ZM140.62 58.9166C140.62 55.0453 139.144 53.0821 136.202 53.0821C132.996 53.0821 131.306 55.0403 131.047 58.9166H140.62ZM155.394 50.3878C160.42 50.3878 162.977 53.7382 162.977 60.0083C162.977 60.4441 162.2 61.5308 161.766 61.5308H150.153C150.458 65.6224 152.188 67.4955 155.832 67.4955C159.038 67.4955 160.813 65.9279 161.207 65.9279C161.726 65.9279 162.509 67.3653 162.509 67.7559C162.509 68.6273 159.607 70.1047 155.877 70.1047C149.769 70.1047 146.863 66.9696 146.863 60.3539C146.858 53.8684 149.759 50.3878 155.394 50.3878ZM159.727 58.9166C159.727 55.0453 158.256 53.0821 155.309 53.0821C152.103 53.0821 150.413 55.0403 150.153 58.9166H159.727ZM166.313 69.1432V56.2623V56.0319C166.293 53.1823 165.889 51.8101 165.879 51.6148V51.6097C165.879 50.9136 167.395 50.7383 167.874 50.7383C168.741 50.7383 168.956 52.2157 169.175 53.1773C170.736 51.4345 172.86 50.3928 174.894 50.3928C178.663 50.3928 180.872 52.6564 180.872 56.3574V69.1532C180.872 69.674 180.439 69.9795 179.396 69.9795H179.267C178.225 69.9795 177.791 69.674 177.791 69.1532V56.6179C177.791 54.3542 176.45 53.0471 174.021 53.0471C172.376 53.0471 170.596 54.0487 169.384 55.6162V69.1532C169.384 69.674 168.951 69.9795 167.909 69.9795H167.779C166.747 69.9695 166.313 69.669 166.313 69.1432Z" fill="#AAAAAA"/>
<path d="M187.459 63.7042C188.107 63.7042 189.927 65.402 192.874 65.402H192.978C194.519 65.382 196.339 64.8711 196.339 62.7026C196.339 58.3506 185.724 60.0483 185.724 51.3442C185.724 45.9054 190.141 43.7719 194.434 43.7719C198.333 43.7719 201.066 45.1191 201.066 46.3411C201.066 47.3427 199.939 49.5613 199.031 49.5613C198.553 49.5613 197.426 48.6498 194.958 48.6498C192.096 48.6498 191.532 49.997 191.532 50.8284C191.532 55.0502 202.148 53.3525 202.148 62.0165C202.148 68.1514 197.86 70.1998 193.826 70.1998C188.237 70.1998 185.205 68.1965 185.205 66.9345C185.205 65.8377 186.681 63.7042 187.459 63.7042ZM213.242 50.3426C219.09 50.3426 222.127 53.8683 222.127 60.2637C222.127 66.7041 219.095 70.2298 213.242 70.2298C207.388 70.2298 204.317 66.7041 204.317 60.2637C204.317 53.8232 207.393 50.3426 213.242 50.3426ZM216.622 60.3738V60.2637C216.622 56.5627 215.58 54.6496 213.242 54.6496C210.903 54.6496 209.816 56.5627 209.816 60.2637C209.816 63.9647 210.898 65.9228 213.242 65.9228C215.56 65.9228 216.602 64.0047 216.622 60.3738ZM233.954 50.3426H234.108C236.691 50.3776 240.061 51.244 240.061 52.9118C240.061 53.6079 238.72 55.7413 238.112 55.7413C237.982 55.7413 237.763 55.6111 237.464 55.4809L237.319 55.4058C236.671 55.0702 235.704 54.6546 234.258 54.6546C231.341 54.6546 230.124 56.4475 230.099 60.1585V60.2737C230.099 64.0598 231.226 65.9328 234.043 65.9328C235.778 65.9328 236.945 65.412 237.638 65.0614L237.753 65.0114C237.997 64.9112 238.172 64.8411 238.286 64.8411C239.109 64.8411 240.191 66.9295 240.191 67.6256C240.191 69.714 234.946 70.1948 233.779 70.1948C227.497 70.1948 224.505 66.9745 224.505 60.3588C224.51 53.8232 227.367 50.3426 233.954 50.3426ZM242.839 43.2912C242.839 42.5199 243.467 42.1293 244.968 42.1143H246.09C247.65 42.1143 248.298 42.5049 248.298 43.2912V57.9149L248.428 57.9599L252.89 51.2591C253.314 50.6681 254.022 50.568 255.059 50.5629H256.485C257.872 50.5629 258.565 50.7783 258.565 51.1289C258.565 51.2941 258.45 51.5345 258.255 51.815L253.105 59.1819L259.083 68.7124L259.233 69.0028C259.327 69.1931 259.387 69.3434 259.387 69.4936C259.387 69.8442 258.739 70.0595 257.308 70.0595H255.747H255.583C254.586 70.0445 253.868 69.8993 253.539 69.3634L248.428 60.8747L248.298 60.9197V68.8826C248.298 69.6639 247.65 70.0595 246.09 70.0595H245.047C243.487 70.0595 242.839 69.6689 242.839 68.8826V43.2912Z" fill="white"/>
<path d="M25.8294 59.9638C23.6206 61.0105 17.772 65.7081 16.6451 67.1003C15.4734 68.4926 15.1294 66.3191 16.341 62.7032C17.2933 59.7885 19.7215 55.8271 23.7951 52.4316C26.1784 50.4734 31.4237 47.6438 34.6298 45.9911C35.2779 45.6406 43.6844 42.0748 51.1834 40.2919C51.8316 40.1166 50.4056 41.3787 50.1862 42.0748C49.0593 45.3802 26.5723 59.5732 26.5723 59.5732L25.8294 59.9638Z" fill="white"/>
<path d="M57.5054 99.873C57.8943 102.222 57.5502 102.397 55.122 102.703C52.6938 103.008 50.9188 102.092 50.2706 101.486C49.6224 100.875 49.4928 99.5274 50.141 98.3105C50.5299 97.5292 50.9188 97.2638 51.1382 96.3072C51.3526 95.3957 51.5271 95.1754 51.7016 94.8298C51.8761 94.5243 51.916 94.2188 51.9609 92.0854C52.0058 89.9519 51.9609 85.9504 52.1753 84.2527C52.3897 82.5099 59.8887 85.0339 59.8887 85.0339C59.8887 85.0339 58.1137 89.4711 57.635 90.5629C57.1563 91.6497 57.2012 93.738 57.2012 94.1738C57.2012 94.6095 57.0267 95.4809 56.8971 95.5209C56.7674 95.566 57.3309 96.6978 57.0716 97.3489C56.9021 97.9549 57.4655 99.5224 57.5054 99.873Z" fill="white"/>
<path d="M60.3679 33.3255C60.1087 31.6728 60.3679 28.4075 60.717 27.8867C61.7989 26.4043 67.5179 26.234 68.7345 27.9718C69.2531 28.7531 69.2132 30.581 69.1234 31.7579C69.0387 32.9348 68.7345 35.4589 68.6896 36.2853C68.6448 36.8963 62.3624 37.8528 60.9762 36.2001C60.5823 35.7644 60.3679 33.3255 60.3679 33.3255Z" fill="white"/>
<path d="M73.1073 95.6515C75.7499 97.5646 77.7892 97.9152 79.1304 98.6113C80.4717 99.3074 80.1276 100.655 77.8739 101.05C76.054 101.401 73.192 100.7 71.2874 100.7C69.3827 100.7 65.1346 100.915 64.0078 100.134C62.7064 99.2223 63.2698 97.5246 63.2698 97.5246C63.6189 96.568 64.4814 94.4345 64.2222 92.6917C63.9629 90.9489 63.6139 89.9924 62.9657 88.3847C62.3175 86.7721 61.8389 82.8157 62.4471 82.5954C63.0554 82.38 62.8809 82.5954 63.6588 82.7706C64.4366 82.9459 65.3041 83.2063 66.9944 83.2063C68.6847 83.2063 70.5494 82.9459 71.1976 82.8157C71.8458 82.6855 72.3693 82.5553 72.15 83.9025C71.9356 85.2497 71.2824 87.7738 71.2425 89.7369C71.1976 91.6951 71.1976 93.9588 71.3273 94.3494C71.4619 94.735 72.4142 95.1707 73.1073 95.6515Z" fill="white"/>
<path d="M63.8325 37.6757C59.0659 41.8124 49.8367 42.9442 36.1451 48.2528C32.6349 49.6 23.2761 53.6516 21.0225 57.8734C28.6062 53.4763 31.4233 59.5261 32.0266 65.7512C32.5901 71.5856 35.4919 74.6306 42.946 74.4553C50.6146 74.28 52.958 78.7623 55.0771 84.0308C59.1955 63.8782 65.7821 59.9618 70.0252 56.5262C79.0449 49.1693 67.951 36.1983 63.8325 37.6757Z" fill="white"/>
<path d="M63.8325 37.6755C52.3945 41.682 41.0812 42.6786 27.7784 50.907C24.6173 52.8651 17.941 57.3023 16.6396 65.7911C21.4911 60.3923 32.7146 53.6063 46.4511 49.2944C53.3867 47.1158 58.4525 45.6835 64.6053 43.2896C64.1815 40.5051 64.1815 39.4184 63.8325 37.6755Z" fill="white"/>
<path d="M78.437 61.5276C78.437 61.5276 77.6143 64.3572 75.9689 65.2686C75.9689 65.2686 74.7573 65.7044 72.3291 64.3572C71.6361 63.9665 71.1175 62.6143 71.1574 62.1786C71.2023 61.1319 71.8505 60.6562 71.8505 60.6562C71.8505 60.6562 72.5435 59.4793 73.3662 59.5243C74.1889 59.5694 75.5751 59.6996 76.0088 59.309C76.3977 58.8733 78.5218 60.0903 78.437 61.5276Z" fill="white"/>
<path d="M60.7557 34.1527C60.7557 34.1527 60.5812 36.3713 60.2771 37.7636C60.2322 38.024 58.9358 38.1542 57.9785 38.5448C59.7984 43.7683 70.7627 43.7232 72.1937 41.1541C71.5006 40.6733 70.1145 39.9371 69.4663 39.6767C68.8182 39.4162 68.858 39.4613 68.8182 38.2393C68.7733 37.0224 68.6885 34.7587 68.6038 34.1477C68.514 33.5417 61.7978 33.5417 60.7557 34.1527Z" fill="white"/>
<path d="M61.1909 34.1532C61.1909 34.1532 61.1909 35.4152 61.0612 36.6322C61.0164 37.1981 60.9765 37.5436 60.8867 37.9794C60.8418 38.2398 62.3576 39.2865 62.7914 41.5902C64.8706 46.2478 69.6821 43.939 71.6765 41.7204C70.9834 41.2396 69.8566 40.5886 68.5552 40.0677C67.9071 39.8073 68.2062 39.2414 68.1663 38.0244C68.1215 36.8075 67.9519 35.0196 67.8622 34.3685C67.7774 33.7174 62.2329 33.5422 61.1909 34.1532Z" fill="#AAAAAA"/>
<path d="M60.7565 34.1531C60.7565 34.1531 60.7117 34.9343 60.582 35.8508C61.1455 36.4167 61.8834 37.198 62.4468 37.6788C62.8357 38.0293 63.788 37.9843 64.6556 37.9843C65.4334 37.9843 66.1265 38.0694 66.4306 37.8991C67.1237 37.5486 68.1209 36.6822 68.6843 36.0261C68.6395 35.2448 68.5996 34.5036 68.5547 34.1531C68.5148 33.5421 61.7986 33.5421 60.7565 34.1531Z" fill="white"/>
<path d="M64.7014 37.4581C64.1829 37.4581 63.5746 37.413 63.0959 37.3278C62.8815 37.2828 62.6621 37.1526 62.4876 37.0674C62.1835 36.8521 61.8793 36.5866 61.5353 36.3262C60.8422 35.8054 60.7974 35.4999 60.7974 35.3697C61.1015 32.6252 60.7126 30.3215 60.7126 30.3215C60.7126 30.3215 60.4084 29.1446 62.0538 28.8391C63.6992 28.5336 64.6964 28.4885 64.6964 28.4885C64.6964 28.4885 65.7385 28.4885 67.339 28.8391C68.9844 29.1446 68.6803 30.3215 68.6803 30.3215C68.6803 30.3215 68.2914 32.6302 68.5955 35.3697C68.5955 35.4999 68.5506 35.8054 67.8576 36.3262C67.2493 36.7619 66.7756 37.2377 66.2969 37.3278C65.8283 37.418 65.22 37.4581 64.7014 37.4581Z" fill="white"/>
<path d="M64.7006 27.3618C61.8386 27.3618 61.2752 28.1431 60.4525 29.0145C60.278 29.2298 60.4076 30.537 60.7118 33.3215H61.1007C61.1007 33.3215 60.8414 32.5402 60.8863 31.6237C60.9312 30.7122 61.1007 30.7523 60.9711 30.537C60.7965 30.2765 60.4525 29.8408 61.2303 29.4051C62.0081 28.9694 63.2247 29.7557 64.6956 29.7958C66.1665 29.7507 67.423 28.9694 68.2058 29.4051C68.9836 29.8408 68.6396 30.2765 68.4651 30.537C68.2905 30.7974 68.5099 30.7122 68.5498 31.6237C68.5947 32.5352 68.3354 33.3215 68.3354 33.3215H68.7243C68.9836 30.537 69.1581 29.315 69.0285 29.0996C68.2955 28.1431 67.5576 27.4069 64.7006 27.3618Z" fill="white"/>
<path d="M78.4371 61.6577C78.4371 61.6577 77.6144 64.312 76.0089 65.2285C75.6599 65.0532 75.7048 64.7928 75.4006 64.4021C75.3159 64.2719 75.0117 64.1868 74.8821 64.0515C74.7524 63.9213 74.7973 63.701 74.5779 63.5307C74.4034 63.3554 74.2738 63.4856 74.0993 63.3554C73.9248 63.1801 73.8849 62.9648 73.7502 62.8346C73.6655 62.7494 73.3165 62.7044 73.2317 62.6192C73.0173 62.4039 71.1077 62.0082 71.1974 61.5725C71.3719 60.9215 71.7159 60.4407 71.7159 60.4407C71.7159 60.4407 72.5386 59.2237 73.3613 59.2638C74.184 59.3089 74.9668 59.4791 75.3956 59.0885C75.8793 58.6578 78.5668 60.2654 78.4371 61.6577Z" fill="white"/>
<path d="M72.803 42.4214C72.803 42.4214 75.5303 41.7703 77.3951 43.5532C79.2599 45.3812 79.1302 47.6449 78.5668 49.0371C79.0455 49.603 79.908 51.1706 79.2599 53.0436C82.1218 55.4826 80.8654 59.2236 78.3075 61.7026C78.3075 61.7026 77.6992 59.439 75.276 59.3088C75.3608 58.4373 73.0223 57.7412 74.1043 55.4776C72.4589 55.0869 72.4988 53.9551 72.2395 52.5628C72.0251 51.1706 72.803 42.4214 72.803 42.4214Z" fill="white"/>
<path d="M71.8069 43.6384C71.8069 43.6384 74.9681 42.0258 76.8328 43.8537C78.6976 45.6817 78.1741 47.6849 77.6106 49.0772C78.0893 49.6431 79.2161 51.2557 78.5181 53.1688C78.3885 53.6045 77.4361 53.6045 76.7431 54.7364C78.4782 53.7347 79.5602 53.9952 79.9491 55.2572C80.5574 57.2154 79.2112 59.5642 78.0444 60.8713C78.0444 60.8262 77.9996 60.7862 77.9996 60.7411C77.825 61.3921 77.6106 62.6542 76.3093 64.0464C75.6611 64.7426 75.1376 64.6574 74.4046 64.4822C73.5371 64.2668 73.2329 63.8712 72.0213 63.2201C71.3282 62.8295 71.7172 62.3487 71.7172 61.9581C71.7172 61.8729 71.8019 61.7427 71.9316 61.5674C72.0163 61.3521 72.2806 61.0015 72.6695 60.6109C72.6695 60.6109 73.2329 59.8296 74.0556 59.8697C74.8783 59.9148 75.7459 59.7395 75.9603 59.5191C75.9603 57.9966 74.2251 57.9516 74.8334 55.3423C74.8783 55.2121 75.0927 54.9918 75.7858 54.9066C74.7437 54.6913 74.27 54.6462 73.5321 53.9501C73.0135 53.4693 72.6246 52.8633 72.49 52.0771C72.2407 50.7349 71.8069 43.6384 71.8069 43.6384Z" fill="#AAAAAA"/>
<path d="M62.6613 40.8987C62.402 40.5482 61.0558 38.8104 58.5029 38.1142C57.765 37.8989 57.2913 38.5049 56.5534 38.9406C56.339 38.8104 55.3817 38.3747 54.8631 38.6802C54.3446 38.9856 53.9956 39.2911 53.477 39.5065C53.2177 39.3763 52.5247 39.3763 51.9613 39.5916C51.3978 39.7669 50.5303 40.1575 49.7076 41.2894C49.189 43.1624 58.8918 41.7702 58.8918 41.7702L62.6613 40.8987Z" fill="white"/>
<path d="M62.7508 40.8989C61.3647 40.4181 61.5791 38.8105 58.5027 38.5501C57.8944 38.505 57.5055 38.9858 57.0717 39.2913C57.2861 39.5066 57.5055 39.8572 57.6351 40.2028C57.2462 39.767 56.5532 39.2011 55.8601 39.0709C55.2119 38.9407 54.7781 39.4215 54.0851 39.767C54.2147 39.8973 54.3444 40.1176 54.5189 40.378C53.9106 39.9874 53.4768 39.8572 52.6541 40.1627C52.0907 40.338 51.0087 40.8137 50.186 41.9907C49.6675 43.8637 58.9415 41.7753 58.9415 41.7753L62.7508 40.8989Z" fill="white"/>
<path d="M70.8976 41.5951C70.8976 41.5951 70.8976 41.1143 70.8527 40.6836C70.8527 40.5985 70.5037 40.3781 70.5037 40.293L70.4189 40.2078C70.4189 40.2078 71.112 39.8172 71.6305 40.0325C72.194 40.2078 72.4981 40.944 72.4981 40.944C73.4953 40.5935 73.5801 40.9891 74.0587 41.5099C75.1008 41.2946 75.2305 41.6852 75.8786 42.6418C75.8786 42.6418 75.1008 42.5116 73.5801 42.772C72.1092 42.9873 70.8976 41.55 70.8976 41.5951Z" fill="white"/>
<path d="M70.7237 41.3746C70.7237 41.3746 70.983 41.1592 70.8982 41.1142C71.3769 40.8537 72.025 40.5482 72.3292 41.3746C73.3264 41.024 73.456 41.5048 73.9347 42.0256C75.1463 41.4597 75.236 42.1559 75.3208 42.4613C74.9319 42.4613 74.3685 42.5064 73.5857 42.5916C72.1098 42.8119 70.6788 41.3345 70.7237 41.3746Z" fill="white"/>
<path d="M55.9893 40.2878C55.9893 40.2878 58.4574 41.1593 60.5416 41.029C62.6207 40.8538 66.1758 40.6785 68.0804 41.8103C68.0804 41.8103 70.03 41.1142 71.8499 41.595C73.6698 42.0757 77.0054 45.2058 76.0082 48.5162C75.9235 48.7315 75.36 49.0821 74.7069 49.2974C74.7069 49.2974 75.0559 50.7748 74.4476 51.9968C73.8393 53.1737 72.4981 55.4374 72.4532 58.5675C72.4083 59.0883 72.3236 60.1801 72.2388 60.7009C68.8583 60.5707 63.6578 59.3087 58.5471 59.3938C58.592 58.8279 58.6319 58.4823 58.6768 57.9164H58.8064C58.5471 56.4791 58.4574 55.7379 58.1981 54.6511C56.5527 53.6044 54.8176 52.3874 53.3467 50.0787C51.9157 47.775 55.9893 40.2878 55.9893 40.2878Z" fill="white"/>
<path d="M72.7184 63.791C72.7184 63.791 75.4059 73.4517 72.2398 77.5032C72.2398 77.5032 72.7184 79.3763 71.6315 81.3745C71.457 82.2459 71.2426 83.0272 71.1129 83.8986C70.5495 87.5094 69.5972 89.0319 69.3379 94.8213L66.7402 94.7762C66.7402 94.7762 66.436 90.5995 65.5286 88.3759C65.01 87.1138 62.9707 85.4161 63.0605 83.7183C63.1453 82.4112 63.4095 81.3244 65.6183 79.5816C65.7928 77.0575 63.2799 74.6636 63.6688 65.2634L72.7184 63.791Z" fill="white"/>
<path d="M71.9358 63.4004C72.6289 67.8376 74.2344 74.4132 71.3275 77.6335C71.4572 78.2444 71.5419 79.1159 71.3724 80.1125C71.2877 80.6333 71.1131 81.1992 70.8938 81.8102C70.46 82.8569 70.2855 84.3794 70.1558 85.2909C69.5924 88.9017 69.5924 89.077 69.3331 94.8664L66.7354 94.8213C66.7354 94.8213 66.4313 90.6445 65.5238 88.4259C65.0053 87.1639 63.9183 86.0771 63.8335 84.3794C63.7488 83.0723 64.6562 80.463 66.8252 80.5482C66.6955 75.2796 64.2673 76.3263 63.6191 65.3586L71.9358 63.4004Z" fill="#AAAAAA"/>
<path d="M55.99 40.2878C55.99 40.2878 56.9423 40.5933 57.9844 40.6785C59.0265 40.7636 60.1533 40.6785 61.1456 40.6334C63.2247 40.4581 66.1715 40.2428 68.121 41.3746C68.121 41.3746 69.203 41.024 70.3747 41.1142C70.8933 41.1593 71.4168 41.595 72.0201 41.7652C73.9248 42.246 75.7447 45.4212 74.922 48.2958C74.8372 48.5112 74.2289 48.2958 73.5359 48.5112C73.6655 49.1222 73.7503 50.5144 73.0572 51.9918C72.3193 53.4742 71.3669 55.3873 71.5414 59.0432C66.9892 58.8279 64.9549 58.5224 60.4475 58.302C60.0586 56.6894 59.7993 55.0818 59.7545 54.2555C60.3628 53.95 60.7068 53.6896 61.1855 53.1687C59.8841 53.3841 59.3656 53.2989 58.5877 52.8632C57.8099 52.4275 56.4188 51.0353 55.7257 50.1238C55.641 50.0386 55.1623 51.471 54.0804 51.516C53.6914 50.9501 55.3368 49.3375 55.0327 48.7315C53.9557 46.5129 55.99 40.2878 55.99 40.2878Z" fill="#AAAAAA"/>
<path d="M72.2859 59.7844C72.2859 59.7844 72.3707 61.3519 72.3707 61.7425C72.3707 62.1782 72.7197 63.4854 72.7596 64.0914C72.2809 64.9177 70.2018 66.7907 66.4323 67.4869C62.7078 68.2681 57.7666 62.3936 57.7666 62.3936C57.8962 61.8277 58.33 60.175 58.6342 59.3036C58.679 59.2185 58.7638 58.9981 58.7638 58.913C59.1577 58.3521 72.2859 59.7844 72.2859 59.7844Z" fill="white"/>
<path d="M71.3333 59.9194C71.3333 61.0061 71.5078 61.7924 71.6375 62.4885C71.8519 63.7506 72.2009 64.5769 72.2009 65.4033C72.2009 67.9274 68.9101 67.4916 66.1329 67.5818C62.4083 68.3631 59.2422 62.4885 59.2422 62.4885C59.5015 61.4869 59.676 60.3551 60.0649 59.3985C60.1098 58.8777 60.1945 58.2216 60.2394 57.9211C65.5246 57.9211 69.2541 58.2266 71.4181 58.442C71.5028 58.9178 71.4181 59.7441 71.3333 59.9194Z" fill="#AAAAAA"/>
<path d="M67.1683 65.5339C67.1683 65.5339 64.8698 60.4006 57.9841 61.9231C56.3387 66.5806 54.1299 71.9343 55.5559 77.7237C54.1249 79.6819 52.4795 80.7686 52.4795 84.3845C52.4795 87.9953 52.654 88.6063 52.654 88.6063L57.7248 88.8668C57.7248 88.8668 59.3702 86.7333 60.0234 84.4296C60.1979 83.7785 60.3724 82.6016 60.2378 81.2544C60.4123 80.994 61.1452 80.383 61.235 79.2111C61.235 79.2111 63.7031 77.904 65.134 74.7288C66.4753 71.8442 66.1312 69.3601 67.1683 65.5339Z" fill="white"/>
<path d="M67.1676 65.5338C67.038 65.053 65.3029 60.3554 58.8908 61.7476C55.1214 71.844 56.5075 76.0258 57.0709 77.8537C54.5131 81.119 53.3464 81.8151 53.8649 88.4309H57.2454C58.8061 85.9519 59.1501 85.0354 59.2398 81.7701C59.2398 81.6399 58.7612 82.0305 58.4171 82.4662C58.6764 81.119 59.4144 80.8536 59.9778 80.0273C60.2371 79.6767 60.4564 79.1558 60.4564 78.4597C63.4879 76.4164 64.6148 73.8472 65.268 71.1929C65.7815 69.36 66.3898 66.3601 67.1676 65.5338Z" fill="#AAAAAA"/>
<path d="M56.469 58.5276C56.469 58.5276 57.6408 58.5727 58.6779 58.9182C59.6751 59.2688 59.6751 59.4841 60.064 59.9198C60.4529 60.3555 61.4052 61.0066 61.2357 61.6627C61.1509 62.0132 60.9315 62.0984 60.6274 62.4039C60.4978 62.5341 59.5454 63.5808 59.326 63.711C59.1964 63.7961 59.0219 63.9263 58.8923 64.0165C58.7626 64.1016 58.3737 64.3671 58.2441 64.4522C57.8103 64.6675 57.5061 64.8028 57.0325 64.7577C57.0325 64.7577 55.9505 64.7126 55.2574 63.9764C55.2574 63.9764 55.1727 63.6259 55.3422 63.4556C55.3422 63.4556 54.4298 62.6743 54.1705 62.1485C53.9112 61.6276 53.9112 60.8864 54.0857 60.4958C54.1705 60.0901 55.8607 59.0034 56.469 58.5276Z" fill="white"/>
<path d="M52.8693 81.8552C53.2582 82.1156 55.9008 83.6832 60.1938 83.4678C60.109 84.2942 60.1489 85.9068 58.2442 88.7364C57.2919 90.1286 56.4692 92.5676 56.2947 95.6576C56.3396 96.3537 56.7285 96.9647 56.2099 97.8762C56.3844 98.4421 57.0775 99.5739 57.4215 100.27C57.7706 100.966 57.9401 101.752 55.6465 101.793C53.3081 101.838 49.5386 101.577 50.0572 99.7492C50.3164 98.7927 51.0544 97.791 51.1391 97.4004C51.2239 97.0098 51.2239 95.8329 51.9618 95.0516C52.61 92.8731 52.3956 90.7847 52.266 88.8265C52.0466 86.7732 52.0067 83.5079 52.8693 81.8552Z" fill="white"/>
<path d="M56.9033 46.3827C59.9797 42.246 57.382 38.9407 52.4408 39.9423C50.4464 40.3329 48.452 41.7252 48.3224 44.2493C47.6742 44.3344 46.1983 44.4246 45.4604 47.1239C44.897 49.2123 44.5928 49.603 43.5956 50.6497C42.9474 51.3909 43.6405 52.9133 44.1142 54.0001C45.7197 57.7411 50.6558 58.0917 53.9915 60.9213C55.1183 60.6158 56.2901 59.3538 56.6341 58.5274C53.817 55.177 54.4253 53.8699 53.2984 52.1271C54.52 51.6913 57.2923 49.9936 56.9033 46.3827Z" fill="white"/>
<path d="M56.2953 46.1225C56.4698 45.8621 56.7739 45.2962 56.9036 45.0758C56.9484 45.0307 57.4221 45.8571 57.467 45.817C58.6387 43.9039 58.9379 41.1144 57.5966 40.854C57.2925 40.8089 56.7291 40.6787 56.2554 40.5034C55.3878 40.1979 54.61 40.1979 53.2239 40.4583C51.3192 40.8089 49.4096 42.2012 49.4096 44.1994C49.4096 44.3296 50.7508 44.7202 51.1447 46.3329C50.4965 45.4164 49.3697 44.4197 48.0234 45.2861C46.5925 46.1976 47.3304 48.291 45.4257 50.4645C44.7775 51.2057 44.8623 52.0772 45.5554 53.815C46.6822 56.5594 52.0123 58.0368 54.9141 60.646C55.6072 60.3405 56.0859 59.6444 56.4299 59.1236C54.4804 57.0803 53.6976 55.1622 53.1391 53.7699C52.4461 52.1573 51.6633 51.2458 50.1475 50.0288C50.9253 50.3343 51.5336 50.6398 51.8826 50.9002C52.2715 51.1607 52.835 51.2057 53.3585 51.0305C55.2133 50.3844 56.2105 47.7752 56.2953 46.1225Z" fill="#AAAAAA"/>
<path d="M75.1409 46.8183C75.0112 48.4709 73.7996 47.6446 73.1465 47.3391C71.8451 46.7732 70.5487 46.3826 69.028 46.3826C67.5073 46.3826 65.5627 46.5128 63.8724 46.9485C61.534 47.5995 60.8409 47.5595 59.7989 47.0336C58.7568 46.4677 56.9369 45.0754 56.9369 45.0754C56.9369 45.0754 56.892 45.5111 57.3258 46.0771C57.8892 46.7732 59.1457 47.6446 60.8359 48.2105C61.6586 48.4709 62.3118 48.2957 63.0448 48.1254C66.899 47.1688 70.9726 46.9935 74.398 49.0819C74.5725 49.1671 75.1758 48.9067 75.44 48.516C75.794 47.9501 75.1409 46.8183 75.1409 46.8183Z" fill="white"/>
<path d="M55.4258 63.4004C55.7748 63.6157 56.2036 63.751 56.6823 64.1416C56.6823 64.1416 56.2934 64.1416 56.1188 63.9663C55.9044 63.8361 55.4707 63.4455 55.4258 63.4004Z" fill="#001423"/>
<path d="M67.9516 28.8844C67.822 28.4937 66.8697 27.7976 64.6609 27.7976C62.2775 27.7976 61.5845 28.5388 61.5396 28.9294C61.5396 29.0596 61.3651 30.4519 61.3252 31.0178C61.3252 31.0178 61.3252 31.714 61.3701 32.7606C61.4149 33.4568 61.5845 33.8474 61.6742 34.7639C61.759 35.7204 62.0232 36.3314 62.4969 37.1127C62.7113 37.2429 62.8858 37.3731 63.1052 37.4182C63.9728 37.5935 65.4885 37.6335 66.3112 37.4182C66.7899 37.288 67.3932 36.4616 67.5228 35.7204C67.6973 34.809 67.8719 34.1529 67.9117 33.587C67.9965 33.0211 68.0414 31.759 68.0863 31.4085C68.2109 30.4519 67.9915 28.9745 67.9516 28.8844Z" fill="#AAAAAA"/>
<path d="M63.3994 82.6814C63.3994 82.6814 65.698 83.683 71.3721 82.8116C71.3721 82.8116 69.7666 90.9047 70.5045 94.9563C70.5045 94.9563 71.2424 96.003 76.7021 98.0012C76.7021 98.0012 79.1303 98.6122 79.0406 99.8292C79.0406 99.8292 79.1254 100.09 76.1786 100.004C73.2319 99.9193 70.4596 99.3935 68.5101 99.3935C66.5606 99.3935 64.4814 99.4786 64.1324 98.9127C63.7434 98.3918 64.2171 97.0397 64.7805 96.2584C65.3888 95.4321 65.2143 94.8211 65.1695 93.3437C65.0448 89.4724 62.0981 85.4659 63.3994 82.6814Z" fill="white"/>
<path d="M62.9253 83.4226C62.6212 83.8584 62.9702 85.511 63.404 87.1236C63.8378 88.7363 64.7901 89.6928 65.0095 92.3471C65.2239 94.9563 65.2688 95.3069 64.5308 96.8294C63.7929 98.3518 63.5785 99.7441 66.1363 99.7892C68.6942 99.8342 70.0803 99.7441 72.678 100.14C75.2757 100.53 76.1882 100.661 77.6192 100.445C79.0501 100.23 79.3543 99.7491 78.746 99.3134C78.1377 98.8777 75.6247 98.4019 74.5428 97.5305C73.5007 96.7492 70.5539 95.4421 70.5141 95.0916C70.3844 93.9146 70.3396 89.6527 70.5589 88.2605C70.7733 86.8682 71.0775 84.865 71.1672 84.3441C71.252 83.8233 71.6858 83.2974 70.9528 83.4727C70.2149 83.648 67.4427 84.0386 65.3635 83.9084C63.2694 83.7682 63.055 83.2874 62.9253 83.4226Z" fill="white"/>
<path opacity="0.3" d="M62.7957 85.1155C63.7929 85.466 65.3087 85.5512 66.61 85.5061C67.9114 85.461 69.8609 85.2907 71.1174 84.855C72.3739 84.4193 71.8553 85.3358 71.8553 85.3358L71.1623 85.9869C71.1623 85.9869 69.5169 86.6379 66.8294 86.5979C63.6683 86.5528 62.7109 86.2072 62.7109 86.2072L62.7957 85.1155Z" fill="white"/>
<path opacity="0.3" d="M62.8809 87.294C63.8781 87.6446 65.3938 87.7297 66.6952 87.6846C67.9965 87.6396 69.7267 87.6396 70.9832 87.1638C71.5017 86.9885 71.1976 87.7297 71.1976 87.7297L70.9832 88.1203C70.9832 88.1203 69.2929 88.7313 66.6503 88.6862C63.4892 88.6412 62.9257 88.3808 62.9257 88.3808L62.8809 87.294Z" fill="white"/>
<path d="M60.0195 56.7847C60.0195 57.0902 63.4001 58.7879 65.2648 59.1335C67.1296 59.484 71.0287 59.1335 71.637 59.0033L71.5522 59.6142C71.5522 59.6142 66.9152 60.3104 63.3652 59.3538C59.8101 58.3973 60.204 58.1769 60.204 58.1769L60.0195 56.7847Z" fill="white"/>
<path d="M52.7832 93.9112C53.3018 94.1716 55.1665 94.6524 56.3781 94.3919C56.5526 94.3469 56.3781 91.3871 56.8568 90.0399C57.5498 88.1668 58.6767 86.6444 59.1952 83.339C57.3753 83.1637 55.2962 82.688 54.2142 82.3374C52.8281 86.5993 53.3067 90.2552 52.7832 93.9112Z" fill="#AAAAAA"/>
<path d="M56.1647 40.1128C57.5957 40.9391 59.5901 40.7238 60.323 40.6787C60.4975 40.6787 62.2277 40.3732 62.3174 40.4183C62.4919 40.4634 62.4919 40.5936 62.4919 40.5936C62.4919 40.5936 61.8438 40.9441 60.3679 41.0293C58.9818 41.1144 57.3364 41.0293 56.4239 40.5936C55.342 40.1128 56.1647 40.1128 56.1647 40.1128Z" fill="white"/>
<path d="M70.8987 40.9388C71.158 41.1141 72.8483 41.7651 73.5862 42.5514C74.2344 43.2475 73.8903 43.2025 73.7607 43.0322C73.5862 42.8168 72.245 41.9004 71.7264 41.685C71.2079 41.4697 70.5547 41.074 70.5547 40.9889C70.5547 40.9037 70.8987 40.9388 70.8987 40.9388Z" fill="white"/>
<path d="M55.9446 59.0031C57.2011 58.918 58.5025 59.2185 59.3252 60.0899C59.759 60.5256 60.452 61.0014 60.3673 61.4371C60.3673 61.5673 60.108 61.9178 59.8886 62.1783C59.759 62.3535 59.3701 62.7442 59.2404 62.8744C59.0659 63.0046 58.4626 63.4854 58.333 63.5705C58.2033 63.6557 58.0288 63.876 57.8992 63.9211C57.4654 64.1364 56.9917 63.9662 56.5579 63.7458C56.1241 63.5305 56.6427 63.4854 56.169 63.1348C54.9973 62.3085 54.3491 61.7426 54.8278 60.1299C54.8627 59.8295 55.3413 59.4839 55.9446 59.0031Z" fill="#AAAAAA"/>
<path opacity="0.4" d="M44.8962 49.0355C40.9971 50.603 31.0749 55.5661 28.2578 57.0885C30.5963 58.5659 31.6832 62.1367 32.0273 65.7476C32.0721 66.0981 32.112 66.3986 32.1569 66.7492C32.2018 67.0547 32.2417 67.27 32.2865 67.4002C32.2865 67.4453 32.2865 67.5305 32.3314 67.5755C34.8892 60.5692 44.0286 53.1672 44.3777 52.6013C44.5522 52.3408 44.1633 51.209 44.7666 50.1222C45.5494 48.73 47.0651 48.124 44.8962 49.0355Z" fill="white"/>
<path opacity="0.4" d="M54.1699 81.8992C56.1643 77.8927 56.2042 74.0665 56.1643 69.5842C56.1643 67.7112 57.5055 65.0569 56.8125 65.7981C54.2147 68.7128 47.6681 74.1967 42.9463 74.5022C49.5777 74.2818 52.1754 77.6322 54.1699 81.8992Z" fill="white"/>
<path d="M24.4434 60.7899C26.9114 59.007 39.6956 52.171 42.772 51.2144C45.8484 50.2128 44.8961 49.0359 44.8961 49.0359C44.8961 49.0359 32.416 54.4346 24.9619 59.0922" fill="white"/>
<path opacity="0.4" d="M60.8413 48.2095C59.8441 47.8189 59.0663 48.9908 59.3256 50.1226C59.5848 51.2545 61.9233 52.5165 61.7937 56.6532C61.7089 60.0487 60.971 61.441 60.971 61.441L59.3256 59.3526C59.3256 59.3526 59.0663 54.65 58.5029 53.9539C57.9395 53.2577 56.1644 51.9957 55.4714 51.3446C54.7783 50.6936 56.2492 49.8222 56.1644 48.6002C56.0797 47.4233 56.9024 45.0745 56.9024 45.0745L60.8413 48.2095Z" fill="white"/>
<path opacity="0.4" d="M66.8645 66.7495C66.7798 70.0148 67.5127 74.8426 67.8169 77.1514C68.121 79.4601 68.5099 79.6304 67.8169 80.6771C67.1238 81.6787 66.2113 83.3314 66.2113 83.3314L63.2197 83.071C63.2197 83.071 65.6031 80.026 65.7327 79.4601C65.8623 78.8942 64.5211 74.5872 64.5211 74.5872L66.8645 66.7495Z" fill="white"/>
<path opacity="0.4" d="M61.1055 36.2849C61.7138 37.6321 62.4467 38.2431 63.6184 38.6337C64.3115 38.8941 67.0438 39.2447 68.1258 38.0227C68.6045 37.4568 68.3003 35.9343 68.3003 35.9343L65.8322 37.9376L62.4966 37.3266L62.1077 36.325L61.1055 36.2849Z" fill="white"/>
<path d="M61.3647 39.2849C62.4915 40.0261 65.3086 40.7222 66.0864 40.8525C66.8642 41.0277 68.1207 40.0261 68.729 39.7657C69.3772 39.4602 70.504 39.2849 71.8054 40.4618C71.935 40.592 71.5013 41.1579 71.5013 41.1579C71.4564 41.1129 71.1971 41.1129 70.8531 40.9426C70.5041 40.7673 70.2049 40.6371 69.6814 40.6822C67.5124 40.9426 67.1684 41.6838 65.2637 41.2481C63.3591 40.8124 62.8804 40.4668 61.0156 40.552" fill="white"/>
<path d="M61.3647 39.2849C62.4915 40.0261 65.3086 40.7222 66.0864 40.8525C66.8642 41.0277 68.1207 40.0261 68.729 39.7657C69.3772 39.4602 70.504 39.2849 71.8054 40.4618C71.935 40.592 71.5013 41.1579 71.5013 41.1579C71.4564 41.1129 71.1971 41.1129 70.8531 40.9426C70.5041 40.7673 70.2049 40.6371 69.6814 40.6822C67.5124 40.9426 67.1684 41.6838 65.2637 41.2481C63.3591 40.8124 62.8804 40.4668 61.0156 40.552" stroke="white" stroke-width="1.586" stroke-linejoin="round"/>
<path d="M60.9704 39.4202C62.4014 40.0312 65.1736 40.6822 65.9515 40.8575C66.7293 41.0328 67.9858 40.2465 68.5941 39.8559C69.676 39.1597 71.0621 39.7257 71.7153 40.4669C72.1491 40.9476 72.3236 41.2481 72.3236 41.3783C72.3236 41.5536 71.8051 41.3783 71.8051 41.3783C71.5009 41.2481 71.1569 41.2031 70.8976 41.0278C70.5486 40.8525 70.2045 40.5921 69.686 40.6371C67.5171 40.8976 67.0883 41.6388 65.2235 41.2031C63.3587 40.7673 62.885 40.3767 60.8906 40.5069" fill="white"/>
<path d="M54.2556 80.071C54.1709 79.9859 54.3404 79.8957 54.2556 79.8957C53.6922 79.8957 52.9144 79.46 52.4806 78.849C50.6158 76.1497 47.8885 74.3668 42.9473 74.497C35.5381 74.6723 32.5913 71.6223 32.0279 65.7929C31.7237 62.6177 30.8562 59.5277 29.0811 57.7849L28.0391 58.436C30.0335 60.1788 30.6817 63.0084 31.1154 66.8797C31.8085 72.7141 36.4904 75.4085 41.9501 75.4986C47.6242 75.5838 49.6635 76.7607 51.7875 79.6353C52.4806 80.5468 53.2634 80.8523 53.8667 80.9825L54.2556 80.071Z" fill="white"/>
<path opacity="0.4" d="M74.3636 52.0859C74.4932 52.737 74.8423 53.999 75.5353 54.61C75.8395 54.9155 75.8843 55.0007 75.6201 55.0007C75.3608 55.0007 73.4512 54.9155 73.4512 54.9155L72.9326 54.004L74.3636 52.0859Z" fill="white"/>
</g>
</svg>
