<svg width="276" height="129" viewBox="0 0 276 129" fill="none" xmlns="http://www.w3.org/2000/svg">
<g opacity="0.5">
<path d="M100.496 43.8184H127.468V45.9656H102.968V62.1257H126.007V64.2729H102.968V82.0151H127.749V84.1622H100.496V43.8184ZM129.885 43.8184H132.751L145.45 61.5607L158.431 43.8184L176.086 21.2817L147.08 63.4253L162.027 84.1622H159.049L145.45 65.2899L131.795 84.1622H128.873L143.933 63.4253L129.885 43.8184ZM163.095 45.9656V43.8184H193.832V45.9656H179.672V84.1622H177.199V45.9656H163.095ZM66.752 43.8184H69.8426L112.46 107.691L94.8484 84.1622L69.3368 46.8696L69.2244 84.1622H66.752V43.8184ZM193.583 81.3671C193.078 81.3671 192.699 80.9751 192.699 80.4685C192.699 79.9619 193.078 79.5699 193.583 79.5699C194.094 79.5699 194.467 79.9619 194.467 80.4685C194.467 80.9751 194.094 81.3671 193.583 81.3671ZM196.013 79.003H197.336C197.354 79.7207 197.877 80.2032 198.647 80.2032C199.507 80.2032 199.994 79.6845 199.994 78.7135V72.5621H201.341V78.7196C201.341 80.4685 200.33 81.4757 198.659 81.4757C197.089 81.4757 196.013 80.4987 196.013 79.003ZM203.103 78.9246H204.438C204.552 79.7508 205.358 80.2755 206.518 80.2755C207.601 80.2755 208.395 79.7147 208.395 78.9427C208.395 78.2793 207.89 77.8813 206.741 77.6099L205.622 77.3385C204.053 76.9706 203.337 76.2107 203.337 74.9322C203.337 73.3823 204.6 72.351 206.494 72.351C208.256 72.351 209.543 73.3823 209.622 74.8478H208.311C208.184 74.0457 207.487 73.5451 206.476 73.5451C205.412 73.5451 204.702 74.0577 204.702 74.8417C204.702 75.4629 205.159 75.8187 206.29 76.0841L207.246 76.3193C209.026 76.7354 209.76 77.4591 209.76 78.7678C209.76 80.4323 208.473 81.4757 206.416 81.4757C204.492 81.4757 203.199 80.4806 203.103 78.9246Z" fill="white"/>
</g>
</svg>
