<svg width="276" height="129" viewBox="0 0 276 129" fill="none" xmlns="http://www.w3.org/2000/svg">
<g opacity="0.5">
<path d="M77.7562 70.5479C81.1229 70.5479 83.8522 67.8144 83.8522 64.4424C83.8522 61.0704 81.1229 58.3369 77.7562 58.3369C74.3894 58.3369 71.6602 61.0704 71.6602 64.4424C71.6602 67.8144 74.3894 70.5479 77.7562 70.5479Z" fill="white"/>
<path fill-rule="evenodd" clip-rule="evenodd" d="M77.7565 52.0288C85.9413 52.0288 93.5447 53.2051 99.2776 55.1818C106.185 57.5635 110.432 61.1736 110.432 64.4425C110.432 67.849 105.931 71.6842 98.5134 74.1457C92.9055 76.0065 85.5259 76.9779 77.7565 76.9779C69.7908 76.9779 62.2476 76.0661 56.5766 74.1252C49.4016 71.669 45.0801 67.7841 45.0801 64.4425C45.0801 61.2001 49.135 57.6179 55.9453 55.2398C61.6996 53.2305 69.4907 52.0288 77.7554 52.0288H77.7565Z" stroke="white" stroke-width="1.66272"/>
<path fill-rule="evenodd" clip-rule="evenodd" d="M66.9672 58.2715C71.0561 51.1704 75.8718 45.1612 80.4456 41.1747C85.9562 36.3715 91.2004 34.4905 94.0277 36.1234C96.9742 37.8251 98.0428 43.6463 96.4661 51.3114C95.2753 57.1067 92.4277 63.9944 88.5463 70.7353C84.5667 77.6465 80.0099 83.7356 75.4985 87.6851C69.7897 92.6832 64.2705 94.4919 61.3803 92.8225C58.5758 91.2039 57.5033 85.8952 58.8487 78.7983C59.9854 72.802 62.8382 65.442 66.9658 58.2714L66.9672 58.2715Z" stroke="white" stroke-width="1.66272"/>
<path fill-rule="evenodd" clip-rule="evenodd" d="M66.9769 70.7533C62.8764 63.6602 60.0846 56.4791 58.9193 50.5195C57.5165 43.339 58.5083 37.849 61.3331 36.2114C64.2766 34.5046 69.8458 36.4845 75.6888 41.6807C80.1066 45.6093 84.6429 51.5188 88.5356 58.2534C92.5267 65.158 95.5179 72.1531 96.6815 78.0401C98.1539 85.49 96.9622 91.1821 94.0746 92.8563C91.2729 94.4808 86.1458 92.7609 80.6789 88.049C76.0598 84.0681 71.1179 77.9169 66.9769 70.7532V70.7533Z" stroke="white" stroke-width="1.66272"/>
<path fill-rule="evenodd" clip-rule="evenodd" d="M152.58 77.7861L145.109 66.4714C148.885 66.1374 152.287 63.3948 152.287 58.3844C152.287 53.2861 148.678 50.0232 143.614 50.0232H132.494V77.765H135.939V66.7421H141.459L148.513 77.765L152.58 77.7861ZM143.202 63.7271H135.941V53.1209H143.202C146.482 53.1209 148.722 55.2832 148.722 58.4038C148.722 61.5243 146.48 63.7306 143.202 63.7306V63.7271ZM165.403 78.2836C168.683 78.2836 171.379 77.2025 173.372 75.2071L171.877 73.1678C170.299 74.7904 167.977 75.7046 165.695 75.7046C161.38 75.7046 158.723 72.5437 158.474 68.7604H174.698V67.9692C174.698 61.9392 171.128 57.196 165.068 57.196C159.342 57.196 155.194 61.897 155.194 67.7196C155.194 74.0011 159.468 78.2678 165.402 78.2678L165.403 78.2836ZM171.63 66.4696H158.475C158.642 63.3931 160.756 59.7715 165.032 59.7715C169.597 59.7715 171.588 63.4739 171.63 66.4696ZM195.368 77.7844V63.975C195.368 59.1087 191.843 57.1942 187.608 57.1942C184.329 57.1942 181.757 58.2754 179.6 60.5222L181.052 62.6846C182.836 60.7718 184.788 59.8981 187.195 59.8981C190.099 59.8981 192.258 61.4364 192.258 64.1402V67.7583C190.639 65.886 188.357 65.0122 185.618 65.0122C182.215 65.0122 178.602 67.1342 178.602 71.626C178.602 75.9929 182.212 78.2819 185.618 78.2819C188.315 78.2819 190.599 77.3255 192.258 75.4954V77.7808L195.368 77.7844ZM186.739 76.0369C183.834 76.0369 181.799 74.2085 181.799 71.6699C181.799 69.0909 183.834 67.2608 186.739 67.2608C188.938 67.2608 191.053 68.0923 192.258 69.7572V73.5422C191.055 75.2053 188.938 76.0369 186.739 76.0369ZM210.417 78.2836C214.069 78.2836 216.226 76.7858 217.762 74.7904L215.687 72.8777C214.36 74.6656 212.658 75.4972 210.601 75.4972C206.327 75.4972 203.673 72.1692 203.673 67.7196C203.673 63.27 206.328 59.9842 210.601 59.9842C212.676 59.9842 214.377 60.7754 215.687 62.6037L217.762 60.691C216.228 58.6938 214.069 57.1977 210.417 57.1977C204.441 57.1977 200.416 61.7739 200.416 67.7214C200.416 73.711 204.441 78.2696 210.417 78.2696V78.2836ZM227.185 78.2836C229.009 78.2836 230.131 77.7422 230.921 76.995L230.008 74.6656C229.593 75.1227 228.781 75.4972 227.891 75.4972C226.523 75.4972 225.857 74.416 225.857 72.9181V60.4396H229.926V57.6953H225.857V52.2049H222.744V57.6953H219.423V60.4413H222.744V73.5862C222.744 76.5819 224.238 78.2872 227.185 78.2872V78.2836Z" fill="white"/>
</g>
</svg>
