{
  "asset": {
    "version": "2.0",
    "generator": "THREE.GLTFExporter"
  },
  "scenes": [
    {
      "nodes": [
        0
      ]
    }
  ],
  "scene": 0,
  "nodes": [
    {
      "children": [
        1,
        2,
        3,
        4
      ],
      "matrix": [
        0.01,
        0,
        0,
        0,
        0,
        0.01,
        0,
        0,
        0,
        0,
        0.01,
        0,
        0,
        0,
        0,
        1
      ]
    },
    {
      "matrix": [
        -0.19237241008081285,
        -0.3356318890245848,
        0.9221410363439467,
        0,
        -0.9813219939651303,
        0.06579523926774433,
        -0.18077093419574053,
        0,
        -2.220446049250313e-16,
        -0.9396926207859083,
        -0.34202014332566844,
        0,
        0,
        0,
        0,
        1
      ],
      "name": "Cone",
      "mesh": 0
    },
    {
      "matrix": [
        0.5883484054145521,
        0.39223227027636803,
        -0.7071067811865475,
        0,
        -0.554700196225229,
        0.8320502943378437,
        0,
        0,
        0.588348405414552,
        0.392232270276368,
        0.7071067811865476,
        0,
        0,
        0,
        0,
        1
      ],
      "name": "Directional Light",
      "extensions": {
        "KHR_lights_punctual": {
          "light": 0
        }
      }
    },
    {
      "matrix": [
        0.9717370923301525,
        -1.734723475976807e-18,
        -0.23606571837041623,
        0,
        -0.027225953283038624,
        0.9933269896786614,
        -0.11207247228359966,
        0,
        0.23449044939521624,
        0.11533209256719666,
        0.9652526806834059,
        0,
        250.11035039819225,
        108.97423959497948,
        962.2217157030548,
        1
      ],
      "camera": 0
    },
    {
      "matrix": [
        1,
        0,
        0,
        0,
        0,
        1,
        0,
        0,
        0,
        0,
        1,
        0,
        0,
        1,
        0,
        1
      ],
      "name": "Default Ambient Light"
    }
  ],
  "bufferViews": [
    {
      "buffer": 0,
      "byteOffset": 0,
      "byteLength": 61632,
      "target": 34962,
      "byteStride": 12
    },
    {
      "buffer": 0,
      "byteOffset": 61632,
      "byteLength": 61632,
      "target": 34962,
      "byteStride": 12
    },
    {
      "buffer": 0,
      "byteOffset": 123264,
      "byteLength": 30816,
      "target": 34963
    }
  ],
  "buffers": [
    {
      "byteLength": 154080,
      "uri": "data:application/octet-stream;base64,"
    }
  ],
  "accessors": [
    {
      "bufferView": 0,
      "componentType": 5126,
      "count": 5136,
      "max": [
        98.68086242675781,
        80.15963745117188,
        97.98115539550781
      ],
      "min": [
        -64.85486602783203,
        -82.6112060546875,
        -98.55262756347656
      ],
      "type": "VEC3"
    },
    {
      "bufferView": 1,
      "componentType": 5126,
      "count": 5136,
      "max": [
        0.9993865489959717,
        0.9876834750175476,
        0.9896801710128784
      ],
      "min": [
        -1,
        -0.999975860118866,
        -0.9980881810188293
      ],
      "type": "VEC3"
    },
    {
      "bufferView": 2,
      "componentType": 5125,
      "count": 7704,
      "max": [
        5135
      ],
      "min": [
        0
      ],
      "type": "SCALAR"
    }
  ],
  "meshes": [
    {
      "primitives": [
        {
          "mode": 4,
          "attributes": {
            "POSITION": 0,
            "NORMAL": 1
          },
          "extras": {
            "type": "SubdivGeometry",
            "parameters": {
              "width": 170.6654510498047,
              "height": 165.22239685058594,
              "depth": 198.8108901977539
            }
          },
          "indices": 2
        }
      ]
    }
  ],
  "extensions": {
    "KHR_lights_punctual": {
      "lights": [
        {
          "name": "Directional Light",
          "color": [
            1,
            1,
            1
          ],
          "intensity": 0.7,
          "type": "directional"
        }
      ]
    }
  },
  "cameras": [
    {
      "type": "orthographic",
      "orthographic": {
        "xmag": 8.4917815205,
        "ymag": 4.136426389087305,
        "zfar": 100000,
        "znear": 0
      }
    }
  ],
  "extensionsUsed": [
    "KHR_lights_punctual"
  ]
}