<svg width="15" height="14" viewBox="0 0 15 14" fill="none" xmlns="http://www.w3.org/2000/svg">
<mask id="path-1-inside-1_145_259" fill="white">
<path d="M0.222656 0H14.2227V14H0.222656V0Z"/>
</mask>
<path d="M0.222656 0H14.2227V14H0.222656V0Z" fill="black"/>
<path d="M0.222656 0V-1H-0.777344V0H0.222656ZM14.2227 0H15.2227V-1H14.2227V0ZM14.2227 14V16H15.2227V14H14.2227ZM0.222656 14H-0.777344V16H0.222656V14ZM0.222656 1H14.2227V-1H0.222656V1ZM13.2227 0V14H15.2227V0H13.2227ZM14.2227 12H0.222656V16H14.2227V12ZM1.22266 14V0H-0.777344V14H1.22266Z" fill="#FD1C74" mask="url(#path-1-inside-1_145_259)"/>
<path d="M10.7217 4.05306L7.77767 6.99707L10.7217 9.94108L10.1657 10.4971L7.22168 7.55306L4.27767 10.4971L3.72168 9.94108L6.66569 6.99707L3.72168 4.05306L4.27767 3.49707L7.22168 6.44108L10.1657 3.49707L10.7217 4.05306Z" fill="#FD1C74"/>
</svg>
