<svg width="15" height="14" viewBox="0 0 15 14" fill="none" xmlns="http://www.w3.org/2000/svg">
<mask id="path-1-inside-1_145_256" fill="white">
<path d="M0.112305 0H14.1123V14H0.112305V0Z"/>
</mask>
<path d="M0.112305 0H14.1123V14H0.112305V0Z" fill="black"/>
<path d="M0.112305 0V-1H-0.887695V0H0.112305ZM14.1123 0H15.1123V-1H14.1123V0ZM14.1123 14V16H15.1123V14H14.1123ZM0.112305 14H-0.887695V16H0.112305V14ZM0.112305 1H14.1123V-1H0.112305V1ZM13.1123 0V14H15.1123V0H13.1123ZM14.1123 12H0.112305V16H14.1123V12ZM1.1123 14V0H-0.887695V14H1.1123Z" fill="#FD1C74" mask="url(#path-1-inside-1_145_256)"/>
<mask id="path-3-inside-2_145_256" fill="white">
<path d="M2.44531 2.3335H11.7786V10.8891H2.44531V2.3335Z"/>
</mask>
<path d="M2.44531 2.3335V-0.666504H1.44531V2.3335H2.44531ZM11.7786 2.3335H12.7786V-0.666504H11.7786V2.3335ZM11.7786 10.8891V11.8891H12.7786V10.8891H11.7786ZM2.44531 10.8891H1.44531V11.8891H2.44531V10.8891ZM2.44531 5.3335H11.7786V-0.666504H2.44531V5.3335ZM10.7786 2.3335V10.8891H12.7786V2.3335H10.7786ZM11.7786 9.88905H2.44531V11.8891H11.7786V9.88905ZM3.44531 10.8891V2.3335H1.44531V10.8891H3.44531Z" fill="#FD1C74" mask="url(#path-3-inside-2_145_256)"/>
</svg>
