<svg width="18" height="18" viewBox="0 0 18 18" fill="none" xmlns="http://www.w3.org/2000/svg">
<mask id="path-1-inside-1_99_407" fill="white">
<path d="M0 0H18.0001V18.0001H0V0Z"/>
</mask>
<path d="M0 0V-1H-1V0H0ZM18.0001 0H19.0001V-1H18.0001V0ZM18.0001 18.0001V20.0001H19.0001V18.0001H18.0001ZM0 18.0001H-1V20.0001H0V18.0001ZM0 1H18.0001V-1H0V1ZM17.0001 0V18.0001H19.0001V0H17.0001ZM18.0001 16.0001H0V20.0001H18.0001V16.0001ZM1 18.0001V0H-1V18.0001H1Z" fill="#866FFF" fill-opacity="0.5" mask="url(#path-1-inside-1_99_407)"/>
<line x1="3" y1="13" x2="15.0001" y2="13" stroke="#866FFF" stroke-opacity="0.5" stroke-width="2"/>
</svg>
