<svg width="18" height="18" viewBox="0 0 18 18" fill="none" xmlns="http://www.w3.org/2000/svg">
<mask id="path-1-inside-1_99_420" fill="white">
<path d="M0.000976562 0H18.0011V18.0001H0.000976562V0Z"/>
</mask>
<path d="M0.000976562 0V-1H-0.999023V0H0.000976562ZM18.0011 0H19.0011V-1H18.0011V0ZM18.0011 18.0001V20.0001H19.0011V18.0001H18.0011ZM0.000976562 18.0001H-0.999023V20.0001H0.000976562V18.0001ZM0.000976562 1H18.0011V-1H0.000976562V1ZM17.0011 0V18.0001H19.0011V0H17.0011ZM18.0011 16.0001H0.000976562V20.0001H18.0011V16.0001ZM1.00098 18.0001V0H-0.999023V18.0001H1.00098Z" fill="#866FFF" fill-opacity="0.5" mask="url(#path-1-inside-1_99_420)"/>
<mask id="path-3-inside-2_99_420" fill="white">
<path d="M3.00098 3H15.001V14.0001H3.00098V3Z"/>
</mask>
<path d="M3.00098 3V0H2.00098V3H3.00098ZM15.001 3H16.001V0H15.001V3ZM15.001 14.0001V15.0001H16.001V14.0001H15.001ZM3.00098 14.0001H2.00098V15.0001H3.00098V14.0001ZM3.00098 6H15.001V0H3.00098V6ZM14.001 3V14.0001H16.001V3H14.001ZM15.001 13.0001H3.00098V15.0001H15.001V13.0001ZM4.00098 14.0001V3H2.00098V14.0001H4.00098Z" fill="#866FFF" fill-opacity="0.5" mask="url(#path-3-inside-2_99_420)"/>
</svg>
