<svg width="18" height="18" viewBox="0 0 18 18" fill="none" xmlns="http://www.w3.org/2000/svg">
<mask id="path-1-inside-1_99_421" fill="white">
<path d="M0.000976562 0H18.0011V18.0001H0.000976562V0Z"/>
</mask>
<path d="M0.000976562 0V-1H-0.999023V0H0.000976562ZM18.0011 0H19.0011V-1H18.0011V0ZM18.0011 18.0001V20.0001H19.0011V18.0001H18.0011ZM0.000976562 18.0001H-0.999023V20.0001H0.000976562V18.0001ZM0.000976562 1H18.0011V-1H0.000976562V1ZM17.0011 0V18.0001H19.0011V0H17.0011ZM18.0011 16.0001H0.000976562V20.0001H18.0011V16.0001ZM1.00098 18.0001V0H-0.999023V18.0001H1.00098Z" fill="#866FFF" fill-opacity="0.5" mask="url(#path-1-inside-1_99_421)"/>
<path d="M13.5 5.21094L9.71487 8.99612L13.5 12.7813L12.7852 13.4961L9.00002 9.71096L5.21485 13.4961L4.5 12.7813L8.28517 8.99612L4.5 5.21094L5.21485 4.49609L9.00002 8.28127L12.7852 4.49609L13.5 5.21094Z" fill="#866FFF" fill-opacity="0.5"/>
</svg>
