{
  "accessors": [
    {
      "bufferView": 2,
      "componentType": 5126,
      "count": 333,
      "max": [
        0.27984923124313354,
        0.7620558142662048,
        1.217879056930542
      ],
      "min": [
        -0.2763434946537018,
        -0.8501029014587402,
        -1.2162846326828003
      ],
      "type": "VEC3"
    },
    {
      "bufferView": 2,
      "byteOffset": 3996,
      "componentType": 5126,
      "count": 333,
      "max": [
        0.9999768733978271,
        0.9999862909317017,
        0.9999957084655762
      ],
      "min": [
        -0.9999587535858154,
        -0.9999104142189026,
        -0.9999986290931702
      ],
      "type": "VEC3"
    },
    {
      "bufferView": 3,
      "componentType": 5126,
      "count": 333,
      "max": [
        0.9989051818847656,
        0.9999812245368958,
        0.998378574848175,
        1.0
      ],
      "min": [
        -0.9999967813491821,
        -0.9930825233459473,
        -0.9999977946281433,
        1.0
      ],
      "type": "VEC4"
    },
    {
      "bufferView": 1,
      "componentType": 5126,
      "count": 333,
      "max": [
        0.99951171875,
        0.9829514622688293
      ],
      "min": [
        0.00048828125,
        0.0005086007295176387
      ],
      "type": "VEC2"
    },
    {
      "bufferView": 1,
      "byteOffset": 2664,
      "componentType": 5126,
      "count": 333,
      "max": [
        0.99951171875,
        0.9829514622688293
      ],
      "min": [
        0.00048828125,
        0.0005086007295176387
      ],
      "type": "VEC2"
    },
    {
      "bufferView": 0,
      "componentType": 5125,
      "count": 1584,
      "type": "SCALAR"
    },
    {
      "bufferView": 2,
      "byteOffset": 7992,
      "componentType": 5126,
      "count": 331,
      "max": [
        0.27984923124313354,
        0.7620558142662048,
        1.217879056930542
      ],
      "min": [
        -0.2763434946537018,
        -0.8501029014587402,
        -1.2162846326828003
      ],
      "type": "VEC3"
    },
    {
      "bufferView": 2,
      "byteOffset": 11964,
      "componentType": 5126,
      "count": 331,
      "max": [
        0.9999768733978271,
        0.9999862909317017,
        0.9999957084655762
      ],
      "min": [
        -0.9999587535858154,
        -0.9999104142189026,
        -0.9999986290931702
      ],
      "type": "VEC3"
    },
    {
      "bufferView": 3,
      "byteOffset": 5328,
      "componentType": 5126,
      "count": 331,
      "max": [
        0.9989758133888245,
        0.9999834299087524,
        0.9619484543800354,
        1.0
      ],
      "min": [
        -0.9999967813491821,
        -0.9937538504600525,
        -0.9582163095474243,
        1.0
      ],
      "type": "VEC4"
    },
    {
      "bufferView": 1,
      "byteOffset": 5328,
      "componentType": 5126,
      "count": 331,
      "max": [
        0.8645691871643066,
        0.9419371485710144
      ],
      "min": [
        0.06901588290929794,
        0.00048828125
      ],
      "type": "VEC2"
    },
    {
      "bufferView": 1,
      "byteOffset": 7976,
      "componentType": 5126,
      "count": 331,
      "max": [
        0.8645691871643066,
        0.9419371485710144
      ],
      "min": [
        0.06901588290929794,
        0.00048828125
      ],
      "type": "VEC2"
    },
    {
      "bufferView": 0,
      "byteOffset": 6336,
      "componentType": 5125,
      "count": 1584,
      "type": "SCALAR"
    },
    {
      "bufferView": 2,
      "byteOffset": 15936,
      "componentType": 5126,
      "count": 4,
      "max": [
        3.40791654586792,
        3.407916307449341,
        0.0
      ],
      "min": [
        -3.40791654586792,
        -3.40791654586792,
        0.0
      ],
      "type": "VEC3"
    },
    {
      "bufferView": 2,
      "byteOffset": 15984,
      "componentType": 5126,
      "count": 4,
      "max": [
        0.0,
        0.0,
        1.0
      ],
      "min": [
        0.0,
        0.0,
        1.0
      ],
      "type": "VEC3"
    },
    {
      "bufferView": 3,
      "byteOffset": 10624,
      "componentType": 5126,
      "count": 4,
      "max": [
        1.0,
        0.0,
        0.0,
        1.0
      ],
      "min": [
        1.0,
        0.0,
        0.0,
        1.0
      ],
      "type": "VEC4"
    },
    {
      "bufferView": 1,
      "byteOffset": 10624,
      "componentType": 5126,
      "count": 4,
      "max": [
        1.0,
        1.0
      ],
      "min": [
        0.0,
        0.0
      ],
      "type": "VEC2"
    },
    {
      "bufferView": 1,
      "byteOffset": 10656,
      "componentType": 5126,
      "count": 4,
      "max": [
        1.0,
        1.0
      ],
      "min": [
        0.0,
        0.0
      ],
      "type": "VEC2"
    },
    {
      "bufferView": 0,
      "byteOffset": 12672,
      "componentType": 5125,
      "count": 6,
      "type": "SCALAR"
    },
    {
      "bufferView": 2,
      "byteOffset": 16032,
      "componentType": 5126,
      "count": 722,
      "max": [
        2.6906979084014893,
        1.8792446851730347,
        3.1675143241882324
      ],
      "min": [
        -1.9295836687088013,
        -1.9385234117507935,
        -0.10902034491300583
      ],
      "type": "VEC3"
    },
    {
      "bufferView": 2,
      "byteOffset": 24696,
      "componentType": 5126,
      "count": 722,
      "max": [
        0.9998580813407898,
        0.9994008541107178,
        0.9992165565490723
      ],
      "min": [
        -0.9984286427497864,
        -0.9996708035469055,
        -0.9994813203811646
      ],
      "type": "VEC3"
    },
    {
      "bufferView": 3,
      "byteOffset": 10688,
      "componentType": 5126,
      "count": 722,
      "max": [
        0.9988453984260559,
        0.9996587634086609,
        0.9997993111610413,
        1.0
      ],
      "min": [
        -0.9878663420677185,
        -0.9590834975242615,
        -0.9992580413818359,
        1.0
      ],
      "type": "VEC4"
    },
    {
      "bufferView": 1,
      "byteOffset": 10688,
      "componentType": 5126,
      "count": 722,
      "max": [
        0.9977104663848877,
        0.99951171875
      ],
      "min": [
        0.0004888370749540627,
        0.00048828125
      ],
      "type": "VEC2"
    },
    {
      "bufferView": 1,
      "byteOffset": 16464,
      "componentType": 5126,
      "count": 722,
      "max": [
        0.9977104663848877,
        0.99951171875
      ],
      "min": [
        0.0004888370749540627,
        0.00048828125
      ],
      "type": "VEC2"
    },
    {
      "bufferView": 0,
      "byteOffset": 12696,
      "componentType": 5125,
      "count": 3696,
      "type": "SCALAR"
    }
  ],
  "asset": {
    "extras": {
      "author": "BiscuitEater (https://sketchfab.com/div.andromeda)",
      "license": "CC-BY-4.0 (http://creativecommons.org/licenses/by/4.0/)",
      "source": "https://sketchfab.com/3d-models/sorcerers-kit-b101fd45b31c4719b7caca788619716a",
      "title": "Sorcerer's Kit"
    },
    "generator": "Sketchfab-13.68.0",
    "version": "2.0"
  },
  "bufferViews": [
    {
      "buffer": 0,
      "byteLength": 27480,
      "name": "floatBufferViews",
      "target": 34963
    },
    {
      "buffer": 0,
      "byteLength": 22240,
      "byteOffset": 27480,
      "byteStride": 8,
      "name": "floatBufferViews",
      "target": 34962
    },
    {
      "buffer": 0,
      "byteLength": 33360,
      "byteOffset": 49720,
      "byteStride": 12,
      "name": "floatBufferViews",
      "target": 34962
    },
    {
      "buffer": 0,
      "byteLength": 22240,
      "byteOffset": 83080,
      "byteStride": 16,
      "name": "floatBufferViews",
      "target": 34962
    }
  ],
  "buffers": [
    {
      "byteLength": 105320,
      "uri": "scene.bin"
    }
  ],
  "images": [
    {
      "uri": "textures/BooksMat_baseColor.png"
    },
    {
      "uri": "textures/BooksMat_metallicRoughness.png"
    },
    {
      "uri": "textures/BooksMat_normal.png"
    },
    {
      "uri": "textures/GroundMat_baseColor.png"
    },
    {
      "uri": "textures/GroundMat_metallicRoughness.png"
    },
    {
      "uri": "textures/GroundMat_normal.png"
    },
    {
      "uri": "textures/HatMat_baseColor.png"
    },
    {
      "uri": "textures/HatMat_metallicRoughness.png"
    },
    {
      "uri": "textures/HatMat_normal.png"
    }
  ],
  "materials": [
    {
      "doubleSided": true,
      "name": "BooksMat",
      "normalTexture": {
        "index": 2
      },
      "occlusionTexture": {
        "index": 1
      },
      "pbrMetallicRoughness": {
        "baseColorTexture": {
          "index": 0
        },
        "metallicFactor": 0.0,
        "metallicRoughnessTexture": {
          "index": 1
        }
      }
    },
    {
      "alphaMode": "BLEND",
      "doubleSided": true,
      "name": "GroundMat",
      "normalTexture": {
        "index": 5
      },
      "occlusionTexture": {
        "index": 4
      },
      "pbrMetallicRoughness": {
        "baseColorTexture": {
          "index": 3
        },
        "metallicRoughnessTexture": {
          "index": 4
        }
      }
    },
    {
      "doubleSided": true,
      "name": "HatMat",
      "normalTexture": {
        "index": 8
      },
      "occlusionTexture": {
        "index": 7
      },
      "pbrMetallicRoughness": {
        "baseColorTexture": {
          "index": 6
        },
        "metallicRoughnessTexture": {
          "index": 7
        }
      }
    }
  ],
  "meshes": [
    {
      "name": "Book2_BooksMat_0",
      "primitives": [
        {
          "attributes": {
            "NORMAL": 1,
            "POSITION": 0,
            "TANGENT": 2,
            "TEXCOORD_0": 3,
            "TEXCOORD_1": 4
          },
          "indices": 5,
          "material": 0,
          "mode": 4
        }
      ]
    },
    {
      "name": "Book1_BooksMat_0",
      "primitives": [
        {
          "attributes": {
            "NORMAL": 7,
            "POSITION": 6,
            "TANGENT": 8,
            "TEXCOORD_0": 9,
            "TEXCOORD_1": 10
          },
          "indices": 11,
          "material": 0,
          "mode": 4
        }
      ]
    },
    {
      "name": "Ground_GroundMat_0",
      "primitives": [
        {
          "attributes": {
            "NORMAL": 13,
            "POSITION": 12,
            "TANGENT": 14,
            "TEXCOORD_0": 15,
            "TEXCOORD_1": 16
          },
          "indices": 17,
          "material": 1,
          "mode": 4
        }
      ]
    },
    {
      "name": "Hat_HatMat_0",
      "primitives": [
        {
          "attributes": {
            "NORMAL": 19,
            "POSITION": 18,
            "TANGENT": 20,
            "TEXCOORD_0": 21,
            "TEXCOORD_1": 22
          },
          "indices": 23,
          "material": 2,
          "mode": 4
        }
      ]
    }
  ],
  "nodes": [
    {
      "children": [
        1
      ],
      "matrix": [
        1.0,
        0.0,
        0.0,
        0.0,
        0.0,
        2.220446049250313e-16,
        -1.0,
        0.0,
        0.0,
        1.0,
        2.220446049250313e-16,
        0.0,
        0.0,
        0.0,
        0.0,
        1.0
      ],
      "name": "Sketchfab_model"
    },
    {
      "children": [
        2
      ],
      "matrix": [
        1.0,
        0.0,
        0.0,
        0.0,
        0.0,
        0.0,
        1.0,
        0.0,
        0.0,
        -1.0,
        0.0,
        0.0,
        0.0,
        0.0,
        0.0,
        1.0
      ],
      "name": "8dda49db13ca4459afa397517e0812ff.fbx"
    },
    {
      "children": [
        3,
        5,
        7,
        9
      ],
      "name": "RootNode"
    },
    {
      "children": [
        4
      ],
      "matrix": [
        -0.007707203441998757,
        0.999954551528704,
        0.005601310814995872,
        0.0,
        0.6851813370549256,
        0.009360761358731318,
        -0.7283123721991887,
        0.0,
        -0.7283317474610365,
        -0.0017753380942030494,
        -0.6852223827451964,
        0.0,
        0.016407374292612076,
        0.8029529452323914,
        0.8285744786262512,
        1.0
      ],
      "name": "Book2"
    },
    {
      "mesh": 0,
      "name": "Book2_BooksMat_0"
    },
    {
      "children": [
        6
      ],
      "matrix": [
        7.549789948768648e-08,
        0.9999999999999968,
        3.085363081689607e-08,
        0.0,
        -0.49999997476321767,
        1.10289192223334e-08,
        0.8660254183549012,
        0.0,
        0.8660254183548981,
        -8.080991470427179e-08,
        0.49999997476321667,
        0.0,
        2.384223876106262e-07,
        0.2797423303127289,
        0.8367837071418762,
        1.0
      ],
      "name": "Book1"
    },
    {
      "mesh": 1,
      "name": "Book1_BooksMat_0"
    },
    {
      "children": [
        8
      ],
      "matrix": [
        0.7054156990716688,
        4.9960038093365514e-17,
        -0.5589174857492352,
        0.0,
        -0.5589174857492346,
        -3.9340252420186265e-08,
        -0.7054156990716679,
        0.0,
        -2.443106014651438e-08,
        0.9000000357627859,
        -3.0834700619061105e-08,
        0.0,
        -0.07390515506267548,
        0.02821725606918335,
        1.0284523963928223,
        1.0
      ],
      "name": "Ground"
    },
    {
      "mesh": 2,
      "name": "Ground_GroundMat_0"
    },
    {
      "children": [
        10
      ],
      "matrix": [
        -0.41190613606632914,
        -0.284032099676766,
        1.1022513780628684,
        0.0,
        1.1211674693546452,
        -0.3036098787125684,
        0.34073970450538693,
        0.0,
        0.1965091533617279,
        1.1368579777079628,
        0.36638419560454893,
        0.0,
        0.4009944200515747,
        0.6300517916679382,
        1.3738749027252197,
        1.0
      ],
      "name": "Hat"
    },
    {
      "mesh": 3,
      "name": "Hat_HatMat_0"
    }
  ],
  "samplers": [
    {
      "magFilter": 9729,
      "minFilter": 9987,
      "wrapS": 10497,
      "wrapT": 10497
    }
  ],
  "scene": 0,
  "scenes": [
    {
      "name": "Sketchfab_Scene",
      "nodes": [
        0
      ]
    }
  ],
  "textures": [
    {
      "sampler": 0,
      "source": 0
    },
    {
      "sampler": 0,
      "source": 1
    },
    {
      "sampler": 0,
      "source": 2
    },
    {
      "sampler": 0,
      "source": 3
    },
    {
      "sampler": 0,
      "source": 4
    },
    {
      "sampler": 0,
      "source": 5
    },
    {
      "sampler": 0,
      "source": 6
    },
    {
      "sampler": 0,
      "source": 7
    },
    {
      "sampler": 0,
      "source": 8
    }
  ]
}
